CommissionerFlair-Regular.ufo
<glyph name="numbersign" format="2">
  <advance width="682.7684210526315"/>
  <unicode hex="0023"/>
  <outline>
    <contour>
      <point x="17.263157894736842" y="150.1157894736842" type="line"/>
      <point x="79.91578947368421" y="153.4842105263158"/>
      <point x="139.29473684210527" y="153.7578947368421"/>
      <point x="190.4" y="153.7578947368421" type="curve"/>
      <point x="436.0210526315789" y="153.7578947368421" type="line"/>
      <point x="487.12631578947367" y="153.7578947368421"/>
      <point x="546.5052631578948" y="153.4842105263158"/>
      <point x="609.1578947368421" y="150.1157894736842" type="curve"/>
      <point x="609.1578947368421" y="221.5263157894737" type="line"/>
      <point x="546.5052631578948" y="218.1578947368421"/>
      <point x="487.12631578947367" y="217.8842105263158"/>
      <point x="436.0210526315789" y="217.8842105263158" type="curve"/>
      <point x="190.4" y="217.8842105263158" type="line"/>
      <point x="139.29473684210527" y="217.8842105263158"/>
      <point x="79.91578947368421" y="218.1578947368421"/>
      <point x="17.263157894736842" y="221.5263157894737" type="curve"/>
    </contour>
    <contour>
      <point x="113.76842105263157" y="0.0" type="curve"/>
      <point x="192.2842105263158" y="0.0" type="line"/>
      <point x="200.6315789473684" y="68.27368421052631"/>
      <point x="212.0842105263158" y="127.46315789473684"/>
      <point x="228.98947368421054" y="211.73684210526315" type="curve"/>
      <point x="274.70526315789476" y="438.65263157894736" type="line"/>
      <point x="292.33684210526314" y="528.4736842105264"/>
      <point x="304.5157894736842" y="586.6526315789474"/>
      <point x="323.70526315789476" y="658.4736842105264" type="curve"/>
      <point x="245.73684210526315" y="658.4736842105264" type="line"/>
      <point x="236.1157894736842" y="585.5578947368421"/>
      <point x="225.4842105263158" y="527.6526315789474"/>
      <point x="207.85263157894735" y="440.10526315789474" type="curve"/>
      <point x="162.13684210526316" y="211.73684210526315" type="line"/>
      <point x="145.23157894736843" y="126.91578947368421"/>
      <point x="131.23157894736843" y="67.17894736842105"/>
    </contour>
    <contour>
      <point x="73.61052631578947" y="433.94736842105266" type="line"/>
      <point x="136.26315789473685" y="437.3157894736842"/>
      <point x="195.6421052631579" y="437.58947368421053"/>
      <point x="246.74736842105264" y="437.58947368421053" type="curve"/>
      <point x="492.36842105263156" y="437.58947368421053" type="line"/>
      <point x="543.4736842105264" y="437.58947368421053"/>
      <point x="602.8526315789474" y="437.3157894736842"/>
      <point x="665.5052631578948" y="433.94736842105266" type="curve"/>
      <point x="665.5052631578948" y="505.35789473684207" type="line"/>
      <point x="602.8526315789474" y="501.9894736842105"/>
      <point x="543.4736842105264" y="501.7157894736842"/>
      <point x="492.36842105263156" y="501.7157894736842" type="curve"/>
      <point x="246.74736842105264" y="501.7157894736842" type="line"/>
      <point x="195.6421052631579" y="501.7157894736842"/>
      <point x="136.26315789473685" y="501.9894736842105"/>
      <point x="73.61052631578947" y="505.35789473684207" type="curve"/>
    </contour>
    <contour>
      <point x="351.978947368421" y="0.0" type="curve"/>
      <point x="430.4947368421053" y="0.0" type="line"/>
      <point x="438.8421052631579" y="68.27368421052631"/>
      <point x="450.2947368421053" y="127.46315789473684"/>
      <point x="467.2" y="211.73684210526315" type="curve"/>
      <point x="512.9157894736842" y="438.65263157894736" type="line"/>
      <point x="530.5473684210526" y="528.4736842105264"/>
      <point x="542.7263157894737" y="586.6526315789474"/>
      <point x="561.9157894736842" y="658.4736842105264" type="curve"/>
      <point x="483.9473684210526" y="658.4736842105264" type="line"/>
      <point x="474.3263157894737" y="585.5578947368421"/>
      <point x="463.69473684210527" y="527.6526315789474"/>
      <point x="446.06315789473683" y="440.10526315789474" type="curve"/>
      <point x="400.34736842105264" y="211.73684210526315" type="line"/>
      <point x="383.4421052631579" y="126.91578947368421"/>
      <point x="369.4421052631579" y="67.17894736842105"/>
    </contour>
  </outline>
</glyph>
<glyph name="dollar" format="2">
  <advance width="561.8526315789474"/>
  <unicode hex="0024"/>
  <outline>
    <contour>
      <point x="287.53684210526313" y="-10.642105263157895" type="curve" smooth="yes"/>
      <point x="450.0421052631579" y="-10.642105263157895"/>
      <point x="521.7894736842105" y="73.71578947368421"/>
      <point x="521.7894736842105" y="185.21052631578948" type="curve" smooth="yes"/>
      <point x="521.7894736842105" y="283.06315789473683"/>
      <point x="470.2421052631579" y="331.61052631578946"/>
      <point x="307.06315789473683" y="383.87368421052633" type="curve" smooth="yes"/>
      <point x="186.47368421052633" y="423.12631578947367"/>
      <point x="134.67368421052632" y="445.7368421052632"/>
      <point x="134.67368421052632" y="510.9578947368421" type="curve" smooth="yes"/>
      <point x="134.67368421052632" y="590.1578947368421"/>
      <point x="206.7263157894737" y="621.7684210526315"/>
      <point x="284.9578947368421" y="623.2210526315789" type="curve"/>
      <point x="319.4105263157895" y="623.2210526315789"/>
      <point x="390.59999999999997" y="605.6736842105263"/>
      <point x="471.9684210526316" y="566.7684210526315" type="curve"/>
      <point x="481.1578947368421" y="648.1999999999999" type="line"/>
      <point x="430.61052631578946" y="666.4631578947368"/>
      <point x="344.93684210526317" y="697.0947368421052"/>
      <point x="276.18947368421055" y="697.0947368421052" type="curve" smooth="yes"/>
      <point x="130.14736842105262" y="697.0947368421052"/>
      <point x="54.77894736842105" y="617.0842105263158"/>
      <point x="54.77894736842105" y="510.6842105263158" type="curve" smooth="yes"/>
      <point x="54.77894736842105" y="403.10526315789474"/>
      <point x="128.86315789473684" y="359.6421052631579"/>
      <point x="258.4842105263158" y="318.9263157894737" type="curve" smooth="yes"/>
      <point x="372.5473684210526" y="283.0315789473684"/>
      <point x="442.1684210526316" y="256.9684210526316"/>
      <point x="442.1684210526316" y="184.8421052631579" type="curve" smooth="yes"/>
      <point x="442.1684210526316" y="95.74736842105264"/>
      <point x="374.12631578947367" y="63.589473684210525"/>
      <point x="284.8" y="62.13684210526316" type="curve"/>
      <point x="222.71578947368423" y="62.13684210526316"/>
      <point x="144.96842105263156" y="85.9578947368421"/>
      <point x="71.88421052631578" y="119.86315789473683" type="curve"/>
      <point x="63.873684210526314" y="36.61052631578947" type="line"/>
      <point x="114.8736842105263" y="19.621052631578948"/>
      <point x="193.69473684210527" y="-10.642105263157895"/>
    </contour>
    <contour>
      <point x="249.22105263157894" y="-137.0" type="curve"/>
      <point x="324.2736842105263" y="-137.0" type="line"/>
      <point x="319.81052631578945" y="-19.0"/>
      <point x="319.53684210526313" y="84.0"/>
      <point x="319.53684210526313" y="192.0" type="curve"/>
      <point x="319.53684210526313" y="474.0" type="line"/>
      <point x="319.53684210526313" y="582.0"/>
      <point x="319.81052631578945" y="685.0"/>
      <point x="324.2736842105263" y="803.0" type="curve"/>
      <point x="249.22105263157894" y="803.0" type="line"/>
      <point x="253.68421052631578" y="685.0"/>
      <point x="253.9578947368421" y="582.0"/>
      <point x="253.9578947368421" y="474.0" type="curve"/>
      <point x="253.9578947368421" y="192.0" type="line"/>
      <point x="253.9578947368421" y="84.0"/>
      <point x="253.68421052631578" y="-19.0"/>
    </contour>
  </outline>
</glyph>
<glyph name="percent" format="2">
  <advance width="880.5263157894736"/>
  <unicode hex="0025"/>
  <outline>
    <contour>
      <point x="187.78947368421052" y="0.0" type="curve"/>
      <point x="278.69473684210527" y="0.0" type="line"/>
      <point x="315.2315789473684" y="73.0"/>
      <point x="351.7789473684211" y="138.2736842105263"/>
      <point x="404.14736842105265" y="229.2736842105263" type="curve"/>
      <point x="546.4315789473684" y="477.0" type="line"/>
      <point x="600.2526315789473" y="571.4526315789474"/>
      <point x="638.4421052631579" y="636.5473684210526"/>
      <point x="688.2736842105263" y="713.0" type="curve"/>
      <point x="597.9157894736843" y="713.0" type="line"/>
      <point x="560.3789473684211" y="636.5473684210526"/>
      <point x="523.0105263157894" y="571.4526315789474"/>
      <point x="469.18947368421055" y="477.0" type="curve"/>
      <point x="326.90526315789475" y="229.2736842105263" type="line"/>
      <point x="274.53684210526313" y="138.2736842105263"/>
      <point x="236.62105263157895" y="73.0"/>
    </contour>
    <contour>
      <point x="220.37894736842105" y="371.4315789473684" type="curve" smooth="yes"/>
      <point x="331.13684210526316" y="371.4315789473684"/>
      <point x="406.77894736842103" y="440.4315789473684"/>
      <point x="406.77894736842103" y="548.3578947368421" type="curve" smooth="yes"/>
      <point x="406.77894736842103" y="649.7263157894737"/>
      <point x="331.13684210526316" y="726.0947368421052"/>
      <point x="221.37894736842105" y="726.0947368421052" type="curve" smooth="yes"/>
      <point x="110.89473684210526" y="726.0947368421052"/>
      <point x="34.526315789473685" y="649.7263157894737"/>
      <point x="34.526315789473685" y="548.3578947368421" type="curve" smooth="yes"/>
      <point x="34.526315789473685" y="440.4315789473684"/>
      <point x="110.89473684210526" y="371.4315789473684"/>
    </contour>
    <contour>
      <point x="220.65263157894736" y="429.8" type="curve"/>
      <point x="147.8" y="432.62105263157895"/>
      <point x="100.55789473684212" y="474.13684210526316"/>
      <point x="100.55789473684212" y="547.5368421052632" type="curve" smooth="yes"/>
      <point x="100.55789473684212" y="617.6631578947369"/>
      <point x="147.25263157894736" y="664.3578947368421"/>
      <point x="221.37894736842105" y="667.4526315789474" type="curve"/>
      <point x="295.5052631578947" y="664.3578947368421"/>
      <point x="340.7473684210526" y="617.1157894736842"/>
      <point x="340.7473684210526" y="547.5368421052632" type="curve" smooth="yes"/>
      <point x="340.7473684210526" y="474.13684210526316"/>
      <point x="295.2315789473684" y="432.62105263157895"/>
    </contour>
    <contour>
      <point x="656.8631578947369" y="-10.91578947368421" type="curve" smooth="yes"/>
      <point x="767.6210526315789" y="-10.91578947368421"/>
      <point x="843.2631578947369" y="58.084210526315786"/>
      <point x="843.2631578947369" y="166.01052631578946" type="curve" smooth="yes"/>
      <point x="843.2631578947369" y="267.37894736842105"/>
      <point x="767.6210526315789" y="343.7473684210526"/>
      <point x="657.8631578947368" y="343.7473684210526" type="curve" smooth="yes"/>
      <point x="547.3789473684211" y="343.7473684210526"/>
      <point x="471.0105263157895" y="267.37894736842105"/>
      <point x="471.0105263157895" y="166.01052631578946" type="curve" smooth="yes"/>
      <point x="471.0105263157895" y="58.084210526315786"/>
      <point x="547.3789473684211" y="-10.91578947368421"/>
    </contour>
    <contour>
      <point x="656.8631578947369" y="47.45263157894737" type="curve"/>
      <point x="584.0105263157894" y="50.27368421052632"/>
      <point x="536.7684210526315" y="91.78947368421053"/>
      <point x="536.7684210526315" y="165.18947368421053" type="curve" smooth="yes"/>
      <point x="536.7684210526315" y="235.31578947368422"/>
      <point x="583.4631578947368" y="282.0105263157895"/>
      <point x="657.5894736842105" y="285.10526315789474" type="curve"/>
      <point x="731.7157894736843" y="282.0105263157895"/>
      <point x="776.9578947368421" y="234.7684210526316"/>
      <point x="776.9578947368421" y="165.18947368421053" type="curve" smooth="yes"/>
      <point x="776.9578947368421" y="91.78947368421053"/>
      <point x="731.4421052631579" y="50.27368421052632"/>
    </contour>
  </outline>
</glyph>
<glyph name="ampersand" format="2">
  <advance width="736.2988505747127"/>
  <unicode hex="0026"/>
  <outline>
    <contour>
      <point x="605.3333333333334" y="0.0" type="curve"/>
      <point x="725.8620689655173" y="0.0" type="line"/>
      <point x="659.8965517241379" y="60.367816091954026"/>
      <point x="599.9195402298851" y="121.13793103448276"/>
      <point x="540.1379310344828" y="181.9080459770115" type="curve"/>
      <point x="313.28735632183907" y="410.7241379310345" type="line" smooth="yes"/>
      <point x="254.44827586206895" y="469.35632183908046"/>
      <point x="229.02298850574712" y="509.57471264367814"/>
      <point x="229.02298850574712" y="559.6206896551724" type="curve" smooth="yes"/>
      <point x="229.02298850574712" y="617.8735632183908"/>
      <point x="265.2528735632184" y="658.528735632184"/>
      <point x="325.51724137931035" y="661.1264367816092" type="curve"/>
      <point x="379.9655172413793" y="658.528735632184"/>
      <point x="420.39080459770116" y="622.7011494252873"/>
      <point x="420.39080459770116" y="566.6321839080459" type="curve" smooth="yes"/>
      <point x="420.39080459770116" y="499.7701149425287"/>
      <point x="356.55172413793105" y="465.34482758620686"/>
      <point x="291.0919540229885" y="427.32183908045977" type="curve"/>
      <point x="334.5977011494253" y="375.0344827586207" type="line"/>
      <point x="403.0344827586207" y="416.4367816091954"/>
      <point x="498.01149425287355" y="476.0"/>
      <point x="498.01149425287355" y="568.4252873563219" type="curve" smooth="yes"/>
      <point x="498.01149425287355" y="668.0"/>
      <point x="419.45977011494256" y="726.1954022988506"/>
      <point x="321.9310344827586" y="726.1954022988506" type="curve" smooth="yes"/>
      <point x="224.183908045977" y="726.1954022988506"/>
      <point x="145.42528735632183" y="663.3908045977012"/>
      <point x="145.42528735632183" y="559.0229885057471" type="curve" smooth="yes"/>
      <point x="145.42528735632183" y="486.60919540229884"/>
      <point x="184.4367816091954" y="432.01149425287355"/>
      <point x="246.45977011494253" y="369.0" type="curve" smooth="yes"/>
      <point x="476.8965517241379" y="136.0" type="line"/>
      <point x="522.1034482758621" y="91.0"/>
      <point x="568.3103448275862" y="44.0"/>
    </contour>
    <contour>
      <point x="268.82758620689657" y="-10.195402298850574" type="curve" smooth="yes"/>
      <point x="354.04597701149424" y="-10.195402298850574"/>
      <point x="423.4367816091954" y="32.42528735632184"/>
      <point x="496.04597701149424" y="108.26436781609195" type="curve"/>
      <point x="508.64367816091954" y="108.26436781609195" type="line"/>
      <point x="505.04597701149424" y="125.04597701149424" type="line"/>
      <point x="455.735632183908" y="172.5287356321839" type="line"/>
      <point x="394.2758620689655" y="96.05747126436782"/>
      <point x="330.88505747126436" y="60.850574712643684"/>
      <point x="278.98850574712645" y="60.850574712643684" type="curve"/>
      <point x="185.68965517241378" y="63.448275862068975"/>
      <point x="130.44827586206895" y="113.88505747126436"/>
      <point x="130.44827586206895" y="192.35632183908046" type="curve" smooth="yes"/>
      <point x="130.44827586206895" y="272.0344827586207"/>
      <point x="187.91954022988506" y="324.4597701149425"/>
      <point x="267.7816091954023" y="360.6896551724138" type="curve"/>
      <point x="231.26436781609195" y="414.7816091954023" type="line"/>
      <point x="141.8735632183908" y="374.7816091954023"/>
      <point x="49.241379310344826" y="306.58620689655174"/>
      <point x="49.241379310344826" y="184.58620689655172" type="curve" smooth="yes"/>
      <point x="49.241379310344826" y="76.20689655172413"/>
      <point x="122.4367816091954" y="-10.195402298850574"/>
    </contour>
    <contour>
      <point x="550.1149425287356" y="164.73563218390805" type="line"/>
      <point x="595.2988505747127" y="226.94252873563218"/>
      <point x="639.0804597701149" y="286.7471264367816"/>
      <point x="687.0574712643678" y="345.1609195402299" type="curve"/>
      <point x="610.2298850574712" y="393.64367816091954" type="line"/>
      <point x="577.2183908045977" y="329.64367816091954"/>
      <point x="540.816091954023" y="272.2413793103448"/>
      <point x="501.0114942528736" y="210.22988505747128" type="curve"/>
    </contour>
  </outline>
</glyph>
<glyph name="parenleft" format="2">
  <advance width="385.0736842105263"/>
  <unicode hex="0028"/>
  <outline>
    <contour>
      <point x="276.34736842105264" y="-121.03157894736842" type="curve"/>
      <point x="348.11578947368423" y="-93.16842105263157" type="line"/>
      <point x="234.7684210526316" y="17.652631578947368"/>
      <point x="143.6" y="141.82105263157894"/>
      <point x="143.6" y="323.7263157894737" type="curve" smooth="yes"/>
      <point x="143.6" y="506.3578947368421"/>
      <point x="234.7684210526316" y="629.8000000000001"/>
      <point x="348.11578947368423" y="740.6210526315789" type="curve"/>
      <point x="276.34736842105264" y="768.4842105263158" type="line"/>
      <point x="166.82105263157894" y="661.063157894737"/>
      <point x="59.05263157894737" y="521.2105263157895"/>
      <point x="59.05263157894737" y="323.7263157894737" type="curve" smooth="yes"/>
      <point x="59.05263157894737" y="126.96842105263157"/>
      <point x="166.82105263157894" y="-13.610526315789475"/>
    </contour>
  </outline>
</glyph>
<glyph name="asterisk" format="2">
  <advance width="473.0526315789474"/>
  <unicode hex="002A"/>
  <outline>
    <contour>
      <point x="413.5578947368421" y="371.0421052631579" type="curve"/>
      <point x="447.33684210526314" y="427.58947368421053" type="line"/>
      <point x="379.6" y="461.85263157894735"/>
      <point x="312.6842105263158" y="497.66315789473686"/>
      <point x="247.22105263157894" y="534.4736842105264" type="curve"/>
      <point x="183.22105263157894" y="577.1157894736842"/>
      <point x="121.22105263157894" y="620.0315789473684"/>
      <point x="59.49473684210527" y="664.4947368421052" type="curve"/>
      <point x="25.71578947368421" y="607.9473684210526" type="line"/>
      <point x="93.45263157894736" y="573.6842105263158"/>
      <point x="160.6421052631579" y="537.8736842105263"/>
      <point x="226.83157894736843" y="500.06315789473683" type="curve"/>
      <point x="289.8315789473684" y="458.42105263157896"/>
      <point x="351.8315789473684" y="415.2315789473684"/>
    </contour>
    <contour>
      <point x="59.76842105263158" y="371.0421052631579" type="line"/>
      <point x="121.22105263157894" y="415.5052631578947"/>
      <point x="183.49473684210525" y="458.42105263157896"/>
      <point x="247.22105263157894" y="501.06315789473683" type="curve"/>
      <point x="312.6842105263158" y="537.8736842105263"/>
      <point x="379.87368421052633" y="573.6842105263158"/>
      <point x="447.33684210526314" y="608.2210526315789" type="curve"/>
      <point x="413.5578947368421" y="664.4947368421052" type="line"/>
      <point x="351.8315789473684" y="620.0315789473684"/>
      <point x="289.8315789473684" y="577.1157894736842"/>
      <point x="226.83157894736843" y="535.2" type="curve"/>
      <point x="160.3684210526316" y="497.66315789473686"/>
      <point x="93.45263157894736" y="461.85263157894735"/>
      <point x="25.71578947368421" y="427.58947368421053" type="curve"/>
    </contour>
    <contour>
      <point x="203.33684210526317" y="290.4421052631579" type="curve"/>
      <point x="269.7157894736842" y="290.4421052631579" type="line"/>
      <point x="263.7052631578947" y="366.2631578947368"/>
      <point x="259.5157894736842" y="442.0842105263158"/>
      <point x="256.0526315789474" y="518.6315789473684" type="curve"/>
      <point x="259.5157894736842" y="593.7263157894737"/>
      <point x="263.7052631578947" y="669.5473684210526"/>
      <point x="269.4421052631579" y="745.3684210526316" type="curve"/>
      <point x="203.33684210526317" y="745.3684210526316" type="line"/>
      <point x="209.34736842105264" y="669.5473684210526"/>
      <point x="213.53684210526316" y="593.7263157894737"/>
      <point x="217.0" y="518.6315789473684" type="curve"/>
      <point x="213.53684210526316" y="442.0842105263158"/>
      <point x="209.34736842105264" y="366.2631578947368"/>
    </contour>
  </outline>
</glyph>
<glyph name="plus" format="2">
  <advance width="588.2105263157895"/>
  <unicode hex="002B"/>
  <outline>
    <contour>
      <point x="252.74736842105264" y="59.252631578947366" type="curve"/>
      <point x="335.4631578947368" y="59.252631578947366" type="line"/>
      <point x="332.09473684210525" y="121.90526315789474"/>
      <point x="331.82105263157894" y="181.2842105263158"/>
      <point x="331.82105263157894" y="232.38947368421051" type="curve"/>
      <point x="331.82105263157894" y="365.2736842105263" type="line"/>
      <point x="331.82105263157894" y="416.37894736842105"/>
      <point x="332.09473684210525" y="475.7578947368421"/>
      <point x="335.4631578947368" y="538.4105263157895" type="curve"/>
      <point x="252.74736842105264" y="538.4105263157895" type="line"/>
      <point x="256.11578947368423" y="475.7578947368421"/>
      <point x="256.38947368421054" y="416.37894736842105"/>
      <point x="256.38947368421054" y="365.2736842105263" type="curve"/>
      <point x="256.38947368421054" y="232.38947368421051" type="line"/>
      <point x="256.38947368421054" y="181.2842105263158"/>
      <point x="256.11578947368423" y="121.90526315789474"/>
    </contour>
    <contour>
      <point x="61.78947368421053" y="258.2947368421053" type="line"/>
      <point x="124.4421052631579" y="261.66315789473686"/>
      <point x="183.82105263157894" y="261.93684210526317"/>
      <point x="234.92631578947368" y="261.93684210526317" type="curve"/>
      <point x="353.2842105263158" y="261.93684210526317" type="line"/>
      <point x="404.38947368421054" y="261.93684210526317"/>
      <point x="463.7684210526316" y="261.66315789473686"/>
      <point x="526.421052631579" y="258.2947368421053" type="curve"/>
      <point x="526.421052631579" y="339.36842105263156" type="line"/>
      <point x="463.7684210526316" y="336.0"/>
      <point x="404.38947368421054" y="335.7263157894737"/>
      <point x="353.2842105263158" y="335.7263157894737" type="curve"/>
      <point x="234.92631578947368" y="335.7263157894737" type="line"/>
      <point x="183.82105263157894" y="335.7263157894737"/>
      <point x="124.4421052631579" y="336.0"/>
      <point x="61.78947368421053" y="339.36842105263156" type="curve"/>
    </contour>
  </outline>
</glyph>
<glyph name="comma" format="2">
  <advance width="229.8736842105263"/>
  <unicode hex="002C"/>
  <outline>
    <contour>
      <point x="31.042105263157893" y="-157.0" type="curve"/>
      <point x="80.38947368421053" y="-155.7263157894737" type="line"/>
      <point x="118.4" y="-108.36842105263159"/>
      <point x="177.2736842105263" y="-13.894736842105264"/>
      <point x="177.2736842105263" y="55.76842105263158" type="curve" smooth="yes"/>
      <point x="177.2736842105263" y="92.08421052631579"/>
      <point x="161.5263157894737" y="119.21052631578948"/>
      <point x="125.02105263157895" y="122.67368421052632" type="curve"/>
      <point x="74.66315789473684" y="119.48421052631579" type="line"/>
      <point x="80.67368421052632" y="87.0"/>
      <point x="83.0421052631579" y="54.51578947368421"/>
      <point x="83.0421052631579" y="23.673684210526318" type="curve"/>
      <point x="83.0421052631579" y="-34.96842105263158"/>
      <point x="65.93684210526315" y="-98.27368421052631"/>
    </contour>
  </outline>
</glyph>
<glyph name="period" format="2">
  <advance width="235.44210526315788"/>
  <unicode hex="002E"/>
  <outline>
    <contour>
      <point x="117.94736842105263" y="-10.91578947368421" type="curve" smooth="yes"/>
      <point x="159.3578947368421" y="-10.91578947368421"/>
      <point x="184.29473684210527" y="11.021052631578948"/>
      <point x="184.29473684210527" y="59.25263157894737" type="curve" smooth="yes"/>
      <point x="184.29473684210527" y="98.37894736842105"/>
      <point x="159.3578947368421" y="118.76842105263158"/>
      <point x="118.22105263157894" y="118.76842105263158" type="curve" smooth="yes"/>
      <point x="77.53684210526316" y="118.76842105263158"/>
      <point x="51.873684210526314" y="98.37894736842105"/>
      <point x="51.873684210526314" y="59.25263157894737" type="curve" smooth="yes"/>
      <point x="51.873684210526314" y="11.021052631578948"/>
      <point x="77.53684210526316" y="-10.91578947368421"/>
    </contour>
  </outline>
</glyph>
<glyph name="slash" format="2">
  <advance width="450.86315789473684"/>
  <unicode hex="002F"/>
  <outline>
    <contour>
      <point x="26.505263157894735" y="0.0" type="curve"/>
      <point x="120.15789473684211" y="0.0" type="line"/>
      <point x="146.6842105263158" y="74.0"/>
      <point x="172.49473684210525" y="137.0"/>
      <point x="211.7578947368421" y="228.0" type="curve"/>
      <point x="316.64210526315793" y="474.0" type="line"/>
      <point x="357.90526315789475" y="571.0"/>
      <point x="386.2631578947369" y="636.0"/>
      <point x="424.3578947368421" y="713.0" type="curve"/>
      <point x="330.9789473684211" y="713.0" type="line"/>
      <point x="302.7263157894737" y="636.0"/>
      <point x="275.91578947368424" y="570.7263157894737"/>
      <point x="235.65263157894736" y="476.0" type="curve"/>
      <point x="129.76842105263157" y="228.0" type="line"/>
      <point x="90.50526315789473" y="137.0"/>
      <point x="62.14736842105263" y="74.0"/>
    </contour>
  </outline>
</glyph>
<glyph name="zero" format="2">
  <advance width="652.578947368421"/>
  <unicode hex="0030"/>
  <outline>
    <contour>
      <point x="328.9263157894737" y="-10.642105263157895" type="curve" smooth="yes"/>
      <point x="503.1578947368421" y="-10.642105263157895"/>
      <point x="597.1578947368421" y="127.36842105263158"/>
      <point x="597.1578947368421" y="344.2736842105263" type="curve" smooth="yes"/>
      <point x="597.1578947368421" y="555.1789473684211"/>
      <point x="507.4315789473684" y="698.7368421052631"/>
      <point x="326.10526315789474" y="698.7368421052631" type="curve" smooth="yes"/>
      <point x="147.23157894736843" y="698.7368421052631"/>
      <point x="55.421052631578945" y="556.6315789473684"/>
      <point x="55.421052631578945" y="344.0" type="curve" smooth="yes"/>
      <point x="55.421052631578945" y="140.01052631578946"/>
      <point x="139.32631578947368" y="-10.642105263157895"/>
    </contour>
    <contour>
      <point x="326.9263157894737" y="63.77894736842106" type="curve"/>
      <point x="195.93684210526317" y="67.87368421052632"/>
      <point x="143.5263157894737" y="181.81052631578947"/>
      <point x="143.5263157894737" y="344.2736842105263" type="curve" smooth="yes"/>
      <point x="143.5263157894737" y="506.37894736842105"/>
      <point x="198.93684210526317" y="619.9473684210526"/>
      <point x="326.9263157894737" y="624.0421052631579" type="curve"/>
      <point x="451.46315789473687" y="619.9473684210526"/>
      <point x="509.3263157894737" y="514.0947368421052"/>
      <point x="509.3263157894737" y="344.2736842105263" type="curve" smooth="yes"/>
      <point x="509.3263157894737" y="183.9894736842105"/>
      <point x="457.36842105263156" y="67.87368421052632"/>
    </contour>
  </outline>
</glyph>
<glyph name="one" format="2">
  <advance width="430.44210526315794"/>
  <unicode hex="0031"/>
  <outline>
    <contour>
      <point x="54.65263157894737" y="482.4947368421052" type="line"/>
      <point x="127.47368421052632" y="527.8631578947369"/>
      <point x="201.38947368421051" y="568.9473684210526"/>
      <point x="276.30526315789473" y="609.0315789473684" type="curve"/>
      <point x="278.7684210526316" y="688.7368421052631" type="line"/>
      <point x="196.2" y="644.7368421052631"/>
      <point x="114.08421052631579" y="601.4631578947368"/>
      <point x="29.96842105263158" y="563.1999999999999" type="curve"/>
    </contour>
    <contour>
      <point x="229.37894736842105" y="0.0" type="curve"/>
      <point x="327.6" y="0.0" type="line"/>
      <point x="322.13684210526316" y="73.3578947368421"/>
      <point x="320.4947368421053" y="136.98947368421054"/>
      <point x="320.4947368421053" y="218.81052631578947" type="curve"/>
      <point x="320.4947368421053" y="447.5473684210526" type="line"/>
      <point x="320.4947368421053" y="530.9052631578948"/>
      <point x="322.3157894736842" y="610.6315789473684"/>
      <point x="327.6" y="685.6421052631579" type="curve"/>
      <point x="278.7684210526316" y="688.7368421052631" type="line"/>
      <point x="232.29473684210527" y="648.5684210526316" type="line"/>
      <point x="234.4842105263158" y="576.7578947368421"/>
      <point x="235.7578947368421" y="505.22105263157897"/>
      <point x="235.7578947368421" y="434.13684210526316" type="curve"/>
      <point x="235.7578947368421" y="218.81052631578947" type="line"/>
      <point x="235.7578947368421" y="136.98947368421054"/>
      <point x="233.8421052631579" y="73.3578947368421"/>
    </contour>
  </outline>
</glyph>
<glyph name="two" format="2">
  <advance width="554.4947368421052"/>
  <unicode hex="0032"/>
  <outline>
    <contour>
      <point x="48.62105263157895" y="0.0" type="line"/>
      <point x="501.33684210526314" y="0.0" type="line"/>
      <point x="501.33684210526314" y="83.0842105263158" type="line"/>
      <point x="425.63157894736844" y="76.15789473684211"/>
      <point x="349.2" y="74.8842105263158"/>
      <point x="273.4947368421053" y="74.8842105263158" type="curve"/>
      <point x="134.26315789473685" y="74.8842105263158" type="line"/>
      <point x="147.18947368421053" y="57.30526315789474" type="line"/>
      <point x="258.33684210526314" y="151.89473684210526" type="line"/>
      <point x="409.11578947368423" y="280.2"/>
      <point x="488.1684210526316" y="389.0"/>
      <point x="488.1684210526316" y="502.5263157894737" type="curve" smooth="yes"/>
      <point x="488.1684210526316" y="623.5473684210526"/>
      <point x="410.5157894736842" y="698.7368421052631"/>
      <point x="272.29473684210524" y="698.7368421052631" type="curve" smooth="yes"/>
      <point x="203.01052631578946" y="698.7368421052631"/>
      <point x="101.08421052631579" y="662.4736842105262"/>
      <point x="45.34736842105263" y="641.5684210526316" type="curve"/>
      <point x="54.63157894736842" y="555.0315789473684" type="line"/>
      <point x="139.61052631578949" y="600.3894736842105"/>
      <point x="224.61052631578949" y="623.4947368421052"/>
      <point x="258.61052631578946" y="623.4947368421052" type="curve"/>
      <point x="353.5473684210526" y="621.9473684210526"/>
      <point x="400.7894736842105" y="579.5263157894736"/>
      <point x="400.7894736842105" y="493.0421052631579" type="curve" smooth="yes"/>
      <point x="400.7894736842105" y="390.53684210526313"/>
      <point x="314.5368421052632" y="293.7578947368421"/>
      <point x="171.22105263157894" y="167.7157894736842" type="curve"/>
      <point x="130.50526315789475" y="132.2736842105263"/>
      <point x="89.33684210526316" y="98.74736842105263"/>
      <point x="48.62105263157895" y="67.22105263157896" type="curve"/>
    </contour>
  </outline>
</glyph>
<glyph name="three" format="2">
  <advance width="570.5632183908046"/>
  <unicode hex="0033"/>
  <outline>
    <contour>
      <point x="276.39080459770116" y="-10.793103448275861" type="curve" smooth="yes"/>
      <point x="440.5402298850575" y="-10.793103448275861"/>
      <point x="519.528735632184" y="73.80459770114942"/>
      <point x="519.528735632184" y="183.183908045977" type="curve" smooth="yes"/>
      <point x="519.528735632184" y="293.7931034482759"/>
      <point x="437.1034482758621" y="348.4022988505747"/>
      <point x="364.7011494252874" y="361.0" type="curve"/>
      <point x="364.7011494252874" y="369.39080459770116" type="line"/>
      <point x="436.5057471264368" y="386.1954022988506"/>
      <point x="496.51724137931035" y="444.81609195402297"/>
      <point x="496.51724137931035" y="530.816091954023" type="curve" smooth="yes"/>
      <point x="496.51724137931035" y="634.4022988505748"/>
      <point x="409.91954022988506" y="698.9885057471264"/>
      <point x="281.39080459770116" y="698.9885057471264" type="curve" smooth="yes"/>
      <point x="213.40229885057474" y="698.9885057471264"/>
      <point x="113.62068965517241" y="659.5747126436781"/>
      <point x="59.229885057471265" y="637.3678160919541" type="curve"/>
      <point x="68.816091954023" y="553.7471264367816" type="line"/>
      <point x="152.83908045977012" y="600.5632183908046"/>
      <point x="237.4367816091954" y="623.3563218390805"/>
      <point x="270.4367816091954" y="623.3563218390805" type="curve"/>
      <point x="350.28735632183907" y="621.7586206896552"/>
      <point x="409.3333333333333" y="589.9310344827586"/>
      <point x="409.3333333333333" y="517.0689655172414" type="curve" smooth="yes"/>
      <point x="409.3333333333333" y="446.2068965517241"/>
      <point x="355.6896551724138" y="393.5402298850575"/>
      <point x="229.3793103448276" y="392.3448275862069" type="curve"/>
      <point x="209.19540229885058" y="392.3448275862069"/>
      <point x="189.01149425287358" y="392.9425287356322"/>
      <point x="169.42528735632183" y="395.7356321839081" type="curve"/>
      <point x="169.42528735632183" y="318.90804597701145" type="line"/>
      <point x="190.80459770114942" y="321.10344827586204"/>
      <point x="211.58620689655172" y="321.7011494252873"/>
      <point x="233.5632183908046" y="321.7011494252873" type="curve"/>
      <point x="358.8735632183908" y="320.50574712643675"/>
      <point x="432.3448275862069" y="274.85057471264366"/>
      <point x="432.3448275862069" y="188.5632183908046" type="curve" smooth="yes"/>
      <point x="432.3448275862069" y="116.49425287356323"/>
      <point x="384.1034482758621" y="65.83908045977012"/>
      <point x="268.81609195402297" y="64.24137931034483" type="curve"/>
      <point x="206.20689655172416" y="64.24137931034483"/>
      <point x="127.02298850574711" y="89.4367816091954"/>
      <point x="53.01149425287356" y="125.64367816091955" type="curve"/>
      <point x="44.02298850574712" y="41.827586206896555" type="line"/>
      <point x="97.02298850574714" y="22.81609195402299"/>
      <point x="178.2183908045977" y="-10.793103448275861"/>
    </contour>
  </outline>
</glyph>
<glyph name="four" format="2">
  <advance width="599.7586206896551"/>
  <unicode hex="0034"/>
  <outline>
    <contour>
      <point x="354.2988505747126" y="0.0" type="curve"/>
      <point x="452.65517241379314" y="0.0" type="line"/>
      <point x="446.0689655172414" y="63.39080459770115"/>
      <point x="445.4712643678161" y="113.97701149425288"/>
      <point x="445.4712643678161" y="190.367816091954" type="curve"/>
      <point x="445.4712643678161" y="444.7931034482759" type="line"/>
      <point x="445.4712643678161" y="523.7931034482758"/>
      <point x="446.0689655172414" y="602.7931034482758"/>
      <point x="452.65517241379314" y="685.7931034482758" type="curve"/>
      <point x="355.28735632183907" y="685.7931034482758" type="line"/>
      <point x="329.4712643678161" y="641.5862068965517"/>
      <point x="297.264367816092" y="594.9770114942529"/>
      <point x="265.4597701149425" y="550.3678160919541" type="curve"/>
      <point x="177.64367816091954" y="425.7471264367816" type="line"/>
      <point x="132.4367816091954" y="362.7356321839081"/>
      <point x="72.42528735632183" y="277.51724137931035"/>
      <point x="30.2183908045977" y="224.49425287356323" type="curve"/>
      <point x="30.2183908045977" y="158.24137931034483" type="line"/>
      <point x="397.42528735632186" y="158.24137931034483" type="line"/>
      <point x="449.8045977011494" y="158.24137931034483"/>
      <point x="525.9770114942529" y="157.64367816091954"/>
      <point x="573.7586206896551" y="153.85057471264366" type="curve"/>
      <point x="573.7586206896551" y="238.05747126436782" type="line"/>
      <point x="525.9770114942529" y="233.66666666666669"/>
      <point x="449.8045977011494" y="233.0689655172414"/>
      <point x="397.42528735632186" y="233.0689655172414" type="curve"/>
      <point x="383.2298850574713" y="233.0689655172414" type="line"/>
      <point x="99.45977011494253" y="233.0689655172414" type="line"/>
      <point x="107.44827586206897" y="202.33333333333334" type="line"/>
      <point x="135.86206896551724" y="247.3448275862069"/>
      <point x="165.4712643678161" y="291.95402298850576"/>
      <point x="197.67816091954023" y="336.9655172413793" type="curve"/>
      <point x="317.5057471264368" y="506.8045977011494" type="line"/>
      <point x="354.11494252873564" y="558.816091954023"/>
      <point x="390.7241379310345" y="609.0344827586207"/>
      <point x="427.9310344827586" y="656.0574712643678" type="curve"/>
      <point x="358.28735632183907" y="644.0689655172414" type="line"/>
      <point x="362.8735632183908" y="572.8620689655172"/>
      <point x="363.4712643678161" y="502.2528735632184"/>
      <point x="363.4712643678161" y="431.04597701149424" type="curve"/>
      <point x="363.4712643678161" y="206.14942528735634" type="line"/>
      <point x="361.08045977011494" y="190.367816091954" type="line"/>
      <point x="361.08045977011494" y="113.97701149425288"/>
      <point x="360.48275862068965" y="63.39080459770115"/>
    </contour>
  </outline>
</glyph>
<glyph name="five" format="2">
  <advance width="574.5747126436781"/>
  <unicode hex="0035"/>
  <outline>
    <contour>
      <point x="273.7931034482759" y="-10.793103448275861" type="curve" smooth="yes"/>
      <point x="437.5402298850575" y="-10.793103448275861"/>
      <point x="523.5402298850574" y="83.39080459770115"/>
      <point x="523.5402298850574" y="223.57471264367817" type="curve" smooth="yes"/>
      <point x="523.5402298850574" y="372.17241379310343"/>
      <point x="426.32183908045977" y="441.9655172413793"/>
      <point x="308.3103448275862" y="441.9655172413793" type="curve" smooth="yes"/>
      <point x="260.86206896551727" y="441.9655172413793"/>
      <point x="212.4367816091954" y="426.7471264367816"/>
      <point x="176.82758620689657" y="408.9310344827586" type="curve"/>
      <point x="168.4367816091954" y="408.9310344827586" type="line"/>
      <point x="168.4367816091954" y="454.7701149425287" type="line"/>
      <point x="169.0344827586207" y="515.816091954023"/>
      <point x="171.22988505747128" y="577.8620689655172"/>
      <point x="174.2183908045977" y="639.9080459770115" type="curve"/>
      <point x="139.29885057471265" y="610.9655172413793" type="line"/>
      <point x="240.9080459770115" y="610.9655172413793" type="line"/>
      <point x="320.71264367816093" y="610.9655172413793"/>
      <point x="402.51724137931035" y="610.3678160919541"/>
      <point x="482.7241379310345" y="602.5862068965517" type="curve"/>
      <point x="482.7241379310345" y="685.7931034482758" type="line"/>
      <point x="80.44827586206895" y="685.7931034482758" type="line"/>
      <point x="86.03448275862068" y="609.0114942528736"/>
      <point x="87.03448275862068" y="524.2298850574713"/>
      <point x="87.03448275862068" y="433.85057471264366" type="curve"/>
      <point x="87.03448275862068" y="326.8735632183908" type="line"/>
      <point x="125.14942528735632" y="323.67816091954023" type="line"/>
      <point x="176.98850574712642" y="358.71264367816093"/>
      <point x="233.2183908045977" y="369.91954022988506"/>
      <point x="274.8390804597701" y="369.91954022988506" type="curve"/>
      <point x="365.0919540229885" y="368.32183908045977"/>
      <point x="436.35632183908046" y="329.0919540229885"/>
      <point x="436.35632183908046" y="220.58620689655172" type="curve" smooth="yes"/>
      <point x="436.35632183908046" y="121.89655172413794"/>
      <point x="380.5057471264368" y="65.83908045977012"/>
      <point x="267.2183908045977" y="64.24137931034483" type="curve"/>
      <point x="205.20689655172416" y="64.24137931034483"/>
      <point x="127.02298850574711" y="89.4367816091954"/>
      <point x="53.01149425287356" y="125.64367816091955" type="curve"/>
      <point x="44.02298850574712" y="41.827586206896555" type="line"/>
      <point x="97.02298850574714" y="22.81609195402299"/>
      <point x="177.2183908045977" y="-10.793103448275861"/>
    </contour>
  </outline>
</glyph>
<glyph name="seven" format="2">
  <advance width="527.9684210526316"/>
  <unicode hex="0037"/>
  <outline>
    <contour>
      <point x="106.57894736842105" y="0.0" type="curve"/>
      <point x="212.81052631578947" y="0.0" type="line"/>
      <point x="242.96842105263158" y="81.89473684210526"/>
      <point x="278.0421052631579" y="163.69473684210527"/>
      <point x="314.57894736842104" y="244.13684210526316" type="curve"/>
      <point x="377.9263157894737" y="383.29473684210524" type="line"/>
      <point x="415.9157894736842" y="467.36842105263156"/>
      <point x="451.17894736842106" y="543.8947368421053"/>
      <point x="488.4421052631579" y="619.6842105263157" type="curve"/>
      <point x="488.4421052631579" y="685.6421052631579" type="line"/>
      <point x="25.0" y="685.6421052631579" type="line"/>
      <point x="25.0" y="601.7368421052631" type="line"/>
      <point x="108.8" y="609.1157894736842"/>
      <point x="192.32631578947368" y="610.7578947368421"/>
      <point x="275.12631578947367" y="610.7578947368421" type="curve"/>
      <point x="415.36842105263156" y="610.7578947368421" type="line"/>
      <point x="393.13684210526316" y="629.7894736842105" type="line"/>
      <point x="373.7894736842105" y="578.8"/>
      <point x="351.9789473684211" y="528.2631578947369"/>
      <point x="328.62105263157895" y="477.2736842105263" type="curve"/>
      <point x="233.18947368421053" y="269.4947368421053" type="line"/>
      <point x="192.92631578947368" y="181.14736842105262"/>
      <point x="150.38947368421054" y="89.8"/>
    </contour>
  </outline>
</glyph>
<glyph name="less" format="2">
  <advance width="568.2105263157895"/>
  <unicode hex="003C"/>
  <outline>
    <contour>
      <point x="506.42105263157896" y="68.7578947368421" type="curve"/>
      <point x="506.42105263157896" y="157.02105263157895" type="line"/>
      <point x="435.4526315789474" y="181.90526315789475"/>
      <point x="360.85263157894735" y="213.61052631578949"/>
      <point x="288.4315789473684" y="244.58947368421053" type="curve"/>
      <point x="173.03157894736842" y="293.7368421052632" type="line"/>
      <point x="173.03157894736842" y="302.4736842105263" type="line"/>
      <point x="288.4315789473684" y="351.62105263157895" type="line"/>
      <point x="360.85263157894735" y="382.6"/>
      <point x="435.4526315789474" y="414.30526315789473"/>
      <point x="506.42105263157896" y="439.18947368421055" type="curve"/>
      <point x="506.42105263157896" y="527.4526315789474" type="line"/>
      <point x="444.4947368421053" y="497.9894736842105"/>
      <point x="384.38947368421054" y="471.9894736842105"/>
      <point x="332.5578947368421" y="449.9894736842105" type="curve"/>
      <point x="234.2" y="408.2736842105263" type="line"/>
      <point x="183.82105263157894" y="387.0"/>
      <point x="123.71578947368421" y="362.0"/>
      <point x="61.78947368421053" y="339.91578947368424" type="curve"/>
      <point x="61.78947368421053" y="256.29473684210524" type="line"/>
      <point x="123.71578947368421" y="234.21052631578948"/>
      <point x="183.82105263157894" y="209.21052631578948"/>
      <point x="234.2" y="187.93684210526317" type="curve"/>
      <point x="332.5578947368421" y="146.22105263157894" type="line"/>
      <point x="384.38947368421054" y="124.22105263157894"/>
      <point x="444.4947368421053" y="98.22105263157894"/>
    </contour>
  </outline>
</glyph>
<glyph name="equal" format="2">
  <advance width="568.2105263157895"/>
  <unicode hex="003D"/>
  <outline>
    <contour>
      <point x="64.52631578947368" y="146.45263157894735" type="line"/>
      <point x="127.17894736842105" y="149.82105263157894"/>
      <point x="186.55789473684212" y="150.09473684210525"/>
      <point x="237.66315789473686" y="150.09473684210525" type="curve"/>
      <point x="330.5473684210526" y="150.09473684210525" type="line"/>
      <point x="381.65263157894736" y="150.09473684210525"/>
      <point x="441.0315789473684" y="149.82105263157894"/>
      <point x="503.6842105263158" y="146.45263157894735" type="curve"/>
      <point x="503.6842105263158" y="227.5263157894737" type="line"/>
      <point x="441.0315789473684" y="224.1578947368421"/>
      <point x="381.65263157894736" y="223.8842105263158"/>
      <point x="330.5473684210526" y="223.8842105263158" type="curve"/>
      <point x="237.66315789473686" y="223.8842105263158" type="line"/>
      <point x="186.55789473684212" y="223.8842105263158"/>
      <point x="127.17894736842105" y="224.1578947368421"/>
      <point x="64.52631578947368" y="227.5263157894737" type="curve"/>
    </contour>
    <contour>
      <point x="64.52631578947368" y="370.13684210526316" type="line"/>
      <point x="127.17894736842105" y="373.5052631578947"/>
      <point x="186.55789473684212" y="373.77894736842103"/>
      <point x="237.66315789473686" y="373.77894736842103" type="curve"/>
      <point x="330.5473684210526" y="373.77894736842103" type="line"/>
      <point x="381.65263157894736" y="373.77894736842103"/>
      <point x="441.0315789473684" y="373.5052631578947"/>
      <point x="503.6842105263158" y="370.13684210526316" type="curve"/>
      <point x="503.6842105263158" y="451.2105263157895" type="line"/>
      <point x="441.0315789473684" y="447.8421052631579"/>
      <point x="381.65263157894736" y="447.5684210526316"/>
      <point x="330.5473684210526" y="447.5684210526316" type="curve"/>
      <point x="237.66315789473686" y="447.5684210526316" type="line"/>
      <point x="186.55789473684212" y="447.5684210526316"/>
      <point x="127.17894736842105" y="447.8421052631579"/>
      <point x="64.52631578947368" y="451.2105263157895" type="curve"/>
    </contour>
  </outline>
</glyph>
<glyph name="greater" format="2">
  <advance width="568.2105263157895"/>
  <unicode hex="003E"/>
  <outline>
    <contour>
      <point x="61.78947368421053" y="68.7578947368421" type="line"/>
      <point x="123.71578947368421" y="98.22105263157894"/>
      <point x="183.82105263157894" y="124.22105263157894"/>
      <point x="235.65263157894736" y="146.22105263157894" type="curve"/>
      <point x="334.0105263157895" y="187.93684210526317" type="line"/>
      <point x="384.38947368421054" y="209.21052631578948"/>
      <point x="444.4947368421053" y="234.21052631578948"/>
      <point x="506.42105263157896" y="256.29473684210524" type="curve"/>
      <point x="506.42105263157896" y="339.91578947368424" type="line"/>
      <point x="444.4947368421053" y="362.0"/>
      <point x="384.38947368421054" y="387.0"/>
      <point x="334.0105263157895" y="408.2736842105263" type="curve"/>
      <point x="235.65263157894736" y="449.9894736842105" type="line"/>
      <point x="183.82105263157894" y="471.9894736842105"/>
      <point x="123.71578947368421" y="497.9894736842105"/>
      <point x="61.78947368421053" y="527.4526315789474" type="curve"/>
      <point x="61.78947368421053" y="439.18947368421055" type="line"/>
      <point x="132.7578947368421" y="414.30526315789473"/>
      <point x="207.3578947368421" y="382.6"/>
      <point x="279.77894736842103" y="351.62105263157895" type="curve"/>
      <point x="395.17894736842106" y="302.4736842105263" type="line"/>
      <point x="395.17894736842106" y="293.7368421052632" type="line"/>
      <point x="279.77894736842103" y="244.58947368421053" type="line"/>
      <point x="207.3578947368421" y="213.61052631578949"/>
      <point x="132.7578947368421" y="181.90526315789475"/>
      <point x="61.78947368421053" y="157.02105263157895" type="curve"/>
    </contour>
  </outline>
</glyph>
<glyph name="at" format="2">
  <advance width="882.3894736842105"/>
  <unicode hex="0040"/>
  <outline>
    <contour>
      <point x="472.7368421052632" y="-131.57894736842104" type="curve" smooth="yes"/>
      <point x="557.2842105263159" y="-131.57894736842104"/>
      <point x="673.1894736842105" y="-94.58947368421053"/>
      <point x="755.2842105263157" y="-59.410526315789475" type="curve"/>
      <point x="755.2842105263157" y="6.505263157894738" type="line"/>
      <point x="650.7263157894737" y="-44.68421052631579"/>
      <point x="539.3578947368421" y="-72.6736842105263"/>
      <point x="472.7368421052632" y="-76.22105263157894" type="curve"/>
      <point x="195.58947368421053" y="-72.6736842105263"/>
      <point x="71.42105263157895" y="117.54736842105264"/>
      <point x="117.51578947368421" y="334.36842105263156" type="curve" smooth="yes"/>
      <point x="158.23157894736843" y="526.3052631578947"/>
      <point x="291.0" y="616.6947368421053"/>
      <point x="467.7368421052632" y="620.2421052631579" type="curve"/>
      <point x="683.4315789473684" y="616.6947368421053"/>
      <point x="807.0526315789474" y="462.66315789473686"/>
      <point x="766.6" y="258.6736842105263" type="curve" smooth="yes"/>
      <point x="751.9684210526316" y="185.2421052631579"/>
      <point x="686.8210526315789" y="121.46315789473684"/>
      <point x="642.2947368421053" y="120.36842105263158" type="curve"/>
      <point x="591.8631578947369" y="122.91578947368421"/>
      <point x="572.9684210526316" y="154.01052631578946"/>
      <point x="585.1473684210526" y="213.81052631578947" type="curve"/>
      <point x="604.4105263157895" y="306.4" type="line"/>
      <point x="617.6842105263157" y="364.93684210526317"/>
      <point x="632.5052631578947" y="422.56842105263155"/>
      <point x="652.5999999999999" y="481.2842105263158" type="curve"/>
      <point x="583.5578947368422" y="476.9157894736842" type="line"/>
      <point x="567.2842105263157" y="423.2842105263158" type="line"/>
      <point x="560.0947368421052" y="423.2842105263158" type="line"/>
      <point x="531.5578947368422" y="459.0210526315789"/>
      <point x="477.2105263157895" y="487.0105263157895"/>
      <point x="430.13684210526316" y="487.0105263157895" type="curve" smooth="yes"/>
      <point x="336.6842105263158" y="487.0105263157895"/>
      <point x="266.2421052631579" y="413.3578947368421"/>
      <point x="243.61052631578949" y="303.8315789473684" type="curve" smooth="yes"/>
      <point x="218.33684210526314" y="182.2736842105263"/>
      <point x="267.62105263157895" y="71.3578947368421"/>
      <point x="384.7894736842105" y="71.3578947368421" type="curve" smooth="yes"/>
      <point x="424.6842105263158" y="71.3578947368421"/>
      <point x="472.41052631578947" y="93.90526315789474"/>
      <point x="514.8526315789474" y="138.53684210526313" type="curve"/>
      <point x="521.7684210526315" y="138.53684210526313" type="line"/>
      <point x="532.9684210526316" y="99.89473684210526"/>
      <point x="569.3684210526316" y="61.90526315789474"/>
      <point x="645.7368421052631" y="61.90526315789474" type="curve" smooth="yes"/>
      <point x="695.4736842105264" y="61.90526315789474"/>
      <point x="800.9578947368421" y="131.52631578947367"/>
      <point x="823.421052631579" y="247.2" type="curve" smooth="yes"/>
      <point x="868.6105263157895" y="481.58947368421053"/>
      <point x="716.0421052631579" y="675.6"/>
      <point x="469.0105263157895" y="675.6" type="curve" smooth="yes"/>
      <point x="276.82105263157894" y="675.6"/>
      <point x="107.15789473684211" y="572.9578947368421"/>
      <point x="60.242105263157896" y="345.2105263157895" type="curve" smooth="yes"/>
      <point x="9.410526315789474" y="100.43157894736842"/>
      <point x="159.25263157894736" y="-131.57894736842104"/>
    </contour>
    <contour>
      <point x="402.7473684210526" y="134.47368421052633" type="curve"/>
      <point x="323.6421052631579" y="136.47368421052633"/>
      <point x="293.7578947368421" y="205.5157894736842"/>
      <point x="312.10526315789474" y="292.89473684210526" type="curve" smooth="yes"/>
      <point x="327.82105263157894" y="366.8421052631579"/>
      <point x="371.5157894736842" y="420.0736842105263"/>
      <point x="444.4526315789474" y="422.34736842105264" type="curve"/>
      <point x="485.0526315789474" y="422.5263157894737"/>
      <point x="521.8315789473684" y="400.82105263157894"/>
      <point x="549.0736842105263" y="372.30526315789473" type="curve"/>
      <point x="513.3684210526316" y="206.31578947368422" type="line"/>
      <point x="477.3157894736842" y="156.2736842105263"/>
      <point x="436.8105263157895" y="136.47368421052633"/>
    </contour>
  </outline>
</glyph>
<glyph name="A" format="2">
  <advance width="691.2631578947369"/>
  <unicode hex="0041"/>
  <anchor x="345.7684210526316" y="0.0" name="bottom"/>
  <anchor x="667.2947368421052" y="0.0" name="ogonek"/>
  <anchor x="345.7684210526316" y="713.0" name="top"/>
  <outline>
    <contour>
      <point x="21.42105263157895" y="0.0" type="curve"/>
      <point x="130.20000000000002" y="0.0" type="line"/>
      <point x="154.16842105263157" y="83.43157894736842"/>
      <point x="182.9578947368421" y="174.68421052631578"/>
      <point x="211.4842105263158" y="256.66315789473686" type="curve"/>
      <point x="342.30526315789473" y="631.2947368421053" type="line"/>
      <point x="351.0421052631579" y="631.2947368421053" type="line"/>
      <point x="480.86315789473684" y="253.38947368421051" type="line"/>
      <point x="507.66315789473686" y="175.13684210526316"/>
      <point x="536.8210526315789" y="83.25263157894737"/>
      <point x="559.5157894736842" y="0.0" type="curve"/>
      <point x="669.6631578947369" y="0.0" type="line"/>
      <point x="636.6631578947369" y="76.0"/>
      <point x="603.9368421052632" y="162.0"/>
      <point x="575.8526315789474" y="241.0" type="curve"/>
      <point x="488.14736842105265" y="486.7263157894737" type="line"/>
      <point x="456.61052631578946" y="574.1789473684211"/>
      <point x="434.8947368421053" y="639.9052631578948"/>
      <point x="415.5473684210526" y="713.0" type="curve"/>
      <point x="279.4421052631579" y="713.0" type="line"/>
      <point x="259.6421052631579" y="641.0"/>
      <point x="237.65263157894736" y="575.0"/>
      <point x="205.8421052631579" y="486.7263157894737" type="curve"/>
      <point x="117.41052631578948" y="241.7263157894737" type="line"/>
      <point x="89.60000000000001" y="165.0"/>
      <point x="54.96842105263158" y="76.72631578947369"/>
    </contour>
    <contour>
      <point x="162.17894736842103" y="179.18947368421053" type="line"/>
      <point x="537.4736842105264" y="179.18947368421053" type="line"/>
      <point x="531.1789473684211" y="250.2421052631579" type="line"/>
      <point x="169.8421052631579" y="250.2421052631579" type="line"/>
    </contour>
  </outline>
</glyph>
<glyph name="C" format="2">
  <advance width="684.6315789473684"/>
  <unicode hex="0043"/>
  <anchor x="398.81052631578945" y="0.0" name="bottom"/>
  <anchor x="391.5473684210526" y="713.0" name="top"/>
  <outline>
    <contour>
      <point x="415.63157894736844" y="-10.91578947368421" type="curve" smooth="yes"/>
      <point x="488.7368421052631" y="-10.91578947368421"/>
      <point x="570.378947368421" y="9.905263157894737"/>
      <point x="629.6526315789474" y="35.97894736842105" type="curve"/>
      <point x="622.2842105263157" y="126.43157894736842" type="line"/>
      <point x="560.7368421052631" y="88.78947368421053"/>
      <point x="485.36842105263156" y="67.2421052631579"/>
      <point x="423.4842105263158" y="67.2421052631579" type="curve"/>
      <point x="239.03157894736842" y="70.51578947368421"/>
      <point x="144.17894736842106" y="197.90526315789475"/>
      <point x="144.17894736842106" y="357.17894736842106" type="curve" smooth="yes"/>
      <point x="144.17894736842106" y="535.6421052631579"/>
      <point x="254.93684210526317" y="642.7473684210527"/>
      <point x="400.90526315789475" y="646.021052631579" type="curve"/>
      <point x="440.63157894736844" y="646.021052631579"/>
      <point x="524.2631578947369" y="627.4736842105264"/>
      <point x="626.5473684210526" y="580.8315789473684" type="curve"/>
      <point x="634.8315789473684" y="670.8315789473684" type="line"/>
      <point x="576.2842105263157" y="693.7368421052632"/>
      <point x="482.65263157894736" y="726.0947368421052"/>
      <point x="402.17894736842106" y="726.0947368421052" type="curve" smooth="yes"/>
      <point x="192.22105263157894" y="726.0947368421052"/>
      <point x="50.14736842105263" y="573.5368421052632"/>
      <point x="50.14736842105263" y="357.63157894736844" type="curve" smooth="yes"/>
      <point x="50.14736842105263" y="145.33684210526314"/>
      <point x="189.25263157894736" y="-10.91578947368421"/>
    </contour>
  </outline>
</glyph>
<glyph name="D" format="2">
  <advance width="737.9052631578948"/>
  <unicode hex="0044"/>
  <anchor x="351.36842105263156" y="0.0" name="bottom"/>
  <anchor x="369.4526315789474" y="357.0" name="center"/>
  <anchor x="351.36842105263156" y="713.0" name="top"/>
  <outline>
    <contour>
      <point x="87.2" y="0.0" type="curve"/>
      <point x="165.56842105263158" y="0.0"/>
      <point x="228.8842105263158" y="-3.1894736842105265"/>
      <point x="317.4631578947368" y="-3.1894736842105265" type="curve"/>
      <point x="588.0315789473684" y="-3.1894736842105265"/>
      <point x="687.7578947368421" y="158.17894736842106"/>
      <point x="687.7578947368421" y="359.4526315789474" type="curve" smooth="yes"/>
      <point x="687.7578947368421" y="581.9157894736842"/>
      <point x="563.9368421052632" y="715.6421052631579"/>
      <point x="344.12631578947367" y="715.6421052631579" type="curve"/>
      <point x="256.89473684210526" y="715.6421052631579"/>
      <point x="178.9157894736842" y="713.0"/>
      <point x="87.2" y="713.0" type="curve"/>
      <point x="91.93684210526315" y="633.0947368421052"/>
      <point x="93.85263157894737" y="563.9157894736842"/>
      <point x="93.85263157894737" y="474.7263157894737" type="curve"/>
      <point x="93.85263157894737" y="235.53684210526316" type="line"/>
      <point x="93.85263157894737" y="147.44210526315788"/>
      <point x="91.93684210526315" y="79.08421052631579"/>
    </contour>
    <contour>
      <point x="187.2421052631579" y="75.33684210526316" type="line"/>
      <point x="184.96842105263158" y="132.1157894736842"/>
      <point x="184.42105263157896" y="186.0842105263158"/>
      <point x="184.42105263157896" y="253.05263157894737" type="curve"/>
      <point x="184.42105263157896" y="457.7578947368421" type="line"/>
      <point x="184.42105263157896" y="525.8210526315789"/>
      <point x="184.96842105263158" y="580.0631578947368"/>
      <point x="187.2421052631579" y="637.6631578947369" type="curve"/>
      <point x="328.7263157894737" y="637.6631578947369" type="line"/>
      <point x="518.7894736842104" y="633.8421052631579"/>
      <point x="593.7263157894737" y="528.3578947368421"/>
      <point x="593.7263157894737" y="361.0" type="curve" smooth="yes"/>
      <point x="593.7263157894737" y="197.90526315789475"/>
      <point x="528.3263157894736" y="79.43157894736842"/>
      <point x="317.9157894736842" y="75.33684210526316" type="curve"/>
    </contour>
  </outline>
</glyph>
<glyph name="F" format="2">
  <advance width="575.1052631578947"/>
  <unicode hex="0046"/>
  <outline>
    <contour>
      <point x="87.2" y="0.0" type="curve"/>
      <point x="190.1578947368421" y="0.0" type="line"/>
      <point x="184.42105263157893" y="79.08421052631579"/>
      <point x="182.77894736842106" y="147.44210526315788"/>
      <point x="182.77894736842106" y="235.53684210526316" type="curve"/>
      <point x="182.77894736842106" y="461.6" type="line"/>
      <point x="182.77894736842106" y="550.7894736842105"/>
      <point x="184.42105263157893" y="619.9684210526316"/>
      <point x="190.1578947368421" y="699.8736842105263" type="curve"/>
      <point x="190.1578947368421" y="713.0" type="line"/>
      <point x="87.2" y="713.0" type="line"/>
      <point x="91.93684210526315" y="633.0947368421052"/>
      <point x="93.85263157894737" y="563.9157894736842"/>
      <point x="93.85263157894737" y="474.7263157894737" type="curve"/>
      <point x="93.85263157894737" y="235.53684210526316" type="line"/>
      <point x="93.85263157894737" y="147.44210526315788"/>
      <point x="91.93684210526315" y="79.08421052631579"/>
    </contour>
    <contour>
      <point x="161.17894736842106" y="319.0842105263158" type="line"/>
      <point x="291.89473684210526" y="319.0842105263158" type="line"/>
      <point x="381.7894736842105" y="319.0842105263158"/>
      <point x="442.32631578947365" y="318.5368421052632"/>
      <point x="508.3157894736842" y="315.34736842105264" type="curve"/>
      <point x="508.3157894736842" y="399.8842105263158" type="line"/>
      <point x="446.05263157894734" y="394.9684210526316"/>
      <point x="384.7894736842105" y="394.42105263157896"/>
      <point x="292.62105263157895" y="394.42105263157896" type="curve"/>
      <point x="161.17894736842106" y="394.42105263157896" type="line"/>
    </contour>
    <contour>
      <point x="165.55789473684212" y="635.2" type="line"/>
      <point x="286.35789473684207" y="635.2" type="line"/>
      <point x="389.7894736842105" y="635.2"/>
      <point x="461.41052631578947" y="632.8315789473685"/>
      <point x="528.3052631578947" y="627.3684210526317" type="curve"/>
      <point x="528.3052631578947" y="713.0" type="line"/>
      <point x="165.55789473684212" y="713.0" type="line"/>
    </contour>
  </outline>
</glyph>
<glyph name="I" format="2">
  <advance width="283.10526315789474"/>
  <unicode hex="0049"/>
  <anchor x="139.95789473684212" y="0.0" name="bottom"/>
  <anchor x="193.16842105263157" y="0.0" name="ogonek"/>
  <anchor x="139.95789473684212" y="713.0" name="top"/>
  <anchor x="35.357894736842105" y="713.0" name="topleft"/>
  <outline>
    <contour>
      <point x="88.56842105263158" y="0.0" type="curve"/>
      <point x="194.53684210526316" y="0.0" type="line"/>
      <point x="188.79999999999998" y="79.08421052631579"/>
      <point x="187.1578947368421" y="147.44210526315788"/>
      <point x="187.1578947368421" y="235.53684210526316" type="curve"/>
      <point x="187.1578947368421" y="474.7263157894737" type="line"/>
      <point x="187.1578947368421" y="563.9157894736842"/>
      <point x="188.79999999999998" y="633.0947368421052"/>
      <point x="194.53684210526316" y="713.0" type="curve"/>
      <point x="88.56842105263158" y="713.0" type="line"/>
      <point x="93.30526315789473" y="633.0947368421052"/>
      <point x="95.22105263157894" y="563.9157894736842"/>
      <point x="95.22105263157894" y="474.7263157894737" type="curve"/>
      <point x="95.22105263157894" y="235.53684210526316" type="line"/>
      <point x="95.22105263157894" y="147.44210526315788"/>
      <point x="93.30526315789473" y="79.08421052631579"/>
    </contour>
  </outline>
</glyph>
<glyph name="J" format="2">
  <advance width="294.53684210526313"/>
  <unicode hex="004A"/>
  <anchor x="151.7578947368421" y="0.0" name="bottom"/>
  <anchor x="151.7578947368421" y="713.0" name="top"/>
  <outline>
    <contour>
      <point x="16.42105263157895" y="-157.81052631578947" type="curve"/>
      <point x="116.05263157894737" y="-157.81052631578947" type="line"/>
      <point x="152.6" y="-112.26315789473684"/>
      <point x="203.14736842105265" y="-38.810526315789474"/>
      <point x="203.14736842105265" y="62.294736842105266" type="curve" smooth="yes"/>
      <point x="203.14736842105265" y="134.41052631578947"/>
      <point x="198.58947368421053" y="212.5263157894737"/>
      <point x="198.58947368421053" y="295.82105263157894" type="curve"/>
      <point x="198.58947368421053" y="474.7263157894737" type="line"/>
      <point x="198.58947368421053" y="563.9157894736842"/>
      <point x="200.23157894736843" y="633.0947368421052"/>
      <point x="205.96842105263158" y="713.0" type="curve"/>
      <point x="101.36842105263158" y="713.0" type="line"/>
      <point x="106.10526315789473" y="633.0947368421052"/>
      <point x="108.02105263157894" y="563.9157894736842"/>
      <point x="108.02105263157894" y="474.7263157894737" type="curve"/>
      <point x="108.02105263157894" y="273.30526315789473" type="line"/>
      <point x="107.29473684210527" y="67.7578947368421" type="line"/>
      <point x="107.29473684210527" y="-25.23157894736842"/>
      <point x="70.6842105263158" y="-92.97894736842105"/>
    </contour>
  </outline>
</glyph>
<glyph name="K" format="2">
  <advance width="670.8105263157895"/>
  <unicode hex="004B"/>
  <anchor x="344.04210526315785" y="0.0" name="bottom"/>
  <anchor x="344.04210526315785" y="713.0" name="top"/>
  <outline>
    <contour>
      <point x="521.3157894736843" y="0.0" type="curve"/>
      <point x="651.0315789473685" y="0.0" type="line"/>
      <point x="587.957894736842" y="60.915789473684214"/>
      <point x="493.08421052631576" y="160.4842105263158"/>
      <point x="423.56842105263155" y="234.86315789473684" type="curve"/>
      <point x="273.63157894736844" y="396.4421052631579" type="line"/>
      <point x="275.0" y="356.7157894736842" type="line"/>
      <point x="409.12631578947367" y="493.63157894736844" type="line"/>
      <point x="480.6421052631579" y="566.0"/>
      <point x="551.8842105263158" y="637.8210526315789"/>
      <point x="632.042105263158" y="713.0" type="curve"/>
      <point x="506.6105263157895" y="713.0" type="line"/>
      <point x="440.13684210526316" y="638.2"/>
      <point x="391.4526315789474" y="586.4842105263158"/>
      <point x="335.04210526315785" y="528.8631578947368" type="curve"/>
      <point x="215.13684210526318" y="405.9894736842105" type="line"/>
      <point x="173.95789473684212" y="405.9894736842105" type="line"/>
      <point x="173.95789473684212" y="331.7473684210526" type="line"/>
      <point x="215.50526315789475" y="331.7473684210526" type="line"/>
      <point x="353.84210526315786" y="185.05263157894737" type="line"/>
      <point x="407.7052631578947" y="128.61052631578946"/>
      <point x="460.56842105263155" y="70.4421052631579"/>
    </contour>
    <contour>
      <point x="87.2" y="0.0" type="curve"/>
      <point x="191.5263157894737" y="0.0" type="line"/>
      <point x="185.78947368421052" y="79.08421052631579"/>
      <point x="184.14736842105265" y="147.44210526315788"/>
      <point x="184.14736842105265" y="235.53684210526316" type="curve"/>
      <point x="184.14736842105265" y="474.7263157894737" type="line"/>
      <point x="184.14736842105265" y="563.9157894736842"/>
      <point x="185.78947368421052" y="633.0947368421052"/>
      <point x="191.5263157894737" y="713.0" type="curve"/>
      <point x="87.2" y="713.0" type="line"/>
      <point x="91.93684210526315" y="633.0947368421052"/>
      <point x="93.85263157894737" y="563.9157894736842"/>
      <point x="93.85263157894737" y="474.7263157894737" type="curve"/>
      <point x="93.85263157894737" y="235.53684210526316" type="line"/>
      <point x="93.85263157894737" y="147.44210526315788"/>
      <point x="91.93684210526315" y="79.08421052631579"/>
    </contour>
  </outline>
</glyph>
<glyph name="L" format="2">
  <advance width="569.5578947368422"/>
  <unicode hex="004C"/>
  <anchor x="313.2526315789474" y="0.0" name="bottom"/>
  <anchor x="423.7684210526316" y="357.82105263157894" name="center"/>
  <anchor x="202.5263157894737" y="713.0" name="top"/>
  <anchor x="283.87368421052633" y="496.18947368421055" name="topright"/>
  <outline>
    <contour>
      <point x="87.2" y="0.0" type="curve"/>
      <point x="191.8" y="0.0" type="line"/>
      <point x="191.8" y="13.852631578947369" type="line"/>
      <point x="186.06315789473683" y="92.93684210526315"/>
      <point x="184.42105263157896" y="161.29473684210527"/>
      <point x="184.42105263157896" y="249.38947368421051" type="curve"/>
      <point x="184.42105263157896" y="474.7263157894737" type="line"/>
      <point x="184.42105263157896" y="563.9157894736842"/>
      <point x="186.06315789473683" y="633.0947368421052"/>
      <point x="191.8" y="713.0" type="curve"/>
      <point x="87.2" y="713.0" type="line"/>
      <point x="91.93684210526315" y="633.0947368421052"/>
      <point x="93.85263157894737" y="563.9157894736842"/>
      <point x="93.85263157894737" y="474.7263157894737" type="curve"/>
      <point x="93.85263157894737" y="235.53684210526316" type="line"/>
      <point x="93.85263157894737" y="147.44210526315788"/>
      <point x="91.93684210526315" y="79.08421052631579"/>
    </contour>
    <contour>
      <point x="171.30526315789476" y="0.0" type="line"/>
      <point x="535.3894736842105" y="0.0" type="line"/>
      <point x="535.3894736842105" y="90.28421052631579" type="line"/>
      <point x="457.41052631578947" y="83.45263157894738"/>
      <point x="391.33684210526314" y="80.53684210526316"/>
      <point x="277.09473684210525" y="80.53684210526316" type="curve"/>
      <point x="171.30526315789476" y="80.53684210526316" type="line"/>
    </contour>
  </outline>
</glyph>
<glyph name="M" format="2">
  <advance width="955.7473684210527"/>
  <unicode hex="004D"/>
  <anchor x="477.7368421052632" y="0.0" name="bottom"/>
  <anchor x="477.7368421052632" y="713.0" name="top"/>
  <outline>
    <contour>
      <point x="59.305263157894736" y="0.0" type="curve"/>
      <point x="161.25263157894736" y="0.0" type="line"/>
      <point x="169.68421052631578" y="126.2"/>
      <point x="181.03157894736842" y="241.0421052631579"/>
      <point x="193.1157894736842" y="339.89473684210526" type="curve"/>
      <point x="219.01052631578946" y="553.1368421052632" type="line"/>
      <point x="225.56842105263158" y="553.1368421052632" type="line"/>
      <point x="319.13684210526316" y="321.7263157894737" type="line"/>
      <point x="362.37894736842105" y="214.5157894736842"/>
      <point x="408.2421052631579" y="91.41052631578947"/>
      <point x="441.38947368421054" y="0.0" type="curve"/>
      <point x="517.8210526315789" y="0.0" type="line"/>
      <point x="552.1473684210526" y="96.94736842105263"/>
      <point x="595.2842105263157" y="212.5157894736842"/>
      <point x="638.6105263157895" y="323.17894736842106" type="curve"/>
      <point x="729.1684210526315" y="553.1368421052632" type="line"/>
      <point x="735.7263157894737" y="553.1368421052632" type="line"/>
      <point x="761.6210526315789" y="339.89473684210526" type="line"/>
      <point x="773.7052631578947" y="241.0421052631579"/>
      <point x="784.3263157894737" y="125.92631578947369"/>
      <point x="793.0315789473684" y="0.0" type="curve"/>
      <point x="896.4421052631579" y="0.0" type="line"/>
      <point x="881.978947368421" y="78.81052631578947"/>
      <point x="871.0631578947368" y="149.26315789473685"/>
      <point x="860.7894736842105" y="235.53684210526316" type="curve"/>
      <point x="831.6947368421053" y="472.7263157894737" type="line"/>
      <point x="820.6947368421053" y="560.1789473684211"/>
      <point x="813.5157894736842" y="632.0947368421052"/>
      <point x="807.7052631578948" y="713.0" type="curve"/>
      <point x="702.7473684210527" y="713.0" type="line"/>
      <point x="668.421052631579" y="610.5052631578948"/>
      <point x="633.0" y="518.2"/>
      <point x="594.9368421052632" y="425.0736842105263" type="curve"/>
      <point x="483.2" y="148.60000000000002" type="line"/>
      <point x="476.1894736842105" y="148.60000000000002" type="line"/>
      <point x="363.08421052631576" y="425.0736842105263" type="line"/>
      <point x="324.7473684210526" y="518.2"/>
      <point x="288.5052631578947" y="610.7789473684211"/>
      <point x="254.17894736842103" y="713.0" type="curve"/>
      <point x="147.1263157894737" y="713.0" type="line"/>
      <point x="142.31578947368422" y="631.0947368421052"/>
      <point x="135.41052631578947" y="558.7263157894737"/>
      <point x="124.41052631578948" y="472.7263157894737" type="curve"/>
      <point x="95.13684210526317" y="235.53684210526316" type="line"/>
      <point x="84.13684210526317" y="148.81052631578947"/>
      <point x="73.22105263157896" y="77.98947368421052"/>
    </contour>
  </outline>
</glyph>
<glyph name="N" format="2">
  <advance width="757.4526315789474"/>
  <unicode hex="004E"/>
  <anchor x="379.0" y="0.0" name="bottom"/>
  <anchor x="379.0" y="713.0" name="top"/>
  <outline>
    <contour>
      <point x="87.2" y="0.0" type="curve"/>
      <point x="187.14736842105265" y="0.0" type="line"/>
      <point x="181.41052631578947" y="79.08421052631579"/>
      <point x="179.7684210526316" y="147.44210526315788"/>
      <point x="179.7684210526316" y="235.53684210526316" type="curve"/>
      <point x="179.7684210526316" y="558.9368421052632" type="line"/>
      <point x="187.05263157894737" y="558.9368421052632" type="line"/>
      <point x="342.4947368421052" y="339.0736842105263" type="line"/>
      <point x="435.1578947368421" y="208.1578947368421"/>
      <point x="509.10526315789474" y="101.76842105263158"/>
      <point x="574.9578947368421" y="0.0" type="curve"/>
      <point x="670.2526315789474" y="0.0" type="line"/>
      <point x="664.5157894736842" y="79.08421052631579"/>
      <point x="662.8736842105263" y="147.44210526315788"/>
      <point x="662.8736842105263" y="235.53684210526316" type="curve"/>
      <point x="662.8736842105263" y="474.7263157894737" type="line"/>
      <point x="662.8736842105263" y="563.9157894736842"/>
      <point x="664.5157894736842" y="633.0947368421052"/>
      <point x="670.2526315789474" y="713.0" type="curve"/>
      <point x="570.3052631578947" y="713.0" type="line"/>
      <point x="575.0421052631579" y="633.0947368421052"/>
      <point x="576.957894736842" y="563.9157894736842"/>
      <point x="576.957894736842" y="474.7263157894737" type="curve"/>
      <point x="576.957894736842" y="156.96842105263158" type="line"/>
      <point x="569.4" y="156.96842105263158" type="line"/>
      <point x="414.77894736842103" y="375.10526315789474" type="line"/>
      <point x="338.8315789473684" y="481.67368421052635"/>
      <point x="263.8" y="592.5157894736842"/>
      <point x="185.41052631578947" y="713.0" type="curve"/>
      <point x="87.2" y="713.0" type="line"/>
      <point x="91.93684210526315" y="633.0947368421052"/>
      <point x="93.85263157894737" y="563.9157894736842"/>
      <point x="93.85263157894737" y="474.7263157894737" type="curve"/>
      <point x="93.85263157894737" y="235.53684210526316" type="line"/>
      <point x="93.85263157894737" y="147.44210526315788"/>
      <point x="91.93684210526315" y="79.08421052631579"/>
    </contour>
  </outline>
</glyph>
<glyph name="O" format="2">
  <advance width="816.8105263157895"/>
  <unicode hex="004F"/>
  <anchor x="408.17894736842106" y="0.0" name="bottom"/>
  <anchor x="408.17894736842106" y="357.0" name="center"/>
  <anchor x="503.57894736842104" y="0.0" name="ogonek"/>
  <anchor x="408.17894736842106" y="713.0" name="top"/>
  <anchor x="26.178947368421053" y="713.0" name="topleft"/>
  <anchor x="714.8842105263158" y="713.0" name="topright"/>
  <outline>
    <contour>
      <point x="411.90526315789475" y="-10.91578947368421" type="curve" smooth="yes"/>
      <point x="634.8526315789474" y="-10.91578947368421"/>
      <point x="766.6631578947369" y="146.3578947368421"/>
      <point x="766.6631578947369" y="357.4526315789474" type="curve" smooth="yes"/>
      <point x="766.6631578947369" y="562.0"/>
      <point x="641.1263157894737" y="726.0947368421052"/>
      <point x="408.81052631578945" y="726.0947368421052" type="curve" smooth="yes"/>
      <point x="180.22105263157894" y="726.0947368421052"/>
      <point x="50.14736842105263" y="564.4526315789474"/>
      <point x="50.14736842105263" y="357.17894736842106" type="curve" smooth="yes"/>
      <point x="50.14736842105263" y="158.82105263157894"/>
      <point x="169.58947368421053" y="-10.91578947368421"/>
    </contour>
    <contour>
      <point x="409.63157894736844" y="67.2421052631579" type="curve"/>
      <point x="226.1263157894737" y="72.33684210526316"/>
      <point x="144.17894736842106" y="201.89473684210526"/>
      <point x="144.17894736842106" y="357.4526315789474" type="curve" smooth="yes"/>
      <point x="144.17894736842106" y="513.1052631578947"/>
      <point x="229.85263157894735" y="642.8421052631579"/>
      <point x="409.63157894736844" y="647.9368421052632" type="curve"/>
      <point x="583.5052631578948" y="642.8421052631579"/>
      <point x="672.6315789473684" y="521.8210526315789"/>
      <point x="672.6315789473684" y="357.4526315789474" type="curve" smooth="yes"/>
      <point x="672.6315789473684" y="204.79999999999998"/>
      <point x="592.8631578947368" y="72.33684210526316"/>
    </contour>
  </outline>
</glyph>
<glyph name="P" format="2">
  <advance width="628.528735632184"/>
  <unicode hex="0050"/>
  <outline>
    <contour>
      <point x="327.08045977011494" y="282.5057471264368" type="curve"/>
      <point x="523.1149425287357" y="282.5057471264368"/>
      <point x="586.8965517241379" y="378.4942528735632"/>
      <point x="586.8965517241379" y="508.8620689655172" type="curve" smooth="yes"/>
      <point x="586.8965517241379" y="650.5862068965517"/>
      <point x="508.5287356321839" y="715.7931034482758"/>
      <point x="346.1609195402299" y="715.7931034482758" type="curve"/>
      <point x="236.01149425287358" y="715.7931034482758"/>
      <point x="148.2528735632184" y="713.0"/>
      <point x="87.08045977011493" y="713.0" type="curve"/>
      <point x="171.04597701149427" y="637.7701149425287" type="line"/>
      <point x="339.9770114942529" y="637.7701149425287" type="line" smooth="yes"/>
      <point x="407.82758620689657" y="637.7701149425287"/>
      <point x="494.7241379310345" y="625.7816091954023"/>
      <point x="494.7241379310345" y="508.264367816092" type="curve" smooth="yes"/>
      <point x="494.7241379310345" y="401.9655172413793"/>
      <point x="438.6666666666667" y="358.9310344827586"/>
      <point x="309.9425287356322" y="358.9310344827586" type="curve" smooth="yes"/>
      <point x="171.0689655172414" y="358.9310344827586" type="line"/>
      <point x="171.0689655172414" y="284.1034482758621" type="line"/>
      <point x="209.8735632183908" y="284.1034482758621"/>
      <point x="277.2758620689655" y="282.5057471264368"/>
    </contour>
    <contour>
      <point x="87.08045977011493" y="0.0" type="curve"/>
      <point x="190.42528735632183" y="0.0" type="line"/>
      <point x="184.4367816091954" y="79.20689655172414"/>
      <point x="183.24137931034483" y="147.41379310344828"/>
      <point x="183.24137931034483" y="235.60919540229884" type="curve"/>
      <point x="183.24137931034483" y="461.8390804597701" type="line"/>
      <point x="183.24137931034483" y="550.6321839080459"/>
      <point x="184.4367816091954" y="620.0344827586207"/>
      <point x="190.42528735632183" y="699.8390804597701" type="curve"/>
      <point x="87.08045977011493" y="713.0" type="line"/>
      <point x="92.06896551724137" y="633.1954022988506"/>
      <point x="93.86206896551724" y="563.7931034482758"/>
      <point x="93.86206896551724" y="475.0" type="curve"/>
      <point x="93.86206896551724" y="235.60919540229884" type="line"/>
      <point x="93.86206896551724" y="147.41379310344828"/>
      <point x="92.06896551724137" y="79.20689655172414"/>
    </contour>
  </outline>
</glyph>
<glyph name="R" format="2">
  <advance width="674.3333333333333"/>
  <unicode hex="0052"/>
  <anchor x="337.9655172413793" y="0.0" name="bottom"/>
  <anchor x="330.32183908045977" y="713.0" name="top"/>
  <outline>
    <contour>
      <point x="527.7586206896552" y="0.0" type="curve"/>
      <point x="649.4827586206897" y="0.0" type="line"/>
      <point x="600.0689655172414" y="54.40229885057471"/>
      <point x="530.8505747126437" y="138.79310344827587"/>
      <point x="479.2298850574713" y="203.98850574712642" type="curve"/>
      <point x="366.7816091954023" y="345.18390804597703" type="line"/>
      <point x="338.28735632183907" y="305.6666666666667" type="line"/>
      <point x="518.3103448275862" y="306.6666666666667"/>
      <point x="579.2873563218391" y="403.4597701149425"/>
      <point x="579.2873563218391" y="519.8390804597701" type="curve" smooth="yes"/>
      <point x="579.2873563218391" y="659.3908045977012"/>
      <point x="498.5287356321839" y="715.7931034482758"/>
      <point x="335.5632183908046" y="715.7931034482758" type="curve"/>
      <point x="235.57471264367817" y="715.7931034482758"/>
      <point x="151.24137931034483" y="713.0"/>
      <point x="87.08045977011493" y="713.0" type="curve"/>
      <point x="153.71264367816093" y="637.7701149425287" type="line"/>
      <point x="331.7701149425287" y="637.7701149425287" type="line" smooth="yes"/>
      <point x="399.62068965517244" y="637.7701149425287"/>
      <point x="486.51724137931035" y="630.1954022988506"/>
      <point x="486.51724137931035" y="510.8735632183908" type="curve" smooth="yes"/>
      <point x="486.51724137931035" y="404.1954022988506"/>
      <point x="427.4712643678161" y="364.14942528735634"/>
      <point x="302.33333333333337" y="364.14942528735634" type="curve" smooth="yes"/>
      <point x="166.88505747126436" y="364.14942528735634" type="line"/>
      <point x="166.88505747126436" y="289.32183908045977" type="line"/>
      <point x="330.67816091954023" y="289.32183908045977" type="line"/>
      <point x="275.2068965517241" y="333.98850574712645" type="line"/>
      <point x="403.632183908046" y="169.24137931034483" type="line"/>
      <point x="446.0689655172414" y="115.42528735632183"/>
      <point x="485.71264367816093" y="61.206896551724135"/>
    </contour>
    <contour>
      <point x="87.08045977011493" y="0.0" type="curve"/>
      <point x="190.42528735632183" y="0.0" type="line"/>
      <point x="184.43678160919538" y="79.20689655172414"/>
      <point x="183.24137931034483" y="147.41379310344828"/>
      <point x="183.24137931034483" y="235.60919540229884" type="curve"/>
      <point x="183.24137931034483" y="461.8390804597701" type="line"/>
      <point x="183.24137931034483" y="550.6321839080459"/>
      <point x="184.43678160919538" y="620.0344827586207"/>
      <point x="190.42528735632183" y="699.8390804597701" type="curve"/>
      <point x="87.08045977011493" y="713.0" type="line"/>
      <point x="92.06896551724137" y="633.1954022988506"/>
      <point x="93.86206896551724" y="563.7931034482758"/>
      <point x="93.86206896551724" y="475.0" type="curve"/>
      <point x="93.86206896551724" y="235.60919540229884" type="line"/>
      <point x="93.86206896551724" y="147.41379310344828"/>
      <point x="92.06896551724137" y="79.20689655172414"/>
    </contour>
  </outline>
</glyph>
<glyph name="S" format="2">
  <advance width="586.3563218390805"/>
  <unicode hex="0053"/>
  <anchor x="297.18390804597703" y="0.0" name="bottom"/>
  <anchor x="297.18390804597703" y="713.0" name="top"/>
  <outline>
    <contour>
      <point x="299.60919540229884" y="-10.793103448275861" type="curve" smooth="yes"/>
      <point x="471.14942528735634" y="-10.793103448275861"/>
      <point x="546.1264367816092" y="77.01149425287356"/>
      <point x="546.1264367816092" y="193.367816091954" type="curve" smooth="yes"/>
      <point x="546.1264367816092" y="299.51724137931035"/>
      <point x="491.5287356321839" y="347.51724137931035"/>
      <point x="320.1264367816092" y="402.1264367816092" type="curve" smooth="yes"/>
      <point x="200.83908045977012" y="440.1609195402299"/>
      <point x="149.80459770114942" y="467.97701149425285"/>
      <point x="149.80459770114942" y="535.4367816091954" type="curve" smooth="yes"/>
      <point x="149.80459770114942" y="612.5402298850576"/>
      <point x="217.27586206896552" y="645.7701149425287"/>
      <point x="295.1494252873563" y="647.7701149425287" type="curve"/>
      <point x="332.14942528735634" y="647.7701149425287"/>
      <point x="408.1379310344828" y="630.1724137931035"/>
      <point x="493.9310344827586" y="590.367816091954" type="curve"/>
      <point x="502.91954022988506" y="679.5747126436781" type="line"/>
      <point x="449.7241379310345" y="696.9885057471264"/>
      <point x="359.9655172413793" y="726.1954022988506"/>
      <point x="287.98850574712645" y="726.1954022988506" type="curve" smooth="yes"/>
      <point x="134.4367816091954" y="726.1954022988506"/>
      <point x="54.643678160919535" y="643.2068965517242"/>
      <point x="54.643678160919535" y="531.8505747126437" type="curve" smooth="yes"/>
      <point x="54.643678160919535" y="418.2988505747126"/>
      <point x="132.85057471264366" y="372.5057471264368"/>
      <point x="269.0689655172414" y="330.0919540229885" type="curve" smooth="yes"/>
      <point x="384.735632183908" y="294.264367816092"/>
      <point x="451.5632183908046" y="264.04597701149424"/>
      <point x="451.5632183908046" y="188.58620689655172" type="curve" smooth="yes"/>
      <point x="451.5632183908046" y="101.26436781609195"/>
      <point x="383.4942528735632" y="68.22988505747128"/>
      <point x="299.0114942528736" y="67.0344827586207" type="curve"/>
      <point x="233.80459770114942" y="67.0344827586207"/>
      <point x="150.632183908046" y="89.22988505747128"/>
      <point x="72.82758620689656" y="123.22988505747126" type="curve"/>
      <point x="64.4367816091954" y="34.229885057471265" type="line"/>
      <point x="118.43678160919539" y="18.218390804597703"/>
      <point x="200.43678160919538" y="-10.793103448275861"/>
    </contour>
  </outline>
</glyph>
<glyph name="U" format="2">
  <advance width="730.3578947368421"/>
  <unicode hex="0055"/>
  <anchor x="366.17894736842106" y="0.0" name="bottom"/>
  <anchor x="460.22105263157897" y="0.0" name="ogonek"/>
  <anchor x="366.17894736842106" y="713.0" name="top"/>
  <anchor x="696.3894736842105" y="713.0" name="topright"/>
  <outline>
    <contour>
      <point x="365.7263157894737" y="-10.91578947368421" type="curve" smooth="yes"/>
      <point x="561.3052631578947" y="-10.91578947368421"/>
      <point x="648.7789473684211" y="94.8"/>
      <point x="648.7789473684211" y="264.8421052631579" type="curve" smooth="yes"/>
      <point x="648.7789473684211" y="305.5578947368421"/>
      <point x="646.6842105263158" y="391.8315789473684"/>
      <point x="646.6842105263158" y="474.7263157894737" type="curve"/>
      <point x="646.6842105263158" y="563.9157894736842"/>
      <point x="648.3263157894737" y="633.0947368421052"/>
      <point x="654.063157894737" y="713.0" type="curve"/>
      <point x="549.7368421052631" y="713.0" type="line"/>
      <point x="554.4736842105264" y="633.0947368421052"/>
      <point x="556.3894736842105" y="563.9157894736842"/>
      <point x="556.3894736842105" y="474.7263157894737" type="curve"/>
      <point x="556.3894736842105" y="274.8421052631579" type="line" smooth="yes"/>
      <point x="556.3894736842105" y="141.46315789473684"/>
      <point x="507.06315789473683" y="69.33684210526316"/>
      <point x="365.4526315789474" y="67.2421052631579" type="curve"/>
      <point x="224.93684210526317" y="69.33684210526316"/>
      <point x="173.2421052631579" y="142.18947368421053"/>
      <point x="173.2421052631579" y="274.11578947368423" type="curve" smooth="yes"/>
      <point x="173.2421052631579" y="474.7263157894737" type="line"/>
      <point x="173.2421052631579" y="563.9157894736842"/>
      <point x="174.8842105263158" y="633.0947368421052"/>
      <point x="180.62105263157895" y="713.0" type="curve"/>
      <point x="76.29473684210527" y="713.0" type="line"/>
      <point x="81.03157894736842" y="633.0947368421052"/>
      <point x="82.94736842105263" y="563.9157894736842"/>
      <point x="82.94736842105263" y="474.7263157894737" type="curve"/>
      <point x="82.94736842105263" y="391.8315789473684"/>
      <point x="80.85263157894737" y="306.65263157894736"/>
      <point x="80.85263157894737" y="265.11578947368423" type="curve" smooth="yes"/>
      <point x="80.85263157894737" y="96.4421052631579"/>
      <point x="166.22105263157894" y="-10.91578947368421"/>
    </contour>
  </outline>
</glyph>
<glyph name="V" format="2">
  <advance width="687.7052631578947"/>
  <unicode hex="0056"/>
  <anchor x="344.57894736842104" y="0.0" name="bottom"/>
  <anchor x="344.57894736842104" y="713.0" name="top"/>
  <outline>
    <contour>
      <point x="276.61052631578946" y="0.0" type="curve"/>
      <point x="412.63157894736844" y="0.0" type="line"/>
      <point x="434.5263157894737" y="72.72631578947369"/>
      <point x="461.6" y="156.2736842105263"/>
      <point x="486.41052631578947" y="225.2736842105263" type="curve"/>
      <point x="566.021052631579" y="450.0" type="line"/>
      <point x="593.5578947368421" y="527.2736842105263"/>
      <point x="632.4631578947368" y="629.6421052631579"/>
      <point x="668.2842105263159" y="713.0" type="curve"/>
      <point x="553.6631578947369" y="713.0" type="line"/>
      <point x="522.4315789473684" y="608.8526315789474"/>
      <point x="485.10526315789474" y="490.70526315789476"/>
      <point x="450.3157894736842" y="387.37894736842105" type="curve"/>
      <point x="349.12631578947367" y="93.74736842105264" type="line"/>
      <point x="340.38947368421054" y="93.74736842105264" type="line"/>
      <point x="240.1157894736842" y="386.37894736842105" type="line"/>
      <point x="205.14736842105262" y="487.8"/>
      <point x="164.6421052631579" y="610.3052631578947"/>
      <point x="134.86315789473684" y="713.0" type="curve"/>
      <point x="18.42105263157895" y="713.0" type="line"/>
      <point x="55.96842105263158" y="628.6421052631579"/>
      <point x="94.60000000000001" y="526.5473684210526"/>
      <point x="121.86315789473684" y="450.0" type="curve"/>
      <point x="202.37894736842105" y="226.0" type="line"/>
      <point x="226.6421052631579" y="158.2736842105263"/>
      <point x="254.98947368421054" y="71.27368421052631"/>
    </contour>
  </outline>
</glyph>
<glyph name="W" format="2">
  <advance width="1020.0736842105263"/>
  <unicode hex="0057"/>
  <anchor x="508.0315789473684" y="0.0" name="bottom"/>
  <anchor x="508.0315789473684" y="713.0" name="top"/>
  <outline>
    <contour>
      <point x="225.47368421052633" y="0.0" type="curve"/>
      <point x="351.62105263157895" y="0.0" type="line"/>
      <point x="372.6842105263158" y="96.31578947368422"/>
      <point x="401.37894736842105" y="212.34736842105264"/>
      <point x="427.0842105263158" y="307.8421052631579" type="curve"/>
      <point x="501.7473684210526" y="586.0631578947368" type="line"/>
      <point x="510.4842105263158" y="586.0631578947368" type="line"/>
      <point x="586.421052631579" y="308.11578947368423" type="line"/>
      <point x="612.4" y="212.34736842105264"/>
      <point x="641.0947368421052" y="97.0421052631579"/>
      <point x="662.8842105263159" y="0.0" type="curve"/>
      <point x="793.957894736842" y="0.0" type="line"/>
      <point x="807.9473684210526" y="68.54736842105262"/>
      <point x="831.4842105263158" y="155.2736842105263"/>
      <point x="852.1157894736842" y="225.7263157894737" type="curve"/>
      <point x="917.5578947368421" y="450.0" type="line"/>
      <point x="940.1894736842105" y="528.7263157894737"/>
      <point x="970.4631578947368" y="628.3684210526316"/>
      <point x="1003.2" y="713.0" type="curve"/>
      <point x="886.9368421052632" y="713.0" type="line"/>
      <point x="864.421052631579" y="612.4947368421052"/>
      <point x="834.2736842105263" y="493.63157894736844"/>
      <point x="807.6631578947369" y="394.6736842105263" type="curve"/>
      <point x="730.7368421052631" y="106.78947368421053" type="line"/>
      <point x="722.0" y="106.78947368421053" type="line"/>
      <point x="646.0631578947368" y="393.6736842105263" type="line"/>
      <point x="618.6315789473684" y="495.0842105263158"/>
      <point x="590.6631578947369" y="611.0421052631579"/>
      <point x="568.1473684210525" y="713.0" type="curve"/>
      <point x="450.2" y="713.0" type="line"/>
      <point x="429.13684210526316" y="613.2210526315789"/>
      <point x="399.4421052631579" y="492.17894736842106"/>
      <point x="373.7368421052632" y="394.6736842105263" type="curve"/>
      <point x="299.0736842105263" y="106.78947368421053" type="line"/>
      <point x="290.33684210526314" y="106.78947368421053" type="line"/>
      <point x="214.13684210526316" y="392.22105263157897" type="line"/>
      <point x="186.8" y="493.63157894736844"/>
      <point x="157.37894736842108" y="611.0421052631579"/>
      <point x="134.13684210526316" y="713.0" type="curve"/>
      <point x="17.6" y="713.0" type="line"/>
      <point x="49.1578947368421" y="629.5473684210526"/>
      <point x="80.78947368421052" y="527.2736842105263"/>
      <point x="103.42105263157895" y="448.5473684210526" type="curve"/>
      <point x="167.58947368421053" y="225.0" type="line"/>
      <point x="187.22105263157894" y="156.2736842105263"/>
      <point x="209.75789473684208" y="71.27368421052633"/>
    </contour>
  </outline>
</glyph>
<glyph name="X" format="2">
  <advance width="686.0947368421052"/>
  <unicode hex="0058"/>
  <outline>
    <contour>
      <point x="30.505263157894735" y="0.0" type="curve"/>
      <point x="149.03157894736842" y="0.0" type="line"/>
      <point x="183.4421052631579" y="62.88421052631579"/>
      <point x="214.6842105263158" y="116.6842105263158"/>
      <point x="248.20000000000002" y="170.29473684210527" type="curve"/>
      <point x="328.76842105263154" y="299.9684210526316" type="line"/>
      <point x="337.5052631578947" y="299.9684210526316" type="line"/>
      <point x="423.7052631578947" y="171.02105263157895" type="line"/>
      <point x="458.2210526315789" y="119.58947368421053"/>
      <point x="495.1894736842105" y="62.88421052631579"/>
      <point x="532.0526315789474" y="0.0" type="curve"/>
      <point x="656.4105263157895" y="0.0" type="line"/>
      <point x="597.5052631578947" y="73.63157894736842"/>
      <point x="549.2421052631579" y="141.17894736842103"/>
      <point x="496.34736842105264" y="219.2736842105263" type="curve"/>
      <point x="390.65263157894736" y="374.82105263157894" type="line"/>
      <point x="390.65263157894736" y="346.05263157894734" type="line"/>
      <point x="493.1684210526316" y="509.2526315789474" type="line"/>
      <point x="530.1578947368421" y="568.1684210526315"/>
      <point x="576.1473684210526" y="638.9052631578948"/>
      <point x="631.7894736842105" y="713.0" type="curve"/>
      <point x="512.5368421052632" y="713.0" type="line"/>
      <point x="477.0315789473684" y="650.2"/>
      <point x="440.4315789473684" y="586.7684210526315"/>
      <point x="405.9157894736842" y="531.3368421052631" type="curve"/>
      <point x="338.7894736842105" y="423.5578947368421" type="line"/>
      <point x="330.05263157894734" y="423.5578947368421" type="line"/>
      <point x="260.9263157894737" y="530.6105263157895" type="line"/>
      <point x="225.4105263157895" y="585.3157894736843"/>
      <point x="187.53684210526316" y="648.2947368421053"/>
      <point x="151.03157894736842" y="713.0" type="curve"/>
      <point x="30.410526315789475" y="713.0" type="line"/>
      <point x="90.41052631578948" y="633.5473684210526"/>
      <point x="134.85263157894735" y="566.1789473684211"/>
      <point x="179.02105263157895" y="499.0842105263158" type="curve"/>
      <point x="274.9894736842105" y="352.2631578947368" type="line"/>
      <point x="274.9894736842105" y="378.8421052631579" type="line"/>
      <point x="165.66315789473686" y="203.10526315789474" type="line"/>
      <point x="119.76842105263158" y="129.18947368421053"/>
      <point x="77.05263157894737" y="64.36842105263158"/>
    </contour>
  </outline>
</glyph>
<glyph name="Y" format="2">
  <advance width="652.5368421052632"/>
  <unicode hex="0059"/>
  <anchor x="327.58947368421053" y="0.0" name="bottom"/>
  <anchor x="327.58947368421053" y="713.0" name="top"/>
  <anchor x="20.0" y="713.0" name="topleft"/>
  <outline>
    <contour>
      <point x="284.4" y="278.65263157894736" type="line"/>
      <point x="370.5052631578947" y="278.65263157894736" type="line"/>
      <point x="526.1157894736842" y="542.5157894736842" type="line"/>
      <point x="558.7473684210527" y="597.8"/>
      <point x="593.9263157894736" y="655.2631578947369"/>
      <point x="634.2105263157895" y="713.0" type="curve"/>
      <point x="516.0421052631579" y="713.0" type="line"/>
      <point x="469.5578947368421" y="617.8526315789474"/>
      <point x="443.22105263157897" y="569.2315789473685"/>
      <point x="399.2631578947368" y="493.0842105263158" type="curve"/>
      <point x="332.2315789473684" y="375.94736842105266" type="line"/>
      <point x="322.9473684210526" y="375.94736842105266" type="line"/>
      <point x="254.01052631578946" y="496.9894736842105" type="line"/>
      <point x="212.2315789473684" y="569.9578947368421"/>
      <point x="187.34736842105264" y="616.8526315789474"/>
      <point x="140.13684210526316" y="713.0" type="curve"/>
      <point x="19.50526315789474" y="713.0" type="line"/>
      <point x="66.78947368421052" y="645.9894736842106"/>
      <point x="96.06315789473685" y="598.5263157894736"/>
      <point x="128.96842105263158" y="542.5157894736842" type="curve"/>
    </contour>
    <contour>
      <point x="275.65263157894736" y="0.0" type="curve"/>
      <point x="380.2526315789474" y="0.0" type="line"/>
      <point x="374.51578947368426" y="79.08421052631579"/>
      <point x="372.87368421052633" y="147.44210526315788"/>
      <point x="372.87368421052633" y="235.53684210526316" type="curve"/>
      <point x="372.87368421052633" y="354.18947368421055" type="line"/>
      <point x="282.30526315789473" y="354.18947368421055" type="line"/>
      <point x="282.30526315789473" y="235.53684210526316" type="line"/>
      <point x="282.30526315789473" y="147.44210526315788"/>
      <point x="280.38947368421054" y="79.08421052631579"/>
    </contour>
  </outline>
</glyph>
<glyph name="Z" format="2">
  <advance width="671.3157894736842"/>
  <unicode hex="005A"/>
  <anchor x="336.0210526315789" y="0.0" name="bottom"/>
  <anchor x="336.0210526315789" y="357.0" name="center"/>
  <anchor x="336.0210526315789" y="713.0" name="top"/>
  <outline>
    <contour>
      <point x="48.1578947368421" y="0.0" type="line"/>
      <point x="619.5263157894736" y="0.0" type="line"/>
      <point x="619.5263157894736" y="88.27368421052631" type="line"/>
      <point x="539.1894736842105" y="79.4421052631579"/>
      <point x="409.0526315789474" y="77.52631578947368"/>
      <point x="319.8105263157895" y="77.52631578947368" type="curve"/>
      <point x="133.87368421052633" y="77.52631578947368" type="line"/>
      <point x="147.32631578947368" y="39.48421052631579" type="line"/>
      <point x="434.0421052631579" y="411.2421052631579" type="line"/>
      <point x="493.7473684210526" y="489.2105263157895"/>
      <point x="553.7263157894737" y="566.9052631578948"/>
      <point x="615.4315789473684" y="640.2210526315789" type="curve"/>
      <point x="615.4315789473684" y="713.0" type="line"/>
      <point x="56.07368421052632" y="713.0" type="line"/>
      <point x="56.07368421052632" y="624.3578947368421" type="line"/>
      <point x="157.49473684210525" y="632.8315789473685"/>
      <point x="252.73684210526315" y="635.4736842105264"/>
      <point x="336.8" y="635.4736842105264" type="curve"/>
      <point x="540.6421052631579" y="635.4736842105264" type="line"/>
      <point x="519.2842105263157" y="667.7052631578947" type="line"/>
      <point x="248.3684210526316" y="313.18947368421055" type="line"/>
      <point x="188.56842105263158" y="234.85263157894738"/>
      <point x="104.23157894736842" y="126.07368421052631"/>
      <point x="48.1578947368421" y="61.93684210526316" type="curve"/>
    </contour>
  </outline>
</glyph>
<glyph name="bracketleft" format="2">
  <advance width="372.36842105263156"/>
  <unicode hex="005B"/>
  <outline>
    <contour>
      <point x="89.84210526315789" y="-116.92631578947369" type="curve"/>
      <point x="180.30526315789473" y="-116.92631578947369" type="line"/>
      <point x="180.30526315789473" y="-103.07368421052631" type="line"/>
      <point x="174.56842105263158" y="-23.989473684210527"/>
      <point x="172.92631578947368" y="44.36842105263158"/>
      <point x="172.92631578947368" y="132.46315789473684" type="curve"/>
      <point x="172.92631578947368" y="514.8947368421053" type="line"/>
      <point x="172.92631578947368" y="604.0842105263158"/>
      <point x="174.56842105263158" y="673.2631578947369"/>
      <point x="180.30526315789473" y="753.1684210526316" type="curve"/>
      <point x="180.30526315789473" y="766.2947368421053" type="line"/>
      <point x="89.84210526315789" y="766.2947368421053" type="line"/>
      <point x="93.7578947368421" y="686.3894736842105"/>
      <point x="95.67368421052632" y="617.2105263157895"/>
      <point x="95.67368421052632" y="528.021052631579" type="curve"/>
      <point x="95.67368421052632" y="118.61052631578947" type="line"/>
      <point x="95.67368421052632" y="30.515789473684208"/>
      <point x="93.7578947368421" y="-37.8421052631579"/>
    </contour>
    <contour>
      <point x="161.45263157894738" y="-116.92631578947369" type="line"/>
      <point x="356.1684210526316" y="-116.92631578947369" type="line"/>
      <point x="356.1684210526316" y="-43.50526315789474" type="line"/>
      <point x="309.0842105263158" y="-46.96842105263158"/>
      <point x="258.7263157894737" y="-47.78947368421053"/>
      <point x="201.9157894736842" y="-47.78947368421053" type="curve"/>
      <point x="161.45263157894738" y="-47.78947368421053" type="line"/>
    </contour>
    <contour>
      <point x="157.07368421052632" y="697.1578947368421" type="line"/>
      <point x="196.45263157894735" y="697.1578947368421" type="line"/>
      <point x="264.2631578947369" y="697.1578947368421"/>
      <point x="311.1684210526316" y="695.5157894736842"/>
      <point x="355.5263157894737" y="692.8736842105263" type="curve"/>
      <point x="355.5263157894737" y="766.2947368421053" type="line"/>
      <point x="157.07368421052632" y="766.2947368421053" type="line"/>
    </contour>
  </outline>
</glyph>
<glyph name="backslash" format="2">
  <advance width="450.86315789473684"/>
  <unicode hex="005C"/>
  <outline>
    <contour>
      <point x="330.70526315789476" y="0.0" type="curve"/>
      <point x="424.3578947368421" y="0.0" type="line"/>
      <point x="388.71578947368425" y="74.0"/>
      <point x="360.3578947368421" y="137.0"/>
      <point x="321.0947368421053" y="228.0" type="curve"/>
      <point x="215.21052631578948" y="476.0" type="line"/>
      <point x="174.94736842105263" y="570.7263157894737"/>
      <point x="148.13684210526316" y="636.0"/>
      <point x="119.8842105263158" y="713.0" type="curve"/>
      <point x="26.505263157894735" y="713.0" type="line"/>
      <point x="64.6" y="636.0"/>
      <point x="92.9578947368421" y="571.0"/>
      <point x="134.22105263157894" y="474.0" type="curve"/>
      <point x="239.10526315789474" y="228.0" type="line"/>
      <point x="278.3684210526316" y="137.0"/>
      <point x="304.17894736842106" y="74.0"/>
    </contour>
  </outline>
</glyph>
<glyph name="asciicircum" format="2">
  <advance width="608.6105263157895"/>
  <unicode hex="005E"/>
  <outline>
    <contour>
      <point x="471.3157894736842" y="378.9473684210526" type="curve"/>
      <point x="549.6421052631579" y="380.22105263157897" type="line"/>
      <point x="484.4736842105263" y="481.69473684210527"/>
      <point x="420.57894736842104" y="584.1684210526316"/>
      <point x="363.69473684210527" y="685.6421052631579" type="curve"/>
      <point x="244.9157894736842" y="685.6421052631579" type="line"/>
      <point x="188.03157894736842" y="584.1684210526316"/>
      <point x="124.13684210526316" y="483.69473684210527"/>
      <point x="58.96842105263158" y="382.22105263157897" type="curve"/>
      <point x="137.5684210526316" y="382.22105263157897" type="line"/>
      <point x="193.90526315789475" y="459.1894736842105"/>
      <point x="246.69473684210527" y="537.1578947368421"/>
      <point x="299.93684210526317" y="614.1263157894737" type="curve"/>
      <point x="308.6736842105263" y="614.1263157894737" type="line"/>
      <point x="361.91578947368424" y="535.8842105263158"/>
      <point x="414.9789473684211" y="457.1894736842105"/>
    </contour>
  </outline>
</glyph>
<glyph name="underscore" format="2">
  <advance width="457.4526315789474"/>
  <unicode hex="005F"/>
  <outline>
    <contour>
      <point x="-10.0" y="-124.48421052631579" type="line"/>
      <point x="52.65263157894737" y="-122.21052631578947"/>
      <point x="113.39999999999999" y="-121.38947368421053"/>
      <point x="163.13684210526316" y="-120.84210526315789" type="curve"/>
      <point x="238.7578947368421" y="-120.84210526315789" type="line"/>
      <point x="288.4947368421053" y="-121.38947368421053"/>
      <point x="349.2421052631579" y="-122.21052631578947"/>
      <point x="411.89473684210526" y="-124.48421052631579" type="curve"/>
      <point x="411.89473684210526" y="-48.14736842105263" type="line"/>
      <point x="349.2421052631579" y="-50.421052631578945"/>
      <point x="288.4947368421053" y="-51.242105263157896"/>
      <point x="238.7578947368421" y="-51.78947368421053" type="curve"/>
      <point x="163.13684210526316" y="-51.78947368421053" type="line"/>
      <point x="113.39999999999999" y="-51.242105263157896"/>
      <point x="52.65263157894737" y="-50.421052631578945"/>
      <point x="-10.0" y="-48.14736842105263" type="curve"/>
    </contour>
  </outline>
</glyph>
<glyph name="a" format="2">
  <advance width="526.1609195402299"/>
  <unicode hex="0061"/>
  <anchor x="263.5977011494253" y="0.0" name="bottom"/>
  <anchor x="449.3103448275862" y="0.0" name="ogonek"/>
  <anchor x="263.5977011494253" y="496.39080459770116" name="top"/>
  <outline>
    <contour>
      <point x="201.05747126436782" y="-10.195402298850574" type="curve" smooth="yes"/>
      <point x="261.6551724137931" y="-10.195402298850574"/>
      <point x="330.47126436781605" y="28.390804597701152"/>
      <point x="367.1034482758621" y="69.04597701149426" type="curve"/>
      <point x="375.4942528735632" y="69.04597701149426" type="line"/>
      <point x="396.10344827586204" y="0.0" type="line"/>
      <point x="480.5057471264368" y="0.0" type="line"/>
      <point x="460.51724137931035" y="57.18390804597701"/>
      <point x="448.9080459770115" y="106.5632183908046"/>
      <point x="448.9080459770115" y="151.3448275862069" type="curve"/>
      <point x="448.9080459770115" y="211.0" type="line" smooth="yes"/>
      <point x="448.9080459770115" y="253.41379310344828"/>
      <point x="451.5057471264368" y="303.60919540229884"/>
      <point x="451.5057471264368" y="334.0" type="curve" smooth="yes"/>
      <point x="451.5057471264368" y="455.98850574712645"/>
      <point x="382.5287356321839" y="507.58620689655174"/>
      <point x="269.18390804597703" y="507.58620689655174" type="curve" smooth="yes"/>
      <point x="203.82758620689657" y="507.58620689655174"/>
      <point x="119.64367816091954" y="484.7816091954023"/>
      <point x="73.85057471264368" y="471.7816091954023" type="curve"/>
      <point x="78.04597701149424" y="391.55172413793105" type="line"/>
      <point x="149.26436781609195" y="419.35632183908046"/>
      <point x="224.64367816091954" y="436.13793103448273"/>
      <point x="251.85057471264366" y="436.13793103448273" type="curve" smooth="yes"/>
      <point x="315.6896551724138" y="436.13793103448273"/>
      <point x="372.9080459770115" y="414.735632183908"/>
      <point x="369.1034482758621" y="316.18390804597703" type="curve"/>
      <point x="213.4367816091954" y="289.14942528735634" type="line" smooth="yes"/>
      <point x="137.86206896551724" y="276.3448275862069"/>
      <point x="51.85057471264368" y="241.75862068965517"/>
      <point x="51.85057471264368" y="133.57471264367817" type="curve" smooth="yes"/>
      <point x="51.85057471264368" y="43.60919540229885"/>
      <point x="112.22988505747126" y="-10.195402298850574"/>
    </contour>
    <contour>
      <point x="224.9655172413793" y="57.862068965517246" type="curve" smooth="yes"/>
      <point x="175.28735632183907" y="57.862068965517246"/>
      <point x="136.04597701149424" y="79.49425287356323"/>
      <point x="136.04597701149424" y="136.9655172413793" type="curve" smooth="yes"/>
      <point x="136.04597701149424" y="192.44827586206895"/>
      <point x="176.73563218390805" y="220.2528735632184"/>
      <point x="233.80459770114942" y="230.66666666666666" type="curve" smooth="yes"/>
      <point x="327.67816091954023" y="247.48275862068965"/>
      <point x="351.2988505747126" y="254.89655172413794"/>
      <point x="367.3103448275862" y="263.8965517241379" type="curve"/>
      <point x="366.9080459770115" y="154.32183908045977" type="line"/>
      <point x="333.08045977011494" y="92.66666666666666"/>
      <point x="265.60919540229884" y="57.862068965517246"/>
    </contour>
  </outline>
</glyph>
<glyph name="h" format="2">
  <advance width="576.2105263157894"/>
  <unicode hex="0068"/>
  <guideline x="72.10526315789474" y="721.9368421052632" angle="4.470799999999997"/>
  <anchor x="292.5578947368421" y="0.0" name="bottom"/>
  <anchor x="292.5578947368421" y="409.0" name="center"/>
  <anchor x="272.2736842105263" y="725.7368421052631" name="top"/>
  <outline>
    <contour>
      <point x="80.10526315789473" y="0.0" type="curve"/>
      <point x="176.13684210526318" y="0.0" type="line"/>
      <point x="170.67368421052635" y="73.3578947368421"/>
      <point x="169.03157894736844" y="136.98947368421054"/>
      <point x="169.03157894736844" y="215.25263157894736" type="curve"/>
      <point x="169.03157894736844" y="330.94736842105266" type="line"/>
      <point x="208.3578947368421" y="386.5263157894737"/>
      <point x="275.6631578947368" y="429.85263157894735"/>
      <point x="319.52631578947364" y="429.85263157894735" type="curve" smooth="yes"/>
      <point x="393.6421052631579" y="429.85263157894735"/>
      <point x="417.62105263157895" y="386.69473684210527"/>
      <point x="417.62105263157895" y="301.9157894736842" type="curve"/>
      <point x="417.62105263157895" y="215.25263157894736" type="line"/>
      <point x="417.62105263157895" y="136.98947368421054"/>
      <point x="415.9789473684211" y="73.3578947368421"/>
      <point x="412.0631578947369" y="0.0" type="curve"/>
      <point x="507.5473684210526" y="0.0" type="line"/>
      <point x="501.2631578947369" y="73.3578947368421"/>
      <point x="500.1684210526316" y="136.98947368421054"/>
      <point x="500.1684210526316" y="218.81052631578947" type="curve"/>
      <point x="500.1684210526316" y="248.3684210526316"/>
      <point x="502.2631578947369" y="286.8315789473684"/>
      <point x="502.2631578947369" y="330.10526315789474" type="curve" smooth="yes"/>
      <point x="502.2631578947369" y="445.7473684210526"/>
      <point x="455.06315789473683" y="507.8315789473684"/>
      <point x="348.1684210526316" y="507.8315789473684" type="curve" smooth="yes"/>
      <point x="282.37894736842105" y="507.8315789473684"/>
      <point x="213.7684210526316" y="455.41052631578947"/>
      <point x="178.0421052631579" y="412.86315789473684" type="curve"/>
      <point x="169.03157894736844" y="412.86315789473684" type="line"/>
      <point x="169.03157894736844" y="493.7263157894737" type="line"/>
      <point x="169.03157894736844" y="581.7368421052631"/>
      <point x="172.0421052631579" y="662.6526315789473"/>
      <point x="178.3263157894737" y="743.2842105263157" type="curve"/>
      <point x="72.54736842105262" y="729.8210526315789" type="line"/>
      <point x="82.56842105263158" y="654.8105263157895"/>
      <point x="86.48421052631579" y="577.0842105263158"/>
      <point x="86.48421052631579" y="493.7263157894737" type="curve"/>
      <point x="86.48421052631579" y="218.81052631578947" type="line"/>
      <point x="86.48421052631579" y="136.98947368421054"/>
      <point x="84.56842105263158" y="73.3578947368421"/>
    </contour>
  </outline>
</glyph>
<glyph name="k" format="2">
  <advance width="543.6421052631579"/>
  <unicode hex="006B"/>
  <anchor x="277.85263157894735" y="0.0" name="bottom"/>
  <anchor x="277.85263157894735" y="725.7368421052631" name="top"/>
  <outline>
    <contour>
      <point x="408.5368421052632" y="0.0" type="curve"/>
      <point x="529.4947368421053" y="0.0" type="line"/>
      <point x="464.3368421052632" y="58.642105263157895"/>
      <point x="402.2736842105263" y="116.83157894736843"/>
      <point x="342.30526315789473" y="175.47368421052633" type="curve"/>
      <point x="241.61052631578949" y="275.9684210526316" type="line"/>
      <point x="244.62105263157898" y="236.16842105263157" type="line"/>
      <point x="330.12631578947367" y="321.3578947368421" type="line"/>
      <point x="389.1894736842105" y="379.7263157894737"/>
      <point x="447.8" y="437.09473684210525"/>
      <point x="512.2315789473683" y="496.18947368421055" type="curve"/>
      <point x="397.37894736842105" y="496.18947368421055" type="line"/>
      <point x="357.06315789473683" y="449.65263157894736"/>
      <point x="312.2" y="402.66315789473686"/>
      <point x="266.69473684210527" y="356.12631578947367" type="curve"/>
      <point x="192.30526315789476" y="280.2315789473684" type="line"/>
      <point x="159.56842105263158" y="280.2315789473684" type="line"/>
      <point x="159.56842105263158" y="221.03157894736842" type="line"/>
      <point x="187.22105263157894" y="221.03157894736842" type="line"/>
      <point x="275.86315789473684" y="136.32631578947368" type="line"/>
      <point x="322.2736842105263" y="90.88421052631578"/>
      <point x="366.86315789473684" y="45.44210526315789"/>
    </contour>
    <contour>
      <point x="80.10526315789473" y="0.0" type="curve"/>
      <point x="176.13684210526318" y="0.0" type="line"/>
      <point x="170.67368421052635" y="70.07368421052631"/>
      <point x="169.03157894736844" y="130.96842105263158"/>
      <point x="169.03157894736844" y="205.94736842105263" type="curve"/>
      <point x="169.03157894736844" y="493.7263157894737" type="line"/>
      <point x="169.03157894736844" y="581.7368421052631"/>
      <point x="172.0421052631579" y="662.6526315789473"/>
      <point x="178.3263157894737" y="743.2842105263157" type="curve"/>
      <point x="72.54736842105262" y="729.8210526315789" type="line"/>
      <point x="82.56842105263158" y="654.8105263157895"/>
      <point x="86.48421052631579" y="577.0842105263158"/>
      <point x="86.48421052631579" y="493.7263157894737" type="curve"/>
      <point x="86.48421052631579" y="218.81052631578947" type="line"/>
      <point x="86.48421052631579" y="136.98947368421054"/>
      <point x="84.56842105263158" y="73.3578947368421"/>
    </contour>
  </outline>
</glyph>
<glyph name="l" format="2">
  <advance width="255.51578947368424"/>
  <unicode hex="006C"/>
  <anchor x="127.75789473684212" y="0.0" name="bottom"/>
  <anchor x="129.1263157894737" y="409.0" name="center"/>
  <anchor x="127.75789473684212" y="725.7368421052631" name="top"/>
  <anchor x="216.44210526315788" y="496.18947368421055" name="topright"/>
  <outline>
    <contour>
      <point x="80.10526315789473" y="0.0" type="curve"/>
      <point x="176.13684210526318" y="0.0" type="line"/>
      <point x="170.67368421052635" y="73.3578947368421"/>
      <point x="169.03157894736844" y="136.98947368421054"/>
      <point x="169.03157894736844" y="218.81052631578947" type="curve"/>
      <point x="169.03157894736844" y="493.7263157894737" type="line"/>
      <point x="169.03157894736844" y="581.7368421052631"/>
      <point x="172.0421052631579" y="662.6526315789474"/>
      <point x="177.77894736842106" y="743.2842105263157" type="curve"/>
      <point x="72.54736842105262" y="729.8210526315789" type="line"/>
      <point x="82.56842105263158" y="654.8105263157895"/>
      <point x="86.48421052631579" y="577.0842105263158"/>
      <point x="86.48421052631579" y="493.7263157894737" type="curve"/>
      <point x="86.48421052631579" y="218.81052631578947" type="line"/>
      <point x="86.48421052631579" y="136.98947368421054"/>
      <point x="84.56842105263158" y="73.3578947368421"/>
    </contour>
  </outline>
</glyph>
<glyph name="m" format="2">
  <advance width="880.8315789473684"/>
  <unicode hex="006D"/>
  <anchor x="450.17894736842106" y="0.0" name="bottom"/>
  <anchor x="450.17894736842106" y="496.18947368421055" name="top"/>
  <outline>
    <contour>
      <point x="85.5578947368421" y="0.0" type="curve"/>
      <point x="181.58947368421053" y="0.0" type="line"/>
      <point x="176.1263157894737" y="73.3578947368421"/>
      <point x="174.48421052631582" y="136.98947368421054"/>
      <point x="174.48421052631582" y="215.25263157894736" type="curve"/>
      <point x="174.48421052631582" y="330.94736842105266" type="line"/>
      <point x="213.81052631578947" y="386.52631578947364"/>
      <point x="273.12631578947367" y="429.85263157894735"/>
      <point x="316.7157894736842" y="429.85263157894735" type="curve" smooth="yes"/>
      <point x="386.37894736842105" y="429.85263157894735"/>
      <point x="408.9052631578947" y="386.69473684210527"/>
      <point x="408.9052631578947" y="301.9157894736842" type="curve"/>
      <point x="408.9052631578947" y="215.25263157894736" type="line"/>
      <point x="408.9052631578947" y="136.98947368421054"/>
      <point x="407.2631578947368" y="73.3578947368421"/>
      <point x="403.3473684210526" y="0.0" type="curve"/>
      <point x="498.8315789473684" y="0.0" type="line"/>
      <point x="492.5473684210527" y="73.3578947368421"/>
      <point x="491.4526315789474" y="136.98947368421054"/>
      <point x="491.4526315789474" y="218.81052631578947" type="curve"/>
      <point x="491.4526315789474" y="248.3684210526316"/>
      <point x="493.5473684210527" y="287.37894736842105"/>
      <point x="493.5473684210527" y="330.10526315789474" type="curve" smooth="yes"/>
      <point x="493.5473684210527" y="351.0210526315789"/>
      <point x="492.00000000000006" y="370.66315789473686"/>
      <point x="488.4526315789474" y="387.7578947368421" type="curve"/>
      <point x="482.79999999999995" y="390.66315789473686" type="line"/>
      <point x="468.88421052631577" y="468.0210526315789"/>
      <point x="424.06315789473683" y="507.8315789473684"/>
      <point x="345.81052631578945" y="507.8315789473684" type="curve" smooth="yes"/>
      <point x="277.83157894736837" y="507.8315789473684"/>
      <point x="213.74736842105264" y="453.7684210526316"/>
      <point x="175.83157894736843" y="408.4842105263158" type="curve"/>
      <point x="166.82105263157897" y="408.4842105263158" type="line"/>
      <point x="157.54736842105265" y="501.10526315789474" type="line"/>
      <point x="76.09473684210526" y="496.18947368421055" type="line"/>
      <point x="88.29473684210525" y="419.7263157894737"/>
      <point x="91.93684210526315" y="342.0"/>
      <point x="91.93684210526315" y="268.81052631578945" type="curve"/>
      <point x="91.93684210526315" y="218.81052631578947" type="line"/>
      <point x="91.93684210526315" y="136.98947368421054"/>
      <point x="90.02105263157894" y="73.3578947368421"/>
    </contour>
    <contour>
      <point x="716.6842105263158" y="0.0" type="curve"/>
      <point x="812.1684210526316" y="0.0" type="line"/>
      <point x="805.8842105263158" y="73.3578947368421"/>
      <point x="804.7894736842105" y="136.98947368421054"/>
      <point x="804.7894736842105" y="218.81052631578947" type="curve"/>
      <point x="804.7894736842105" y="248.3684210526316"/>
      <point x="806.8842105263158" y="286.8315789473684"/>
      <point x="806.8842105263158" y="330.10526315789474" type="curve" smooth="yes"/>
      <point x="806.8842105263158" y="445.74736842105267"/>
      <point x="759.6842105263157" y="507.8315789473684"/>
      <point x="659.1473684210526" y="507.8315789473684" type="curve" smooth="yes"/>
      <point x="591.1684210526315" y="507.8315789473684"/>
      <point x="527.7157894736843" y="455.22105263157897"/>
      <point x="486.1684210526316" y="406.30526315789473" type="curve"/>
      <point x="476.33684210526314" y="406.30526315789473" type="line"/>
      <point x="487.5473684210526" y="330.94736842105266" type="line"/>
      <point x="526.8736842105263" y="386.5263157894737"/>
      <point x="586.4631578947369" y="429.85263157894735"/>
      <point x="630.0526315789474" y="429.85263157894735" type="curve" smooth="yes"/>
      <point x="698.9894736842105" y="429.85263157894735"/>
      <point x="722.2421052631579" y="386.69473684210527"/>
      <point x="722.2421052631579" y="301.9157894736842" type="curve"/>
      <point x="722.2421052631579" y="215.25263157894736" type="line"/>
      <point x="722.2421052631579" y="136.98947368421054"/>
      <point x="720.6" y="73.3578947368421"/>
    </contour>
  </outline>
</glyph>
<glyph name="n" format="2">
  <advance width="581.6631578947367"/>
  <unicode hex="006E"/>
  <anchor x="295.36842105263156" y="0.0" name="bottom"/>
  <anchor x="295.36842105263156" y="496.18947368421055" name="top"/>
  <outline>
    <contour>
      <point x="85.5578947368421" y="0.0" type="curve"/>
      <point x="181.58947368421053" y="0.0" type="line"/>
      <point x="176.1263157894737" y="73.3578947368421"/>
      <point x="174.48421052631582" y="136.98947368421054"/>
      <point x="174.48421052631582" y="215.25263157894736" type="curve"/>
      <point x="174.48421052631582" y="330.94736842105266" type="line"/>
      <point x="213.81052631578947" y="386.5263157894737"/>
      <point x="281.1157894736842" y="429.85263157894735"/>
      <point x="324.978947368421" y="429.85263157894735" type="curve" smooth="yes"/>
      <point x="399.09473684210525" y="429.85263157894735"/>
      <point x="423.0736842105263" y="386.69473684210527"/>
      <point x="423.0736842105263" y="301.9157894736842" type="curve"/>
      <point x="423.0736842105263" y="215.25263157894736" type="line"/>
      <point x="423.0736842105263" y="136.98947368421054"/>
      <point x="421.43157894736845" y="73.3578947368421"/>
      <point x="417.5157894736842" y="0.0" type="curve"/>
      <point x="513.0" y="0.0" type="line"/>
      <point x="506.71578947368425" y="73.3578947368421"/>
      <point x="505.62105263157895" y="136.98947368421054"/>
      <point x="505.62105263157895" y="218.81052631578947" type="curve"/>
      <point x="505.62105263157895" y="248.3684210526316"/>
      <point x="507.71578947368425" y="286.8315789473684"/>
      <point x="507.71578947368425" y="330.10526315789474" type="curve" smooth="yes"/>
      <point x="507.71578947368425" y="445.7473684210526"/>
      <point x="460.5157894736842" y="507.8315789473684"/>
      <point x="353.62105263157895" y="507.8315789473684" type="curve" smooth="yes"/>
      <point x="285.09473684210525" y="507.8315789473684"/>
      <point x="213.74736842105264" y="453.7684210526316"/>
      <point x="175.83157894736843" y="408.4842105263158" type="curve"/>
      <point x="166.82105263157897" y="408.4842105263158" type="line"/>
      <point x="157.54736842105265" y="501.10526315789474" type="line"/>
      <point x="76.09473684210526" y="496.18947368421055" type="line"/>
      <point x="88.29473684210525" y="419.7263157894737"/>
      <point x="91.93684210526315" y="342.0"/>
      <point x="91.93684210526315" y="268.81052631578945" type="curve"/>
      <point x="91.93684210526315" y="218.81052631578947" type="line"/>
      <point x="91.93684210526315" y="136.98947368421054"/>
      <point x="90.02105263157894" y="73.3578947368421"/>
    </contour>
  </outline>
</glyph>
<glyph name="p" format="2">
  <advance width="597.6421052631579"/>
  <unicode hex="0070"/>
  <outline>
    <contour>
      <point x="84.83157894736841" y="-195.09473684210528" type="curve"/>
      <point x="182.95789473684212" y="-192.0" type="line"/>
      <point x="176.4" y="-118.6421052631579"/>
      <point x="174.48421052631582" y="-55.01052631578948"/>
      <point x="174.48421052631582" y="23.25263157894737" type="curve"/>
      <point x="174.48421052631582" y="63.88421052631579" type="line"/>
      <point x="182.4" y="63.88421052631579" type="line"/>
      <point x="227.56842105263158" y="14.347368421052632"/>
      <point x="282.6421052631579" y="-10.91578947368421"/>
      <point x="335.1684210526316" y="-10.91578947368421" type="curve" smooth="yes"/>
      <point x="477.06315789473683" y="-10.91578947368421"/>
      <point x="547.1368421052631" y="110.54736842105264"/>
      <point x="547.1368421052631" y="249.54736842105262" type="curve" smooth="yes"/>
      <point x="547.1368421052631" y="397.09473684210525"/>
      <point x="469.4315789473684" y="507.8315789473684"/>
      <point x="333.4421052631579" y="507.8315789473684" type="curve" smooth="yes"/>
      <point x="267.7368421052632" y="507.8315789473684"/>
      <point x="213.7473684210526" y="473.11578947368423"/>
      <point x="175.29473684210527" y="433.4631578947368" type="curve"/>
      <point x="166.55789473684212" y="433.4631578947368" type="line"/>
      <point x="160.01052631578946" y="501.10526315789474" type="line"/>
      <point x="76.09473684210526" y="496.18947368421055" type="line"/>
      <point x="88.29473684210525" y="419.7263157894737"/>
      <point x="91.93684210526315" y="342.0"/>
      <point x="91.93684210526315" y="268.81052631578945" type="curve"/>
      <point x="91.93684210526315" y="26.810526315789474" type="line"/>
      <point x="91.93684210526315" y="-55.01052631578948"/>
      <point x="90.02105263157894" y="-121.73684210526316"/>
    </contour>
    <contour>
      <point x="310.2631578947368" y="62.95789473684211" type="curve"/>
      <point x="257.85263157894735" y="63.77894736842106"/>
      <point x="211.26315789473685" y="91.93684210526317"/>
      <point x="174.48421052631582" y="143.97894736842105" type="curve"/>
      <point x="174.48421052631582" y="364.29473684210524" type="line"/>
      <point x="212.53684210526313" y="409.88421052631577"/>
      <point x="264.0315789473684" y="432.13684210526316"/>
      <point x="308.81052631578945" y="433.13684210526316" type="curve"/>
      <point x="413.2631578947368" y="430.13684210526316"/>
      <point x="462.4947368421052" y="350.10526315789474"/>
      <point x="462.4947368421052" y="249.0" type="curve" smooth="yes"/>
      <point x="462.4947368421052" y="152.34736842105264"/>
      <point x="416.62105263157895" y="65.9578947368421"/>
    </contour>
  </outline>
</glyph>
<glyph name="q" format="2">
  <advance width="586.3684210526316"/>
  <unicode hex="0071"/>
  <outline>
    <contour>
      <point x="416.05263157894734" y="-195.09473684210528" type="curve"/>
      <point x="512.8105263157895" y="-192.0" type="line"/>
      <point x="507.34736842105264" y="-118.6421052631579"/>
      <point x="505.70526315789476" y="-55.01052631578948"/>
      <point x="505.70526315789476" y="26.810526315789474" type="curve"/>
      <point x="505.70526315789476" y="268.81052631578945" type="line"/>
      <point x="505.70526315789476" y="343.5473684210526"/>
      <point x="509.34736842105264" y="423.09473684210525"/>
      <point x="518.8105263157894" y="501.10526315789474" type="curve"/>
      <point x="437.63157894736844" y="496.18947368421055" type="line"/>
      <point x="431.0842105263158" y="433.4631578947368" type="line"/>
      <point x="422.34736842105264" y="433.4631578947368" type="line"/>
      <point x="383.89473684210526" y="473.11578947368423"/>
      <point x="329.90526315789475" y="507.8315789473684"/>
      <point x="264.2" y="507.8315789473684" type="curve" smooth="yes"/>
      <point x="128.21052631578948" y="507.8315789473684"/>
      <point x="50.50526315789474" y="397.09473684210525"/>
      <point x="50.50526315789474" y="249.54736842105262" type="curve" smooth="yes"/>
      <point x="50.50526315789474" y="110.54736842105264"/>
      <point x="120.57894736842105" y="-10.91578947368421"/>
      <point x="262.4736842105263" y="-10.91578947368421" type="curve" smooth="yes"/>
      <point x="315.0" y="-10.91578947368421"/>
      <point x="370.0736842105263" y="14.347368421052632"/>
      <point x="415.2421052631579" y="63.88421052631579" type="curve"/>
      <point x="423.1578947368421" y="63.88421052631579" type="line"/>
      <point x="423.1578947368421" y="23.25263157894737" type="line"/>
      <point x="423.1578947368421" y="-55.01052631578948"/>
      <point x="421.2421052631579" y="-121.73684210526316"/>
    </contour>
    <contour>
      <point x="287.37894736842105" y="62.95789473684211" type="curve"/>
      <point x="181.02105263157895" y="65.9578947368421"/>
      <point x="135.14736842105265" y="152.34736842105264"/>
      <point x="135.14736842105265" y="249.0" type="curve" smooth="yes"/>
      <point x="135.14736842105265" y="350.10526315789474"/>
      <point x="184.37894736842105" y="430.13684210526316"/>
      <point x="288.8315789473684" y="433.13684210526316" type="curve"/>
      <point x="333.6105263157895" y="432.13684210526316"/>
      <point x="385.10526315789474" y="409.88421052631577"/>
      <point x="423.1578947368421" y="364.29473684210524" type="curve"/>
      <point x="423.1578947368421" y="143.97894736842105" type="line"/>
      <point x="386.37894736842105" y="91.93684210526317"/>
      <point x="339.7894736842105" y="63.77894736842106"/>
    </contour>
  </outline>
</glyph>
<glyph name="r" format="2">
  <advance width="406.04210526315785"/>
  <unicode hex="0072"/>
  <anchor x="127.11578947368422" y="0.0" name="bottom"/>
  <anchor x="233.3684210526316" y="496.18947368421055" name="top"/>
  <outline>
    <contour>
      <point x="85.5578947368421" y="0.0" type="curve"/>
      <point x="181.58947368421053" y="0.0" type="line"/>
      <point x="176.1263157894737" y="73.3578947368421"/>
      <point x="174.48421052631582" y="136.98947368421054"/>
      <point x="174.48421052631582" y="215.25263157894736" type="curve"/>
      <point x="174.48421052631582" y="304.7684210526316" type="line"/>
      <point x="221.07368421052632" y="409.5578947368421"/>
      <point x="278.67368421052635" y="423.5578947368421"/>
      <point x="313.3894736842105" y="423.5578947368421" type="curve" smooth="yes"/>
      <point x="330.38947368421054" y="423.5578947368421"/>
      <point x="353.6736842105263" y="417.4631578947368"/>
      <point x="374.13684210526316" y="410.1894736842105" type="curve"/>
      <point x="381.5157894736842" y="499.2842105263158" type="line"/>
      <point x="364.5157894736842" y="505.37894736842105"/>
      <point x="345.42105263157896" y="507.8315789473684"/>
      <point x="327.1578947368421" y="507.8315789473684" type="curve" smooth="yes"/>
      <point x="284.1578947368421" y="507.8315789473684"/>
      <point x="222.6421052631579" y="486.09473684210525"/>
      <point x="173.6526315789474" y="398.3157894736842" type="curve"/>
      <point x="165.3684210526316" y="398.3157894736842" type="line"/>
      <point x="157.54736842105265" y="501.10526315789474" type="line"/>
      <point x="76.09473684210526" y="496.18947368421055" type="line"/>
      <point x="88.29473684210525" y="419.7263157894737"/>
      <point x="91.93684210526315" y="342.0"/>
      <point x="91.93684210526315" y="268.81052631578945" type="curve"/>
      <point x="91.93684210526315" y="218.81052631578947" type="line"/>
      <point x="91.93684210526315" y="136.98947368421054"/>
      <point x="90.02105263157894" y="73.3578947368421"/>
    </contour>
  </outline>
</glyph>
<glyph name="t" format="2">
  <advance width="409.85263157894735"/>
  <unicode hex="0074"/>
  <anchor x="235.6315789473684" y="0.0" name="bottom"/>
  <anchor x="210.2" y="248.09473684210528" name="center"/>
  <anchor x="200.47368421052633" y="639.3263157894737" name="top"/>
  <anchor x="240.17894736842106" y="496.18947368421055" name="topright"/>
  <outline>
    <contour>
      <point x="273.82105263157894" y="-10.91578947368421" type="curve" smooth="yes"/>
      <point x="314.10526315789474" y="-10.91578947368421"/>
      <point x="359.85263157894735" y="2.810526315789473"/>
      <point x="380.6842105263158" y="12.536842105263158" type="curve"/>
      <point x="373.58947368421053" y="86.85263157894738" type="line"/>
      <point x="348.86315789473684" y="71.67368421052632"/>
      <point x="314.2421052631579" y="60.76842105263158"/>
      <point x="293.61052631578946" y="60.76842105263158" type="curve" smooth="yes"/>
      <point x="231.28421052631577" y="60.76842105263158"/>
      <point x="201.57894736842104" y="96.48421052631579"/>
      <point x="201.57894736842104" y="168.7263157894737" type="curve" smooth="yes"/>
      <point x="201.57894736842104" y="471.7894736842105" type="line"/>
      <point x="201.57894736842104" y="550.0"/>
      <point x="203.22105263157894" y="601.3894736842105"/>
      <point x="207.9578947368421" y="675.4" type="curve"/>
      <point x="112.74736842105263" y="656.4631578947368" type="line"/>
      <point x="117.93684210526315" y="594.0"/>
      <point x="119.85263157894737" y="539.8105263157895"/>
      <point x="119.85263157894737" y="471.7894736842105" type="curve"/>
      <point x="119.85263157894737" y="378.69473684210527"/>
      <point x="117.7578947368421" y="265.38947368421054"/>
      <point x="117.7578947368421" y="149.10526315789474" type="curve" smooth="yes"/>
      <point x="117.7578947368421" y="39.34736842105263"/>
      <point x="172.05263157894737" y="-10.91578947368421"/>
    </contour>
    <contour>
      <point x="24.347368421052632" y="424.13684210526316" type="line"/>
      <point x="142.09473684210528" y="433.7894736842105" type="line"/>
      <point x="175.82105263157894" y="433.7894736842105" type="line"/>
      <point x="239.7157894736842" y="433.2421052631579"/>
      <point x="308.88421052631577" y="430.6"/>
      <point x="375.6" y="424.13684210526316" type="curve"/>
      <point x="375.6" y="496.18947368421055" type="line"/>
      <point x="24.347368421052632" y="496.18947368421055" type="line"/>
    </contour>
  </outline>
</glyph>
<glyph name="u" format="2">
  <advance width="561.5894736842105"/>
  <unicode hex="0075"/>
  <anchor x="280.2" y="0.0" name="bottom"/>
  <anchor x="489.64210526315793" y="0.0" name="ogonek"/>
  <anchor x="280.2" y="496.18947368421055" name="top"/>
  <anchor x="533.6" y="496.18947368421055" name="topright"/>
  <outline>
    <contour>
      <point x="226.12631578947367" y="-10.91578947368421" type="curve" smooth="yes"/>
      <point x="289.65263157894736" y="-10.91578947368421"/>
      <point x="361.0" y="43.14736842105263"/>
      <point x="398.91578947368424" y="88.43157894736842" type="curve"/>
      <point x="407.9263157894737" y="88.43157894736842" type="line"/>
      <point x="412.8421052631579" y="0.0" type="line"/>
      <point x="491.2842105263158" y="0.0" type="line"/>
      <point x="485.821052631579" y="73.3578947368421"/>
      <point x="484.17894736842106" y="136.98947368421054"/>
      <point x="484.17894736842106" y="218.81052631578947" type="curve"/>
      <point x="484.17894736842106" y="271.5473684210526" type="line"/>
      <point x="484.17894736842106" y="357.7473684210526"/>
      <point x="486.3684210526316" y="422.8315789473684"/>
      <point x="491.8315789473684" y="496.18947368421055" type="curve"/>
      <point x="395.0736842105263" y="496.18947368421055" type="line"/>
      <point x="399.71578947368425" y="422.8315789473684"/>
      <point x="401.63157894736844" y="357.7473684210526"/>
      <point x="401.63157894736844" y="279.7578947368421" type="curve"/>
      <point x="401.63157894736844" y="164.6" type="line"/>
      <point x="362.30526315789473" y="109.02105263157895"/>
      <point x="295.0" y="65.69473684210527"/>
      <point x="254.76842105263157" y="65.69473684210527" type="curve" smooth="yes"/>
      <point x="180.65263157894736" y="65.69473684210527"/>
      <point x="156.67368421052632" y="108.85263157894738"/>
      <point x="156.67368421052632" y="193.6315789473684" type="curve"/>
      <point x="156.67368421052632" y="279.7578947368421" type="line"/>
      <point x="156.67368421052632" y="357.7473684210526"/>
      <point x="158.31578947368422" y="425.9263157894737"/>
      <point x="163.23157894736843" y="499.2842105263158" type="curve"/>
      <point x="66.47368421052632" y="496.18947368421055" type="line"/>
      <point x="71.66315789473684" y="422.8315789473684"/>
      <point x="74.1263157894737" y="357.7473684210526"/>
      <point x="74.1263157894737" y="271.5473684210526" type="curve"/>
      <point x="74.1263157894737" y="239.81052631578947"/>
      <point x="72.57894736842105" y="210.0842105263158"/>
      <point x="72.57894736842105" y="166.81052631578947" type="curve" smooth="yes"/>
      <point x="72.57894736842105" y="51.16842105263158"/>
      <point x="119.23157894736842" y="-10.91578947368421"/>
    </contour>
  </outline>
</glyph>
<glyph name="w" format="2">
  <advance width="806.8947368421053"/>
  <unicode hex="0077"/>
  <anchor x="404.12631578947367" y="0.0" name="bottom"/>
  <anchor x="404.12631578947367" y="496.18947368421055" name="top"/>
  <outline>
    <contour>
      <point x="186.85263157894738" y="0.0" type="curve"/>
      <point x="287.5052631578947" y="0.0" type="line"/>
      <point x="307.11578947368423" y="76.86315789473684"/>
      <point x="331.4526315789474" y="160.6315789473684"/>
      <point x="353.4315789473684" y="235.0421052631579" type="curve"/>
      <point x="396.66315789473686" y="381.13684210526316" type="line"/>
      <point x="404.85263157894735" y="381.13684210526316" type="line"/>
      <point x="448.3578947368421" y="236.76842105263157" type="line"/>
      <point x="471.33684210526314" y="162.3578947368421"/>
      <point x="497.22105263157897" y="76.86315789473684"/>
      <point x="517.8315789473685" y="0.0" type="curve"/>
      <point x="622.2210526315789" y="0.0" type="line"/>
      <point x="639.0315789473684" y="61.0"/>
      <point x="658.6631578947369" y="125.54736842105264"/>
      <point x="679.3894736842105" y="189.82105263157894" type="curve"/>
      <point x="707.8421052631579" y="277.09473684210525" type="line"/>
      <point x="731.5684210526316" y="349.6421052631579"/>
      <point x="756.021052631579" y="422.6421052631579"/>
      <point x="785.3894736842105" y="496.18947368421055" type="curve"/>
      <point x="686.0842105263158" y="496.18947368421055" type="line"/>
      <point x="667.2" y="422.94736842105266"/>
      <point x="641.6842105263158" y="329.7157894736842"/>
      <point x="617.978947368421" y="248.56842105263158" type="curve"/>
      <point x="571.2947368421053" y="88.27368421052631" type="line"/>
      <point x="563.5578947368421" y="88.27368421052631" type="line"/>
      <point x="516.8736842105263" y="247.29473684210527" type="line"/>
      <point x="493.1684210526316" y="329.4421052631579"/>
      <point x="468.2842105263158" y="416.0421052631579"/>
      <point x="447.4" y="496.18947368421055" type="curve"/>
      <point x="360.41052631578947" y="496.18947368421055" type="line"/>
      <point x="338.8" y="411.86315789473684"/>
      <point x="315.36842105263156" y="328.2631578947368"/>
      <point x="291.66315789473686" y="245.8421052631579" type="curve"/>
      <point x="246.43157894736842" y="88.27368421052631" type="line"/>
      <point x="238.69473684210527" y="88.27368421052631" type="line"/>
      <point x="192.46315789473684" y="242.21052631578948" type="line"/>
      <point x="167.7578947368421" y="324.3578947368421"/>
      <point x="141.42105263157896" y="417.86315789473684"/>
      <point x="120.08421052631579" y="499.2842105263158" type="curve"/>
      <point x="21.50526315789474" y="496.18947368421055" type="line"/>
      <point x="51.147368421052626" y="421.9157894736842"/>
      <point x="75.14736842105263" y="350.6421052631579"/>
      <point x="99.32631578947368" y="277.09473684210525" type="curve"/>
      <point x="128.2315789473684" y="188.82105263157894" type="line"/>
      <point x="149.41052631578947" y="124.82105263157895"/>
      <point x="169.31578947368422" y="62.27368421052632"/>
    </contour>
  </outline>
</glyph>
<glyph name="x" format="2">
  <advance width="538.1894736842105"/>
  <unicode hex="0078"/>
  <outline>
    <contour>
      <point x="25.42105263157895" y="0.0" type="curve"/>
      <point x="129.90526315789475" y="0.0" type="line"/>
      <point x="155.14736842105265" y="44.62105263157895"/>
      <point x="175.57894736842104" y="76.78947368421052"/>
      <point x="204.09473684210528" y="121.13684210526316" type="curve"/>
      <point x="258.76842105263154" y="205.10526315789474" type="line"/>
      <point x="265.9578947368421" y="205.10526315789474" type="line"/>
      <point x="326.53684210526313" y="117.13684210526316" type="line"/>
      <point x="356.0526315789474" y="74.33684210526316"/>
      <point x="377.4842105263158" y="41.62105263157895"/>
      <point x="403.7263157894737" y="0.0" type="curve"/>
      <point x="514.1368421052631" y="0.0" type="line"/>
      <point x="461.6842105263158" y="64.6421052631579"/>
      <point x="431.3263157894737" y="104.46315789473684"/>
      <point x="396.5157894736842" y="151.55789473684212" type="curve"/>
      <point x="312.4421052631579" y="266.5684210526316" type="line"/>
      <point x="316.4526315789474" y="244.6315789473684" type="line"/>
      <point x="391.34736842105264" y="351.0" type="line"/>
      <point x="426.4315789473684" y="400.82105263157894"/>
      <point x="448.33684210526314" y="431.36842105263156"/>
      <point x="498.69473684210527" y="496.18947368421055" type="curve"/>
      <point x="393.2105263157895" y="496.18947368421055" type="line"/>
      <point x="367.9684210526316" y="451.29473684210524"/>
      <point x="346.9894736842105" y="418.57894736842104"/>
      <point x="320.10526315789474" y="376.86315789473684" type="curve"/>
      <point x="267.7894736842105" y="297.0736842105263" type="line"/>
      <point x="260.77894736842103" y="297.0736842105263" type="line"/>
      <point x="207.9157894736842" y="376.6842105263158" type="line"/>
      <point x="180.7578947368421" y="418.12631578947367"/>
      <point x="158.9578947368421" y="452.4842105263158"/>
      <point x="131.53684210526316" y="499.2842105263158" type="curve"/>
      <point x="26.957894736842103" y="496.18947368421055" type="line"/>
      <point x="76.0421052631579" y="433.9157894736842"/>
      <point x="101.94736842105263" y="397.82105263157894"/>
      <point x="136.93684210526317" y="347.82105263157894" type="curve"/>
      <point x="210.46315789473684" y="241.7263157894737" type="line"/>
      <point x="209.73684210526315" y="265.11578947368423" type="line"/>
      <point x="134.57894736842104" y="153.10526315789474" type="line"/>
      <point x="100.58947368421053" y="102.73684210526316"/>
      <point x="75.50526315789475" y="66.91578947368421"/>
    </contour>
  </outline>
</glyph>
<glyph name="y" format="2">
  <advance width="522.7157894736843"/>
  <unicode hex="0079"/>
  <anchor x="389.41052631578947" y="0.0" name="bottom"/>
  <anchor x="262.0421052631579" y="496.18947368421055" name="top"/>
  <outline>
    <contour>
      <point x="128.65263157894736" y="-195.09473684210528" type="curve"/>
      <point x="228.68421052631578" y="-192.0" type="line"/>
      <point x="253.4" y="-120.0"/>
      <point x="285.12631578947367" y="-37.90526315789474"/>
      <point x="335.30526315789473" y="89.09473684210526" type="curve"/>
      <point x="390.4842105263158" y="228.6421052631579" type="line"/>
      <point x="439.66315789473686" y="353.9157894736842"/>
      <point x="464.38947368421054" y="415.18947368421055"/>
      <point x="500.11578947368423" y="496.18947368421055" type="curve"/>
      <point x="402.2736842105263" y="496.18947368421055" type="line"/>
      <point x="377.57894736842104" y="413.3157894736842"/>
      <point x="349.5157894736842" y="332.7157894736842"/>
      <point x="319.4526315789474" y="248.38947368421054" type="curve"/>
      <point x="261.77894736842103" y="88.36842105263159" type="line"/>
      <point x="253.0421052631579" y="88.36842105263159" type="line"/>
      <point x="200.2736842105263" y="247.93684210526317" type="line"/>
      <point x="171.93684210526317" y="333.53684210526313"/>
      <point x="146.05263157894737" y="413.6842105263158"/>
      <point x="120.63157894736842" y="499.2842105263158" type="curve"/>
      <point x="22.6" y="496.18947368421055" type="line"/>
      <point x="53.421052631578945" y="425.1894736842105"/>
      <point x="81.87368421052632" y="349.1894736842105"/>
      <point x="108.32631578947368" y="277.6421052631579" type="curve"/>
      <point x="141.23157894736843" y="187.6421052631579" type="line"/>
      <point x="165.68421052631578" y="121.36842105263158"/>
      <point x="191.86315789473684" y="50.36842105263158"/>
      <point x="213.57894736842107" y="-17.905263157894737" type="curve"/>
      <point x="217.0421052631579" y="2.8421052631578956" type="line"/>
      <point x="191.49473684210525" y="-62.34736842105263"/>
      <point x="161.85263157894738" y="-129.90526315789472"/>
    </contour>
  </outline>
</glyph>
<glyph name="z" format="2">
  <advance width="496.77894736842103"/>
  <unicode hex="007A"/>
  <anchor x="246.66315789473686" y="0.0" name="bottom"/>
  <anchor x="246.66315789473686" y="248.09473684210528" name="center"/>
  <anchor x="246.66315789473686" y="496.18947368421055" name="top"/>
  <outline>
    <contour>
      <point x="38.526315789473685" y="0.0" type="line"/>
      <point x="461.1578947368421" y="0.0" type="line"/>
      <point x="461.1578947368421" y="73.14736842105265" type="line"/>
      <point x="394.0" y="67.04210526315791"/>
      <point x="303.30526315789473" y="64.1263157894737"/>
      <point x="248.77894736842106" y="64.1263157894737" type="curve"/>
      <point x="128.09473684210528" y="64.1263157894737" type="line"/>
      <point x="137.74736842105264" y="44.72631578947369" type="line"/>
      <point x="295.30526315789473" y="250.89473684210526" type="line"/>
      <point x="343.2842105263158" y="313.68421052631584"/>
      <point x="405.4421052631579" y="390.9157894736842"/>
      <point x="445.2526315789474" y="438.07368421052627" type="curve"/>
      <point x="445.2526315789474" y="496.18947368421055" type="line"/>
      <point x="40.44210526315789" y="496.18947368421055" type="line"/>
      <point x="40.44210526315789" y="421.6736842105263" type="line"/>
      <point x="113.32631578947368" y="429.32631578947365"/>
      <point x="205.56842105263158" y="431.7894736842105"/>
      <point x="259.36842105263156" y="431.7894736842105" type="curve"/>
      <point x="368.9684210526316" y="431.7894736842105" type="line"/>
      <point x="356.4947368421053" y="459.9157894736842" type="line"/>
      <point x="196.92631578947368" y="250.3684210526316" type="line"/>
      <point x="151.67368421052632" y="190.7578947368421"/>
      <point x="96.42105263157896" y="122.06315789473685"/>
      <point x="38.526315789473685" y="51.73684210526316" type="curve"/>
    </contour>
  </outline>
</glyph>
<glyph name="braceleft" format="2">
  <advance width="404.2947368421053"/>
  <unicode hex="007B"/>
  <outline>
    <contour>
      <point x="301.42105263157896" y="-116.92631578947369" type="curve" smooth="yes"/>
      <point x="388.82105263157894" y="-116.92631578947369" type="line"/>
      <point x="388.82105263157894" y="-45.694736842105264" type="line"/>
      <point x="354.82105263157894" y="-47.51578947368421"/>
      <point x="328.5473684210526" y="-47.78947368421053"/>
      <point x="311.5473684210526" y="-47.78947368421053" type="curve"/>
      <point x="248.7684210526316" y="-46.242105263157896"/>
      <point x="218.33684210526317" y="-18.34736842105263"/>
      <point x="217.78947368421052" y="36.810526315789474" type="curve" smooth="yes"/>
      <point x="215.96842105263158" y="192.05263157894737" type="line" smooth="yes"/>
      <point x="214.6" y="269.77894736842103"/>
      <point x="184.96842105263158" y="298.4421052631579"/>
      <point x="134.93684210526317" y="320.4526315789474" type="curve"/>
      <point x="134.93684210526317" y="328.9157894736842" type="line"/>
      <point x="184.96842105263158" y="350.4736842105263"/>
      <point x="214.6" y="378.7684210526316"/>
      <point x="215.96842105263158" y="456.58947368421053" type="curve" smooth="yes"/>
      <point x="217.78947368421052" y="612.5578947368421" type="line" smooth="yes"/>
      <point x="218.33684210526317" y="667.7157894736843"/>
      <point x="248.7684210526316" y="695.6105263157895"/>
      <point x="311.5473684210526" y="697.1578947368421" type="curve"/>
      <point x="329.2736842105263" y="697.1578947368421"/>
      <point x="356.0" y="696.8842105263158"/>
      <point x="387.4526315789474" y="695.0631578947368" type="curve"/>
      <point x="387.4526315789474" y="766.2947368421053" type="line"/>
      <point x="301.42105263157896" y="766.2947368421053" type="line" smooth="yes"/>
      <point x="200.10526315789474" y="766.2947368421053"/>
      <point x="136.3473684210526" y="715.2736842105263"/>
      <point x="136.3473684210526" y="624.3263157894737" type="curve"/>
      <point x="136.3473684210526" y="567.8947368421053"/>
      <point x="138.7157894736842" y="511.7368421052632"/>
      <point x="138.7157894736842" y="455.30526315789473" type="curve"/>
      <point x="138.7157894736842" y="383.5157894736842"/>
      <point x="93.92631578947369" y="355.7894736842105"/>
      <point x="45.66315789473684" y="355.7894736842105" type="curve" smooth="yes"/>
      <point x="12.736842105263158" y="355.7894736842105" type="line"/>
      <point x="12.736842105263158" y="292.85263157894735" type="line"/>
      <point x="45.66315789473684" y="292.85263157894735" type="line" smooth="yes"/>
      <point x="93.92631578947369" y="292.85263157894735"/>
      <point x="138.7157894736842" y="265.12631578947367"/>
      <point x="138.7157894736842" y="193.33684210526314" type="curve"/>
      <point x="138.7157894736842" y="136.90526315789472"/>
      <point x="136.3473684210526" y="81.47368421052632"/>
      <point x="136.3473684210526" y="25.042105263157893" type="curve"/>
      <point x="136.3473684210526" y="-65.90526315789474"/>
      <point x="200.10526315789474" y="-116.92631578947369"/>
    </contour>
  </outline>
</glyph>
<glyph name="asciitilde" format="2">
  <advance width="568.2105263157895"/>
  <unicode hex="007E"/>
  <outline>
    <contour>
      <point x="396.7473684210526" y="220.9578947368421" type="curve" smooth="yes"/>
      <point x="460.2315789473684" y="220.9578947368421"/>
      <point x="506.42105263157896" y="272.5473684210526"/>
      <point x="506.42105263157896" y="362.06315789473683" type="curve"/>
      <point x="451.14736842105265" y="362.06315789473683" type="line"/>
      <point x="445.9578947368421" y="316.46315789473687"/>
      <point x="423.8842105263158" y="297.2"/>
      <point x="388.4526315789474" y="294.9263157894737" type="curve"/>
      <point x="325.11578947368423" y="297.7473684210526"/>
      <point x="256.021052631579" y="377.5263157894737"/>
      <point x="174.37894736842105" y="377.5263157894737" type="curve" smooth="yes"/>
      <point x="109.25263157894737" y="377.5263157894737"/>
      <point x="61.78947368421053" y="325.66315789473686"/>
      <point x="61.78947368421053" y="236.42105263157896" type="curve"/>
      <point x="117.06315789473685" y="236.42105263157896" type="line"/>
      <point x="122.25263157894737" y="282.0210526315789"/>
      <point x="145.8736842105263" y="301.2842105263158"/>
      <point x="181.85263157894735" y="303.5578947368421" type="curve"/>
      <point x="243.82105263157894" y="300.7368421052632"/>
      <point x="314.2842105263158" y="220.9578947368421"/>
    </contour>
  </outline>
</glyph>
<glyph name="sterling" format="2">
  <advance width="591.0421052631579"/>
  <unicode hex="00A3"/>
  <outline>
    <contour>
      <point x="64.05263157894737" y="0.0" type="line"/>
      <point x="557.4105263157895" y="0.0" type="line"/>
      <point x="557.4105263157895" y="84.45263157894738" type="line"/>
      <point x="471.69473684210527" y="77.07368421052632"/>
      <point x="396.70526315789476" y="76.52631578947368"/>
      <point x="268.3578947368421" y="76.52631578947368" type="curve"/>
      <point x="126.10526315789474" y="76.52631578947368" type="line"/>
      <point x="133.8421052631579" y="54.515789473684215" type="line"/>
      <point x="221.3263157894737" y="130.3157894736842"/>
      <point x="227.87368421052633" y="193.21052631578948"/>
      <point x="227.87368421052633" y="249.37894736842105" type="curve" smooth="yes"/>
      <point x="227.87368421052633" y="447.3263157894737" type="line" smooth="yes"/>
      <point x="227.87368421052633" y="567.7052631578947"/>
      <point x="278.7578947368421" y="620.8526315789474"/>
      <point x="379.42105263157896" y="622.6736842105263" type="curve"/>
      <point x="404.3263157894737" y="622.6736842105263"/>
      <point x="456.58947368421053" y="610.9473684210526"/>
      <point x="520.0421052631579" y="582.4947368421052" type="curve"/>
      <point x="529.421052631579" y="662.1052631578947" type="line"/>
      <point x="489.6" y="677.1052631578947"/>
      <point x="427.6" y="698.7368421052631"/>
      <point x="373.22105263157897" y="698.7368421052631" type="curve" smooth="yes"/>
      <point x="224.9578947368421" y="698.7368421052631"/>
      <point x="139.22105263157897" y="617.0736842105263"/>
      <point x="139.22105263157897" y="452.14736842105265" type="curve" smooth="yes"/>
      <point x="139.22105263157897" y="377.4421052631579"/>
      <point x="141.0421052631579" y="303.7368421052632"/>
      <point x="141.0421052631579" y="229.30526315789473" type="curve"/>
      <point x="141.0421052631579" y="183.41052631578947"/>
      <point x="136.31578947368422" y="119.43157894736842"/>
      <point x="64.05263157894737" y="52.45263157894737" type="curve"/>
    </contour>
    <contour>
      <point x="59.705263157894734" y="341.5473684210526" type="line"/>
      <point x="122.3578947368421" y="344.9157894736842"/>
      <point x="181.73684210526315" y="345.1894736842105"/>
      <point x="232.8421052631579" y="345.1894736842105" type="curve"/>
      <point x="266.6736842105263" y="345.1894736842105" type="line"/>
      <point x="317.77894736842103" y="345.1894736842105"/>
      <point x="377.1578947368421" y="344.9157894736842"/>
      <point x="439.8105263157895" y="341.5473684210526" type="curve"/>
      <point x="439.8105263157895" y="410.2210526315789" type="line"/>
      <point x="377.1578947368421" y="406.85263157894735"/>
      <point x="317.77894736842103" y="406.57894736842104"/>
      <point x="266.6736842105263" y="406.57894736842104" type="curve"/>
      <point x="232.8421052631579" y="406.57894736842104" type="line"/>
      <point x="181.73684210526315" y="406.57894736842104"/>
      <point x="122.3578947368421" y="406.85263157894735"/>
      <point x="59.705263157894734" y="410.2210526315789" type="curve"/>
    </contour>
  </outline>
</glyph>
<glyph name="currency" format="2">
  <advance width="622.9894736842106"/>
  <unicode hex="00A4"/>
  <outline>
    <contour>
      <point x="309.7684210526316" y="115.49473684210525" type="curve" smooth="yes"/>
      <point x="430.63157894736844" y="115.49473684210525"/>
      <point x="518.7473684210527" y="191.68421052631578"/>
      <point x="518.7473684210527" y="320.5473684210526" type="curve" smooth="yes"/>
      <point x="518.7473684210527" y="441.2105263157895"/>
      <point x="431.3578947368421" y="525.2315789473685"/>
      <point x="311.7684210526316" y="525.2315789473685" type="curve" smooth="yes"/>
      <point x="190.17894736842106" y="525.2315789473685"/>
      <point x="102.78947368421052" y="441.85263157894735"/>
      <point x="102.78947368421052" y="320.5473684210526" type="curve" smooth="yes"/>
      <point x="102.78947368421052" y="191.9578947368421"/>
      <point x="190.17894736842106" y="115.49473684210525"/>
    </contour>
    <contour>
      <point x="100.89473684210526" y="51.642105263157895" type="line"/>
      <point x="142.3578947368421" y="98.02105263157895"/>
      <point x="184.09473684210528" y="140.30526315789473"/>
      <point x="220.10526315789474" y="176.31578947368422" type="curve"/>
      <point x="167.0842105263158" y="229.33684210526314" type="line"/>
      <point x="131.07368421052632" y="193.32631578947368"/>
      <point x="88.78947368421053" y="151.58947368421053"/>
      <point x="42.41052631578947" y="110.12631578947368" type="curve"/>
    </contour>
    <contour>
      <point x="310.0421052631579" y="186.90526315789475" type="curve"/>
      <point x="236.90526315789472" y="190.00000000000003"/>
      <point x="179.1263157894737" y="230.8842105263158"/>
      <point x="179.1263157894737" y="320.2736842105263" type="curve" smooth="yes"/>
      <point x="179.1263157894737" y="403.66315789473686"/>
      <point x="237.6315789473684" y="451.0"/>
      <point x="311.4947368421053" y="454.09473684210525" type="curve"/>
      <point x="384.90526315789475" y="451.0"/>
      <point x="442.41052631578947" y="403.11578947368423"/>
      <point x="442.41052631578947" y="320.2736842105263" type="curve" smooth="yes"/>
      <point x="442.41052631578947" y="230.8842105263158"/>
      <point x="384.63157894736844" y="190.00000000000003"/>
    </contour>
    <contour>
      <point x="167.6315789473684" y="412.66315789473686" type="curve"/>
      <point x="219.55789473684212" y="464.58947368421053" type="line"/>
      <point x="183.54736842105262" y="500.6"/>
      <point x="141.81052631578947" y="542.8842105263158"/>
      <point x="100.34736842105264" y="589.2631578947369" type="curve"/>
      <point x="42.9578947368421" y="531.8736842105263" type="line"/>
      <point x="89.33684210526316" y="490.41052631578947"/>
      <point x="131.62105263157895" y="448.6736842105263"/>
    </contour>
    <contour>
      <point x="522.6421052631579" y="52.18947368421052" type="curve"/>
      <point x="580.0315789473684" y="109.57894736842105" type="line"/>
      <point x="533.6526315789474" y="151.04210526315788"/>
      <point x="491.36842105263156" y="192.77894736842106"/>
      <point x="455.3578947368421" y="228.78947368421052" type="curve"/>
      <point x="403.4315789473684" y="176.86315789473684" type="line"/>
      <point x="439.4421052631579" y="140.85263157894735"/>
      <point x="481.17894736842106" y="98.56842105263158"/>
    </contour>
    <contour>
      <point x="455.90526315789475" y="412.11578947368423" type="line"/>
      <point x="491.9157894736842" y="448.12631578947367"/>
      <point x="534.2" y="489.86315789473684"/>
      <point x="580.578947368421" y="531.3263157894737" type="curve"/>
      <point x="522.0947368421052" y="589.8105263157895" type="line"/>
      <point x="480.63157894736844" y="543.4315789473684"/>
      <point x="438.89473684210526" y="501.14736842105265"/>
      <point x="402.88421052631577" y="465.13684210526316" type="curve"/>
    </contour>
  </outline>
</glyph>
<glyph name="yen" format="2">
  <advance width="624.8947368421052"/>
  <unicode hex="00A5"/>
  <outline>
    <contour>
      <point x="271.6736842105263" y="269.38947368421054" type="line"/>
      <point x="354.3157894736842" y="269.38947368421054" type="line"/>
      <point x="501.4736842105263" y="521.978947368421" type="line"/>
      <point x="532.1052631578947" y="574.7157894736843"/>
      <point x="566.4631578947368" y="632.9052631578948"/>
      <point x="604.4736842105264" y="685.6421052631579" type="curve"/>
      <point x="494.32631578947365" y="685.6421052631579" type="line"/>
      <point x="448.7473684210526" y="595.4947368421052"/>
      <point x="423.58947368421053" y="550.9684210526316"/>
      <point x="383.7157894736842" y="480.3578947368421" type="curve"/>
      <point x="317.41052631578947" y="362.6736842105263" type="line"/>
      <point x="308.12631578947367" y="362.6736842105263" type="line"/>
      <point x="243.09473684210525" y="479.3578947368421" type="line"/>
      <point x="202.76842105263157" y="551.1473684210526"/>
      <point x="178.61052631578949" y="594.9473684210526"/>
      <point x="133.30526315789473" y="685.6421052631579" type="curve"/>
      <point x="19.873684210526317" y="685.6421052631579" type="line"/>
      <point x="74.78947368421052" y="604.0842105263158"/>
      <point x="96.06315789473685" y="569.1684210526316"/>
      <point x="123.96842105263158" y="521.7052631578947" type="curve"/>
    </contour>
    <contour>
      <point x="263.4736842105263" y="0.0" type="curve"/>
      <point x="363.5157894736842" y="0.0" type="line"/>
      <point x="356.6842105263158" y="76.08421052631579"/>
      <point x="356.41052631578947" y="141.7157894736842"/>
      <point x="356.41052631578947" y="225.81052631578947" type="curve"/>
      <point x="356.41052631578947" y="339.82105263157894" type="line"/>
      <point x="269.85263157894735" y="339.82105263157894" type="line"/>
      <point x="269.85263157894735" y="225.81052631578947" type="line"/>
      <point x="269.85263157894735" y="141.7157894736842"/>
      <point x="269.57894736842104" y="76.08421052631579"/>
    </contour>
    <contour>
      <point x="80.43157894736842" y="137.66315789473683" type="line"/>
      <point x="143.0842105263158" y="141.03157894736842"/>
      <point x="202.46315789473684" y="141.30526315789473"/>
      <point x="253.56842105263158" y="141.30526315789473" type="curve"/>
      <point x="372.87368421052633" y="141.30526315789473" type="line"/>
      <point x="423.978947368421" y="141.30526315789473"/>
      <point x="483.3578947368421" y="141.03157894736842"/>
      <point x="546.0105263157894" y="137.66315789473683" type="curve"/>
      <point x="546.0105263157894" y="199.49473684210525" type="line"/>
      <point x="483.3578947368421" y="197.49473684210525"/>
      <point x="423.978947368421" y="197.22105263157894"/>
      <point x="372.87368421052633" y="197.22105263157894" type="curve"/>
      <point x="253.56842105263158" y="197.22105263157894" type="line"/>
      <point x="202.46315789473684" y="197.22105263157894"/>
      <point x="143.0842105263158" y="197.49473684210525"/>
      <point x="80.43157894736842" y="199.49473684210525" type="curve"/>
    </contour>
    <contour>
      <point x="80.43157894736842" y="282.4421052631579" type="line"/>
      <point x="143.0842105263158" y="284.4421052631579"/>
      <point x="202.46315789473684" y="284.7157894736842"/>
      <point x="253.56842105263158" y="284.7157894736842" type="curve"/>
      <point x="372.87368421052633" y="284.7157894736842" type="line"/>
      <point x="423.978947368421" y="284.7157894736842"/>
      <point x="483.3578947368421" y="284.4421052631579"/>
      <point x="546.0105263157894" y="282.4421052631579" type="curve"/>
      <point x="546.0105263157894" y="344.2736842105263" type="line"/>
      <point x="483.3578947368421" y="340.90526315789475"/>
      <point x="423.978947368421" y="340.63157894736844"/>
      <point x="372.87368421052633" y="340.63157894736844" type="curve"/>
      <point x="253.56842105263158" y="340.63157894736844" type="line"/>
      <point x="202.46315789473684" y="340.63157894736844"/>
      <point x="143.0842105263158" y="340.90526315789475"/>
      <point x="80.43157894736842" y="344.2736842105263" type="curve"/>
    </contour>
  </outline>
</glyph>
<glyph name="brokenbar" format="2">
  <advance width="264.2315789473684"/>
  <unicode hex="00A6"/>
  <outline>
    <contour>
      <point x="95.22105263157894" y="363.2631578947368" type="line"/>
      <point x="169.0105263157895" y="363.2631578947368" type="line"/>
      <point x="169.0105263157895" y="454.2631578947368" type="line"/>
      <point x="169.0105263157895" y="562.2631578947369"/>
      <point x="169.2842105263158" y="665.2631578947369"/>
      <point x="173.74736842105264" y="783.2631578947369" type="curve"/>
      <point x="90.48421052631578" y="783.2631578947369" type="line"/>
      <point x="94.94736842105263" y="665.2631578947369"/>
      <point x="95.22105263157894" y="562.2631578947369"/>
      <point x="95.22105263157894" y="454.2631578947368" type="curve"/>
    </contour>
    <contour>
      <point x="90.48421052631578" y="-156.73684210526315" type="curve"/>
      <point x="173.74736842105264" y="-156.73684210526315" type="line"/>
      <point x="169.2842105263158" y="-38.73684210526316"/>
      <point x="169.0105263157895" y="64.26315789473684"/>
      <point x="169.0105263157895" y="172.26315789473685" type="curve"/>
      <point x="169.0105263157895" y="263.2631578947368" type="line"/>
      <point x="95.22105263157894" y="263.2631578947368" type="line"/>
      <point x="95.22105263157894" y="172.26315789473685" type="line"/>
      <point x="95.22105263157894" y="64.26315789473684"/>
      <point x="94.94736842105263" y="-38.73684210526316"/>
    </contour>
  </outline>
</glyph>
<glyph name="section" format="2">
  <advance width="546.2988505747127"/>
  <unicode hex="00A7"/>
  <outline>
    <contour>
      <point x="245.79310344827587" y="-125.58620689655173" type="curve" smooth="yes"/>
      <point x="393.735632183908" y="-125.58620689655173"/>
      <point x="456.71264367816093" y="-49.57471264367816"/>
      <point x="456.71264367816093" y="45.195402298850574" type="curve" smooth="yes"/>
      <point x="456.71264367816093" y="148.5977011494253"/>
      <point x="386.08045977011494" y="180.3793103448276"/>
      <point x="266.5057471264368" y="215.57471264367817" type="curve" smooth="yes"/>
      <point x="172.26436781609195" y="243.39080459770116"/>
      <point x="133.0344827586207" y="268.5977011494253"/>
      <point x="133.0344827586207" y="327.64367816091954" type="curve" smooth="yes"/>
      <point x="133.0344827586207" y="387.91954022988506"/>
      <point x="177.45977011494253" y="418.7011494252874"/>
      <point x="218.88505747126436" y="425.3103448275862" type="curve"/>
      <point x="168.54022988505747" y="478.4022988505747" type="line"/>
      <point x="91.20689655172414" y="454.8045977011494"/>
      <point x="47.839080459770116" y="393.64367816091954"/>
      <point x="47.839080459770116" y="322.6666666666667" type="curve" smooth="yes"/>
      <point x="47.839080459770116" y="231.4367816091954"/>
      <point x="114.49425287356321" y="190.06896551724137"/>
      <point x="212.24137931034483" y="159.88505747126436" type="curve" smooth="yes"/>
      <point x="331.28735632183907" y="123.06896551724138"/>
      <point x="372.11494252873564" y="105.85057471264368"/>
      <point x="372.11494252873564" y="48.0" type="curve" smooth="yes"/>
      <point x="372.11494252873564" y="-32.103448275862064"/>
      <point x="312.6666666666667" y="-53.5287356321839"/>
      <point x="242.01149425287358" y="-55.5287356321839" type="curve"/>
      <point x="185.20689655172416" y="-55.5287356321839"/>
      <point x="116.82758620689654" y="-34.33333333333333"/>
      <point x="50.42528735632184" y="-2.3333333333333326" type="curve"/>
      <point x="42.632183908045974" y="-81.17241379310346" type="line"/>
      <point x="90.63218390804597" y="-97.7816091954023"/>
      <point x="161.02298850574715" y="-125.58620689655173"/>
    </contour>
    <contour>
      <point x="396.17241379310343" y="128.01149425287358" type="line"/>
      <point x="473.7011494252874" y="158.60919540229884"/>
      <point x="508.4712643678161" y="217.79310344827587"/>
      <point x="508.4712643678161" y="287.35632183908046" type="curve" smooth="yes"/>
      <point x="508.4712643678161" y="382.98850574712645"/>
      <point x="437.8390804597701" y="418.95402298850576"/>
      <point x="318.264367816092" y="454.14942528735634" type="curve" smooth="yes"/>
      <point x="224.02298850574712" y="481.9655172413793"/>
      <point x="184.79310344827587" y="507.17241379310343"/>
      <point x="184.79310344827587" y="560.8390804597701" type="curve" smooth="yes"/>
      <point x="184.79310344827587" y="640.735632183908"/>
      <point x="257.45977011494256" y="654.1379310344828"/>
      <point x="301.6896551724138" y="656.1379310344828" type="curve"/>
      <point x="328.6896551724138" y="656.1379310344828"/>
      <point x="393.08045977011494" y="640.5402298850574"/>
      <point x="465.2758620689655" y="605.5402298850574" type="curve"/>
      <point x="472.0689655172414" y="685.183908045977" type="line"/>
      <point x="424.8735632183908" y="701.7931034482758"/>
      <point x="349.11494252873564" y="726.1954022988506"/>
      <point x="289.5402298850575" y="726.1954022988506" type="curve" smooth="yes"/>
      <point x="171.183908045977" y="726.1954022988506"/>
      <point x="99.0" y="660.2068965517242"/>
      <point x="99.0" y="562.4367816091954" type="curve" smooth="yes"/>
      <point x="99.0" y="465.82758620689657"/>
      <point x="171.632183908046" y="424.4597701149425"/>
      <point x="264.0" y="397.8620689655172" type="curve" smooth="yes"/>
      <point x="382.44827586206895" y="363.4367816091954"/>
      <point x="423.8735632183908" y="340.8390804597701"/>
      <point x="423.8735632183908" y="280.5977011494253" type="curve" smooth="yes"/>
      <point x="423.8735632183908" y="223.72413793103448"/>
      <point x="391.2643678160919" y="187.5287356321839"/>
      <point x="344.04597701149424" y="175.51724137931035" type="curve"/>
    </contour>
  </outline>
</glyph>
<glyph name="ordfeminine" format="2">
  <advance width="395.17241379310343"/>
  <unicode hex="00AA"/>
  <outline>
    <contour>
      <point x="150.0344827586207" y="332.60919540229884" type="curve" smooth="yes"/>
      <point x="197.83908045977012" y="332.60919540229884"/>
      <point x="248.6551724137931" y="363.2068965517241"/>
      <point x="277.2643678160919" y="400.01149425287355" type="curve"/>
      <point x="283.4597701149425" y="400.01149425287355" type="line"/>
      <point x="299.264367816092" y="340.2068965517241" type="line"/>
      <point x="363.735632183908" y="340.2068965517241" type="line"/>
      <point x="348.94252873563215" y="384.1954022988506"/>
      <point x="339.735632183908" y="421.97701149425285"/>
      <point x="339.735632183908" y="456.367816091954" type="curve"/>
      <point x="339.735632183908" y="500.8045977011494" type="line" smooth="yes"/>
      <point x="339.735632183908" y="532.816091954023"/>
      <point x="341.735632183908" y="571.0114942528736"/>
      <point x="341.735632183908" y="594.2068965517242" type="curve" smooth="yes"/>
      <point x="341.735632183908" y="687.0"/>
      <point x="288.7471264367816" y="726.1954022988506"/>
      <point x="206.17241379310346" y="726.1954022988506" type="curve" smooth="yes"/>
      <point x="156.20689655172413" y="726.1954022988506"/>
      <point x="93.816091954023" y="708.5977011494252"/>
      <point x="56.62068965517241" y="698.1954022988506" type="curve"/>
      <point x="59.81609195402299" y="632.919540229885" type="line"/>
      <point x="113.82758620689656" y="656.1149425287357"/>
      <point x="172.816091954023" y="668.7011494252873"/>
      <point x="191.6206896551724" y="668.7011494252873" type="curve" smooth="yes"/>
      <point x="244.42528735632183" y="668.7011494252873"/>
      <point x="283.4597701149425" y="654.2988505747127"/>
      <point x="280.0574712643678" y="585.3908045977012" type="curve"/>
      <point x="158.42528735632183" y="560.7816091954023" type="line" smooth="yes"/>
      <point x="108.63218390804597" y="550.7816091954023"/>
      <point x="39.62068965517241" y="521.1954022988505"/>
      <point x="39.62068965517241" y="436.2068965517241" type="curve" smooth="yes"/>
      <point x="39.62068965517241" y="376.4022988505747"/>
      <point x="79.22988505747126" y="332.60919540229884"/>
    </contour>
    <contour>
      <point x="173.16091954022988" y="387.71264367816093" type="curve" smooth="yes"/>
      <point x="132.51724137931035" y="387.71264367816093"/>
      <point x="102.49425287356323" y="405.1264367816092"/>
      <point x="102.49425287356323" y="448.7701149425287" type="curve" smooth="yes"/>
      <point x="102.49425287356323" y="495.2183908045977"/>
      <point x="142.93103448275863" y="512.2298850574713"/>
      <point x="184.17241379310346" y="520.4367816091954" type="curve" smooth="yes"/>
      <point x="249.4367816091954" y="534.0459770114943"/>
      <point x="266.2528735632184" y="540.8505747126437"/>
      <point x="278.8620689655172" y="547.448275862069" type="curve"/>
      <point x="278.4597701149425" y="451.57471264367814" type="line"/>
      <point x="254.83908045977012" y="408.9310344827586"/>
      <point x="204.98850574712645" y="387.71264367816093"/>
    </contour>
  </outline>
</glyph>
<glyph name="logicalnot" format="2">
  <advance width="568.2105263157895"/>
  <unicode hex="00AC"/>
  <outline>
    <contour>
      <point x="427.34736842105264" y="59.252631578947366" type="curve"/>
      <point x="510.06315789473683" y="59.252631578947366" type="line"/>
      <point x="506.69473684210527" y="121.90526315789474"/>
      <point x="506.42105263157896" y="181.2842105263158"/>
      <point x="506.42105263157896" y="232.38947368421051" type="curve"/>
      <point x="506.42105263157896" y="339.36842105263156" type="line"/>
      <point x="443.7684210526316" y="336.0"/>
      <point x="384.38947368421054" y="335.7263157894737"/>
      <point x="333.2842105263158" y="335.7263157894737" type="curve"/>
      <point x="234.92631578947368" y="335.7263157894737" type="line"/>
      <point x="183.82105263157894" y="335.7263157894737"/>
      <point x="124.4421052631579" y="336.0"/>
      <point x="61.78947368421053" y="339.36842105263156" type="curve"/>
      <point x="61.78947368421053" y="258.2947368421053" type="line"/>
      <point x="124.4421052631579" y="261.66315789473686"/>
      <point x="183.82105263157894" y="261.93684210526317"/>
      <point x="234.92631578947368" y="261.93684210526317" type="curve"/>
      <point x="333.2842105263158" y="261.93684210526317" type="line"/>
      <point x="379.7473684210526" y="261.93684210526317"/>
      <point x="434.2105263157895" y="261.66315789473686"/>
      <point x="490.94736842105266" y="258.2947368421053" type="curve"/>
      <point x="430.9894736842105" y="313.6842105263158" type="line"/>
      <point x="430.9894736842105" y="232.38947368421051" type="line"/>
      <point x="430.9894736842105" y="181.2842105263158"/>
      <point x="430.7157894736842" y="121.90526315789474"/>
    </contour>
  </outline>
</glyph>
<glyph name="plusminus" format="2">
  <advance width="568.2105263157895"/>
  <unicode hex="00B1"/>
  <outline>
    <contour>
      <point x="61.78947368421053" y="-3.642105263157895" type="line"/>
      <point x="124.4421052631579" y="-0.2736842105263158"/>
      <point x="183.82105263157894" y="0.0"/>
      <point x="234.92631578947368" y="0.0" type="curve"/>
      <point x="333.2842105263158" y="0.0" type="line"/>
      <point x="384.38947368421054" y="0.0"/>
      <point x="443.7684210526316" y="-0.2736842105263158"/>
      <point x="506.42105263157896" y="-3.642105263157895" type="curve"/>
      <point x="506.42105263157896" y="77.43157894736842" type="line"/>
      <point x="443.7684210526316" y="74.06315789473683"/>
      <point x="384.38947368421054" y="73.78947368421052"/>
      <point x="333.2842105263158" y="73.78947368421052" type="curve"/>
      <point x="234.92631578947368" y="73.78947368421052" type="line"/>
      <point x="183.82105263157894" y="73.78947368421052"/>
      <point x="124.4421052631579" y="74.06315789473683"/>
      <point x="61.78947368421053" y="77.43157894736842" type="curve"/>
    </contour>
    <contour>
      <point x="61.78947368421053" y="355.10526315789474" type="line"/>
      <point x="124.4421052631579" y="358.4736842105263"/>
      <point x="183.82105263157894" y="358.7473684210526"/>
      <point x="234.92631578947368" y="358.7473684210526" type="curve"/>
      <point x="333.2842105263158" y="358.7473684210526" type="line"/>
      <point x="384.38947368421054" y="358.7473684210526"/>
      <point x="443.7684210526316" y="358.4736842105263"/>
      <point x="506.42105263157896" y="355.10526315789474" type="curve"/>
      <point x="506.42105263157896" y="436.17894736842106" type="line"/>
      <point x="443.7684210526316" y="432.8105263157895"/>
      <point x="384.38947368421054" y="432.5368421052632"/>
      <point x="333.2842105263158" y="432.5368421052632" type="curve"/>
      <point x="234.92631578947368" y="432.5368421052632" type="line"/>
      <point x="183.82105263157894" y="432.5368421052632"/>
      <point x="124.4421052631579" y="432.8105263157895"/>
      <point x="61.78947368421053" y="436.17894736842106" type="curve"/>
    </contour>
    <contour>
      <point x="242.7473684210526" y="161.53684210526316" type="curve"/>
      <point x="325.4631578947368" y="161.53684210526316" type="line"/>
      <point x="322.09473684210525" y="224.18947368421053"/>
      <point x="321.82105263157894" y="283.5684210526316"/>
      <point x="321.82105263157894" y="334.6736842105263" type="curve"/>
      <point x="321.82105263157894" y="456.61052631578946" type="line"/>
      <point x="321.82105263157894" y="507.7157894736842"/>
      <point x="322.09473684210525" y="567.0947368421052"/>
      <point x="325.4631578947368" y="629.7473684210527" type="curve"/>
      <point x="242.7473684210526" y="629.7473684210527" type="line"/>
      <point x="246.1157894736842" y="567.0947368421052"/>
      <point x="246.38947368421051" y="507.7157894736842"/>
      <point x="246.38947368421051" y="456.61052631578946" type="curve"/>
      <point x="246.38947368421051" y="334.6736842105263" type="line"/>
      <point x="246.38947368421051" y="283.5684210526316"/>
      <point x="246.1157894736842" y="224.18947368421053"/>
    </contour>
  </outline>
</glyph>
<glyph name="micro" format="2">
  <advance width="560.4947368421052"/>
  <unicode hex="00B5"/>
  <outline>
    <contour>
      <point x="67.02105263157894" y="-195.09473684210528" type="curve"/>
      <point x="165.14736842105265" y="-192.0" type="line"/>
      <point x="158.58947368421056" y="-118.6421052631579"/>
      <point x="156.67368421052635" y="-55.01052631578948"/>
      <point x="156.67368421052635" y="23.25263157894737" type="curve" smooth="yes"/>
      <point x="156.67368421052635" y="40.78947368421053" type="line"/>
      <point x="126.30526315789473" y="40.78947368421053" type="line"/>
      <point x="148.93684210526317" y="6.347368421052631"/>
      <point x="184.37894736842105" y="-10.91578947368421"/>
      <point x="237.62105263157895" y="-10.91578947368421" type="curve" smooth="yes"/>
      <point x="297.0421052631579" y="-10.91578947368421"/>
      <point x="366.10526315789474" y="43.694736842105264"/>
      <point x="401.0105263157895" y="88.97894736842106" type="curve"/>
      <point x="410.021052631579" y="88.97894736842106" type="line"/>
      <point x="434.01052631578943" y="0.0" type="line"/>
      <point x="515.4526315789474" y="0.0" type="line"/>
      <point x="495.7157894736842" y="57.37894736842105"/>
      <point x="484.17894736842106" y="106.85263157894737"/>
      <point x="484.17894736842106" y="151.50526315789475" type="curve"/>
      <point x="484.17894736842106" y="271.5473684210526" type="line"/>
      <point x="484.17894736842106" y="357.0210526315789"/>
      <point x="489.36842105263156" y="423.5578947368421"/>
      <point x="487.0" y="496.18947368421055" type="curve"/>
      <point x="395.0736842105263" y="496.18947368421055" type="line"/>
      <point x="399.7157894736842" y="422.8315789473684"/>
      <point x="401.63157894736844" y="357.7473684210526"/>
      <point x="401.63157894736844" y="279.7578947368421" type="curve"/>
      <point x="401.63157894736844" y="164.6" type="line"/>
      <point x="362.30526315789473" y="109.02105263157895"/>
      <point x="295.0" y="65.69473684210527"/>
      <point x="254.7684210526316" y="65.69473684210527" type="curve" smooth="yes"/>
      <point x="180.6526315789474" y="65.69473684210527"/>
      <point x="156.67368421052635" y="108.85263157894738"/>
      <point x="156.67368421052635" y="193.6315789473684" type="curve"/>
      <point x="156.67368421052635" y="279.7578947368421" type="line"/>
      <point x="156.67368421052635" y="357.7473684210526"/>
      <point x="161.31578947368422" y="425.9263157894737"/>
      <point x="160.0421052631579" y="499.2842105263158" type="curve"/>
      <point x="66.47368421052632" y="496.18947368421055" type="line"/>
      <point x="71.66315789473684" y="422.8315789473684"/>
      <point x="74.12631578947368" y="357.7473684210526"/>
      <point x="74.12631578947368" y="271.5473684210526" type="curve"/>
      <point x="74.12631578947368" y="26.810526315789474" type="line"/>
      <point x="74.12631578947368" y="-55.01052631578948"/>
      <point x="72.21052631578947" y="-121.73684210526316"/>
    </contour>
  </outline>
</glyph>
<glyph name="paragraph" format="2">
  <advance width="547.1789473684211"/>
  <unicode hex="00B6"/>
  <outline>
    <contour>
      <point x="221.7157894736842" y="299.58947368421053" type="curve" smooth="yes"/>
      <point x="241.98947368421054" y="299.58947368421053" type="line"/>
      <point x="241.98947368421054" y="713.0" type="line"/>
      <point x="221.7157894736842" y="713.0" type="line"/>
      <point x="107.78947368421052" y="713.0"/>
      <point x="33.1578947368421" y="627.9894736842106"/>
      <point x="33.1578947368421" y="509.4315789473684" type="curve" smooth="yes"/>
      <point x="33.1578947368421" y="397.87368421052633"/>
      <point x="100.51578947368421" y="299.58947368421053"/>
    </contour>
    <contour>
      <point x="219.16842105263157" y="-174.82105263157894" type="curve"/>
      <point x="285.1894736842105" y="-174.82105263157894" type="line"/>
      <point x="281.5473684210526" y="-56.82105263157895"/>
      <point x="281.2736842105263" y="46.17894736842105"/>
      <point x="281.2736842105263" y="154.17894736842106" type="curve"/>
      <point x="281.2736842105263" y="384.0" type="line"/>
      <point x="281.2736842105263" y="492.0"/>
      <point x="281.5473684210526" y="595.0"/>
      <point x="286.0105263157895" y="713.0" type="curve"/>
      <point x="223.90526315789472" y="713.0" type="line"/>
      <point x="223.90526315789472" y="595.0"/>
      <point x="223.90526315789472" y="492.0"/>
      <point x="223.90526315789472" y="384.0" type="curve"/>
      <point x="223.90526315789472" y="154.17894736842106" type="line"/>
      <point x="223.90526315789472" y="46.17894736842105"/>
      <point x="223.6315789473684" y="-56.82105263157895"/>
    </contour>
    <contour>
      <point x="366.4105263157895" y="-174.82105263157894" type="curve"/>
      <point x="432.43157894736845" y="-174.82105263157894" type="line"/>
      <point x="427.9684210526316" y="-56.82105263157895"/>
      <point x="427.69473684210527" y="46.17894736842105"/>
      <point x="427.69473684210527" y="154.17894736842106" type="curve"/>
      <point x="427.69473684210527" y="384.0" type="line"/>
      <point x="427.69473684210527" y="492.0"/>
      <point x="427.9684210526316" y="595.0"/>
      <point x="432.43157894736845" y="713.0" type="curve"/>
      <point x="365.58947368421053" y="713.0" type="line"/>
      <point x="370.0526315789474" y="595.0"/>
      <point x="370.3263157894737" y="492.0"/>
      <point x="370.3263157894737" y="384.0" type="curve"/>
      <point x="370.3263157894737" y="154.17894736842106" type="line"/>
      <point x="370.3263157894737" y="46.17894736842105"/>
      <point x="370.0526315789474" y="-56.82105263157895"/>
    </contour>
    <contour>
      <point x="248.42105263157896" y="658.3684210526316" type="line"/>
      <point x="346.77894736842103" y="658.3684210526316" type="line"/>
      <point x="397.88421052631577" y="658.3684210526316"/>
      <point x="457.2631578947368" y="658.0947368421052"/>
      <point x="519.9157894736842" y="654.7263157894737" type="curve"/>
      <point x="519.9157894736842" y="713.0" type="line"/>
      <point x="457.2631578947368" y="713.0"/>
      <point x="397.88421052631577" y="713.0"/>
      <point x="346.77894736842103" y="713.0" type="curve"/>
      <point x="248.42105263157896" y="713.0" type="line"/>
    </contour>
  </outline>
</glyph>
<glyph name="AE" format="2">
  <advance width="975.1264367816093"/>
  <unicode hex="00C6"/>
  <anchor x="518.4942528735633" y="0.0" name="bottom"/>
  <anchor x="518.4942528735633" y="713.0" name="top"/>
  <outline>
    <contour>
      <point x="10.620689655172415" y="0.0" type="curve"/>
      <point x="121.36781609195403" y="0.0" type="line"/>
      <point x="161.01149425287358" y="84.02298850574712"/>
      <point x="207.05747126436782" y="175.2528735632184"/>
      <point x="250.88505747126436" y="256.8735632183908" type="curve"/>
      <point x="455.02298850574715" y="637.7701149425287" type="line"/>
      <point x="474.8045977011494" y="637.7701149425287" type="line"/>
      <point x="537.0689655172414" y="637.7701149425287" type="line"/>
      <point x="544.8390804597701" y="713.0" type="line"/>
      <point x="397.1609195402299" y="713.0" type="line"/>
      <point x="364.54022988505744" y="640.2068965517242"/>
      <point x="329.11494252873564" y="572.7931034482758"/>
      <point x="283.5057471264368" y="488.2068965517241" type="curve"/>
      <point x="149.6551724137931" y="242.0" type="line"/>
      <point x="108.24137931034483" y="165.4022988505747"/>
      <point x="57.82758620689655" y="76.0"/>
    </contour>
    <contour>
      <point x="186.31034482758622" y="179.0919540229885" type="line"/>
      <point x="514.1149425287357" y="179.0919540229885" type="line"/>
      <point x="507.5402298850575" y="250.33333333333334" type="line"/>
      <point x="194.08045977011494" y="250.33333333333334" type="line"/>
    </contour>
    <contour>
      <point x="467.02298850574715" y="0.0" type="curve"/>
      <point x="570.367816091954" y="0.0" type="line"/>
      <point x="570.367816091954" y="13.563218390804598" type="line"/>
      <point x="564.3793103448276" y="92.77011494252874"/>
      <point x="562.5862068965517" y="161.57471264367817"/>
      <point x="562.5862068965517" y="249.17241379310346" type="curve"/>
      <point x="562.5862068965517" y="461.8390804597701" type="line"/>
      <point x="562.5862068965517" y="550.6321839080459"/>
      <point x="564.3793103448276" y="620.0344827586207"/>
      <point x="570.367816091954" y="699.8390804597701" type="curve"/>
      <point x="570.367816091954" y="713.0" type="line"/>
      <point x="467.02298850574715" y="713.0" type="line"/>
      <point x="472.01149425287355" y="633.1954022988506"/>
      <point x="473.8045977011494" y="563.7931034482758"/>
      <point x="473.8045977011494" y="475.0" type="curve"/>
      <point x="473.8045977011494" y="235.60919540229884" type="line"/>
      <point x="473.8045977011494" y="147.41379310344828"/>
      <point x="472.01149425287355" y="79.20689655172414"/>
    </contour>
    <contour>
      <point x="551.2068965517242" y="0.0" type="line"/>
      <point x="918.1034482758621" y="0.0" type="line"/>
      <point x="918.1034482758621" y="85.80459770114942" type="line"/>
      <point x="845.8850574712644" y="79.2183908045977"/>
      <point x="769.264367816092" y="77.62068965517241"/>
      <point x="682.2413793103449" y="77.62068965517241" type="curve"/>
      <point x="551.2068965517242" y="77.62068965517241" type="line"/>
    </contour>
    <contour>
      <point x="542.8390804597701" y="323.6896551724138" type="line"/>
      <point x="680.8620689655173" y="323.6896551724138" type="line"/>
      <point x="770.6781609195403" y="323.6896551724138"/>
      <point x="831.2873563218392" y="323.0919540229885"/>
      <point x="897.2988505747127" y="320.2988505747126" type="curve"/>
      <point x="897.2988505747127" y="404.3103448275862" type="line"/>
      <point x="834.6896551724138" y="399.51724137931035"/>
      <point x="773.6781609195403" y="398.91954022988506"/>
      <point x="681.264367816092" y="398.91954022988506" type="curve"/>
      <point x="542.8390804597701" y="398.91954022988506" type="line"/>
    </contour>
    <contour>
      <point x="547.0229885057471" y="635.3793103448276" type="line"/>
      <point x="674.6551724137931" y="635.3793103448276" type="line"/>
      <point x="778.080459770115" y="635.3793103448276"/>
      <point x="849.896551724138" y="633.183908045977"/>
      <point x="916.7126436781609" y="627.1954022988506" type="curve"/>
      <point x="916.7126436781609" y="713.0" type="line"/>
      <point x="547.0229885057471" y="713.0" type="line"/>
    </contour>
  </outline>
</glyph>
<glyph name="multiply" format="2">
  <advance width="566.0421052631579"/>
  <unicode hex="00D7"/>
  <outline>
    <contour>
      <point x="448.33684210526314" y="76.39999999999999" type="curve"/>
      <point x="505.4526315789474" y="133.51578947368424" type="line"/>
      <point x="459.0736842105263" y="175.70526315789473"/>
      <point x="416.7894736842105" y="217.7157894736842"/>
      <point x="380.3263157894737" y="253.7263157894737" type="curve"/>
      <point x="237.9157894736842" y="396.13684210526316" type="line"/>
      <point x="201.90526315789475" y="432.6"/>
      <point x="159.89473684210526" y="474.88421052631577"/>
      <point x="117.70526315789473" y="521.2631578947369" type="curve"/>
      <point x="60.589473684210525" y="464.14736842105265" type="line"/>
      <point x="106.96842105263158" y="421.9578947368421"/>
      <point x="149.25263157894736" y="379.9473684210526"/>
      <point x="185.7157894736842" y="343.93684210526317" type="curve"/>
      <point x="328.12631578947367" y="201.52631578947367" type="line"/>
      <point x="364.13684210526316" y="165.06315789473683"/>
      <point x="406.14736842105265" y="122.77894736842106"/>
    </contour>
    <contour>
      <point x="117.70526315789473" y="76.39999999999999" type="line"/>
      <point x="159.89473684210526" y="122.77894736842106"/>
      <point x="201.90526315789475" y="165.06315789473683"/>
      <point x="237.9157894736842" y="201.52631578947367" type="curve"/>
      <point x="380.3263157894737" y="343.93684210526317" type="line"/>
      <point x="416.7894736842105" y="379.9473684210526"/>
      <point x="459.0736842105263" y="421.9578947368421"/>
      <point x="505.4526315789474" y="464.14736842105265" type="curve"/>
      <point x="448.33684210526314" y="521.2631578947369" type="line"/>
      <point x="406.14736842105265" y="474.88421052631577"/>
      <point x="364.13684210526316" y="432.6"/>
      <point x="328.12631578947367" y="396.13684210526316" type="curve"/>
      <point x="185.7157894736842" y="253.7263157894737" type="line"/>
      <point x="149.25263157894736" y="217.7157894736842"/>
      <point x="106.96842105263158" y="175.70526315789473"/>
      <point x="60.589473684210525" y="133.51578947368424" type="curve"/>
    </contour>
  </outline>
</glyph>
<glyph name="Oslash" format="2">
  <advance width="816.8105263157895"/>
  <unicode hex="00D8"/>
  <anchor x="408.17894736842106" y="0.0" name="bottom"/>
  <anchor x="408.17894736842106" y="357.0" name="center"/>
  <anchor x="504.12631578947367" y="0.0" name="ogonek"/>
  <anchor x="408.17894736842106" y="713.0" name="top"/>
  <anchor x="26.178947368421053" y="713.0" name="topleft"/>
  <anchor x="714.8842105263158" y="713.0" name="topright"/>
  <outline>
    <contour>
      <point x="411.90526315789475" y="-10.91578947368421" type="curve" smooth="yes"/>
      <point x="634.8526315789474" y="-10.91578947368421"/>
      <point x="766.6631578947369" y="146.3578947368421"/>
      <point x="766.6631578947369" y="357.4526315789474" type="curve" smooth="yes"/>
      <point x="766.6631578947369" y="562.0"/>
      <point x="641.1263157894737" y="726.0947368421052"/>
      <point x="408.81052631578945" y="726.0947368421052" type="curve" smooth="yes"/>
      <point x="180.22105263157894" y="726.0947368421052"/>
      <point x="50.14736842105263" y="564.4526315789474"/>
      <point x="50.14736842105263" y="357.17894736842106" type="curve" smooth="yes"/>
      <point x="50.14736842105263" y="158.82105263157894"/>
      <point x="169.58947368421053" y="-10.91578947368421"/>
    </contour>
    <contour>
      <point x="409.63157894736844" y="67.2421052631579" type="curve"/>
      <point x="226.1263157894737" y="72.33684210526316"/>
      <point x="144.17894736842106" y="201.89473684210526"/>
      <point x="144.17894736842106" y="357.4526315789474" type="curve" smooth="yes"/>
      <point x="144.17894736842106" y="513.1052631578947"/>
      <point x="229.85263157894735" y="642.8421052631579"/>
      <point x="409.63157894736844" y="647.9368421052632" type="curve"/>
      <point x="583.5052631578948" y="642.8421052631579"/>
      <point x="672.6315789473684" y="521.8210526315789"/>
      <point x="672.6315789473684" y="357.4526315789474" type="curve" smooth="yes"/>
      <point x="672.6315789473684" y="204.79999999999998"/>
      <point x="592.8631578947368" y="72.33684210526316"/>
    </contour>
    <contour>
      <point x="134.76842105263157" y="-67.67368421052632" type="line"/>
      <point x="198.85263157894735" y="19.6"/>
      <point x="258.30526315789473" y="100.2421052631579"/>
      <point x="331.30526315789473" y="194.5157894736842" type="curve"/>
      <point x="528.8526315789474" y="454.7894736842105" type="line"/>
      <point x="601.8526315789474" y="549.7894736842105"/>
      <point x="662.1263157894737" y="626.5157894736842"/>
      <point x="733.3157894736842" y="713.1473684210526" type="curve"/>
      <point x="676.9473684210526" y="755.6736842105263" type="line"/>
      <point x="613.3157894736842" y="665.3052631578947"/>
      <point x="554.1368421052631" y="586.3052631578947"/>
      <point x="480.13684210526316" y="489.57894736842104" type="curve"/>
      <point x="284.86315789473684" y="232.85263157894738" type="line"/>
      <point x="213.13684210526316" y="139.1263157894737"/>
      <point x="153.86315789473684" y="65.39999999999999"/>
      <point x="81.22105263157894" y="-22.50526315789474" type="curve"/>
    </contour>
  </outline>
</glyph>
<glyph name="Thorn" format="2">
  <advance width="628.528735632184"/>
  <unicode hex="00DE"/>
  <outline>
    <contour>
      <point x="87.08045977011493" y="0.0" type="curve"/>
      <point x="190.42528735632183" y="0.0" type="line"/>
      <point x="184.4367816091954" y="79.20689655172414"/>
      <point x="183.24137931034483" y="147.41379310344828"/>
      <point x="183.24137931034483" y="235.60919540229884" type="curve"/>
      <point x="183.24137931034483" y="475.0" type="line"/>
      <point x="183.24137931034483" y="563.7931034482758"/>
      <point x="184.4367816091954" y="633.1954022988506"/>
      <point x="190.42528735632183" y="713.0" type="curve"/>
      <point x="87.08045977011493" y="713.0" type="line"/>
      <point x="92.06896551724137" y="633.1954022988506"/>
      <point x="93.86206896551724" y="563.7931034482758"/>
      <point x="93.86206896551724" y="475.0" type="curve"/>
      <point x="93.86206896551724" y="235.60919540229884" type="line"/>
      <point x="93.86206896551724" y="147.41379310344828"/>
      <point x="92.06896551724137" y="79.20689655172414"/>
    </contour>
    <contour>
      <point x="327.08045977011494" y="155.25287356321837" type="curve"/>
      <point x="523.1149425287357" y="155.25287356321837"/>
      <point x="586.8965517241379" y="251.24137931034483"/>
      <point x="586.8965517241379" y="381.60919540229884" type="curve" smooth="yes"/>
      <point x="586.8965517241379" y="523.3333333333334"/>
      <point x="508.5287356321839" y="587.3448275862069"/>
      <point x="346.1609195402299" y="587.3448275862069" type="curve"/>
      <point x="271.71264367816093" y="587.3448275862069"/>
      <point x="212.8735632183908" y="585.7471264367816"/>
      <point x="171.66666666666669" y="585.7471264367816" type="curve"/>
      <point x="171.66666666666669" y="510.51724137931035" type="line"/>
      <point x="339.9770114942529" y="510.51724137931035" type="line" smooth="yes"/>
      <point x="407.82758620689657" y="510.51724137931035"/>
      <point x="494.7241379310345" y="498.5287356321839"/>
      <point x="494.7241379310345" y="381.01149425287355" type="curve" smooth="yes"/>
      <point x="494.7241379310345" y="274.71264367816093"/>
      <point x="438.0689655172414" y="231.67816091954023"/>
      <point x="309.9425287356322" y="231.67816091954023" type="curve" smooth="yes"/>
      <point x="171.66666666666669" y="231.67816091954023" type="line"/>
      <point x="171.66666666666669" y="156.85057471264366" type="line"/>
      <point x="210.4712643678161" y="156.85057471264366"/>
      <point x="277.2758620689655" y="155.25287356321837"/>
    </contour>
  </outline>
</glyph>
